<svg width="1000" height="1000" viewBox="0 0 1000 1000" fill="none" xmlns="http://www.w3.org/2000/svg">
<path d="M1000 0H0V1000H1000V0Z" fill="#FFF2DC"/>
<path d="M63.2 959.2C63.2 961.7 62 962.9 60.6 962.9C59.5 962.9 58.7 962.4 58.5 961.5C58.1 962 57.5 962.3 56.7 962.3C55.2 962.3 54.1 961.1 54.1 959.5C54.1 957.9 55.2 956.7 56.7 956.7C57.4 956.7 57.9 957 58.3 957.4V956.9H59.9V960.8C59.9 961.6 60.2 962.2 60.9 962.2C61.8 962.2 62.6 961.3 62.6 959.2C62.6 956.2 60.3 953.9 57.2 953.9C54.1 953.9 51.6 956.3 51.6 959.6C51.6 962.9 54.1 965.3 57.5 965.3C58.6 965.3 59.6 965.1 60.4 964.9V965.5C59.6 965.8 58.7 965.9 57.5 965.9C53.8 965.9 51 963.3 51 959.7C51 956.3 53.7 953.5 57.2 953.5C61.1 953.3 63.2 956.4 63.2 959.2ZM58.3 959.5C58.3 958.7 57.7 958.1 57 958.1C56.2 958.1 55.7 958.6 55.7 959.5C55.7 960.3 56.3 960.8 57 960.8C57.8 960.9 58.3 960.3 58.3 959.5Z" fill="#AD5349"/>
<path d="M69.4004 955.1V957.1C68.2004 957 66.8004 957.6 66.8004 959.5V963.8H64.9004V955.2H66.8004V956.6C67.3004 955.5 68.3004 955.1 69.4004 955.1Z" fill="#AD5349"/>
<path d="M74.5998 962.3C75.5998 962.3 76.3998 961.8 76.7998 961.2L78.2998 962.1C77.4998 963.3 76.1998 964 74.4998 964C71.6998 964 69.7998 962.1 69.7998 959.5C69.7998 957 71.5998 955 74.2998 955C76.8998 955 78.5998 957.1 78.5998 959.5C78.5998 959.8 78.5998 960 78.4998 960.3H71.6998C72.0998 961.6 73.1998 962.3 74.5998 962.3ZM76.8998 958.8C76.5998 957.3 75.5998 956.7 74.3998 956.7C72.9998 956.7 72.0998 957.5 71.7998 958.8H76.8998Z" fill="#AD5349"/>
<path d="M88.9002 955.2V963.8H87.0002V962.6C86.3002 963.5 85.3002 964.1 84.0002 964.1C81.7002 964.1 79.7002 962.1 79.7002 959.6C79.7002 957 81.6002 955.1 84.0002 955.1C85.3002 955.1 86.3002 955.6 87.0002 956.5V955.3H88.9002V955.2ZM87.1002 959.5C87.1002 957.9 85.9002 956.8 84.4002 956.8C82.9002 956.8 81.7002 957.9 81.7002 959.5C81.7002 961.1 82.9002 962.2 84.4002 962.2C85.9002 962.3 87.1002 961.1 87.1002 959.5Z" fill="#AD5349"/>
<path d="M91.0996 951.3H92.9996V963.8H91.0996V951.3Z" fill="#AD5349"/>
<path d="M102.9 955.2L99.6002 963.8H97.5002L94.2002 955.2H96.2002L98.6002 961.7L101 955.2H102.9Z" fill="#AD5349"/>
<path d="M104.2 955.2H106.1V964.1C106.1 966.5 104.9 967.6 102.6 967.4V965.6C103.7 965.7 104.3 965.3 104.3 964.1V955.2H104.2ZM104 952.8C104 952.1 104.5 951.6 105.2 951.6C105.9 951.6 106.4 952.1 106.4 952.8C106.4 953.4 105.9 954 105.2 954C104.5 954 104 953.4 104 952.8Z" fill="#AD5349"/>
<path d="M116 955.2L112.7 964C111.9 966.2 110.5 967.3 108.5 967.2V965.5C109.7 965.6 110.4 965 110.8 963.8L110.9 963.6L107.3 955.2H109.3L111.9 961.4L114.1 955.2H116V955.2Z" fill="#AD5349"/>
<path d="M211.9 938.7C211.9 940.8 210.4 942.5 208.3 942.5H205.3V934.9H208.3C210.4 934.9 211.9 936.6 211.9 938.7ZM210.9 938.7C210.9 937.1 209.8 935.8 208.3 935.8H206.3V941.5H208.3C209.8 941.6 210.9 940.3 210.9 938.7Z" fill="#AD5349"/>
<path d="M219.499 940.8H216.099L215.499 942.5H214.399L217.199 934.9H218.299L221.099 942.5H219.999L219.499 940.8ZM219.199 939.9L217.799 936.1L216.399 939.9H219.199Z" fill="#AD5349"/>
<path d="M226.4 939.4V942.5H225.4V939.4L222.7 934.9H223.8L225.9 938.5L228 934.9H229.1L226.4 939.4Z" fill="#AD5349"/>
<path d="M242.099 940.1C242.099 941.6 240.999 942.7 239.499 942.7C237.999 942.7 236.899 941.6 236.899 940.1C236.899 939.5 237.099 939 237.399 938.6L239.899 934.9H241.099L239.299 937.6C239.399 937.6 239.499 937.6 239.699 937.6C240.999 937.5 242.099 938.6 242.099 940.1ZM241.099 940.1C241.099 939.1 240.399 938.5 239.499 938.5C238.499 938.5 237.899 939.1 237.899 940.1C237.899 941.1 238.599 941.7 239.499 941.7C240.399 941.7 241.099 941 241.099 940.1Z" fill="#AD5349"/>
<path d="M244.899 941.7L247.599 939C248.199 938.4 248.699 937.8 248.699 937.1C248.699 936.2 248.099 935.7 247.299 935.7C246.599 935.7 246.099 936 245.699 936.7L244.899 936.2C245.399 935.2 246.299 934.7 247.299 934.7C248.499 934.7 249.699 935.5 249.699 937C249.699 937.9 249.099 938.8 248.299 939.5L246.299 941.4H249.799V942.4H244.899V941.7V941.7Z" fill="#AD5349"/>
<path d="M58.8998 938.7C58.8998 940.8 57.3998 942.5 55.2998 942.5H52.2998V934.9H55.2998C57.3998 934.9 58.8998 936.6 58.8998 938.7ZM57.8998 938.7C57.8998 937.1 56.7998 935.8 55.2998 935.8H53.2998V941.5H55.2998C56.7998 941.6 57.8998 940.3 57.8998 938.7Z" fill="#AD5349"/>
<path d="M66.9994 941.6V942.6H62.3994V935H66.8994V936H63.3994V938.3H66.5994V939.2H63.3994V941.6H66.9994V941.6Z" fill="#AD5349"/>
<path d="M70 940.8L70.9 940.3C71.2 941.1 71.8 941.7 72.9 941.7C74 941.7 74.5 941.2 74.5 940.5C74.5 939.7 73.8 939.5 72.7 939.1C71.5 938.7 70.3 938.3 70.3 936.9C70.3 935.5 71.4 934.7 72.7 934.7C74 934.7 74.9 935.4 75.3 936.4L74.5 936.9C74.2 936.2 73.7 935.7 72.8 935.7C72 935.7 71.4 936.1 71.4 936.8C71.4 937.5 71.9 937.8 73 938.1C74.3 938.5 75.6 938.9 75.6 940.4C75.6 941.7 74.5 942.6 73 942.6C71.5 942.7 70.4 941.9 70 940.8Z" fill="#AD5349"/>
<path d="M80 934.9V942.5H79V934.9H80Z" fill="#AD5349"/>
<path d="M91.2996 939.2C91.2996 941.1 89.8996 942.7 87.5996 942.7C85.1996 942.7 83.5996 940.9 83.5996 938.7C83.5996 936.5 85.2996 934.7 87.5996 934.7C88.9996 934.7 90.2996 935.5 90.8996 936.5L89.9996 937C89.5996 936.2 88.5996 935.6 87.5996 935.6C85.7996 935.6 84.5996 936.9 84.5996 938.6C84.5996 940.3 85.7996 941.6 87.5996 941.6C89.1996 941.6 90.0996 940.7 90.2996 939.6H87.4996V938.7H91.2996V939.2V939.2Z" fill="#AD5349"/>
<path d="M100.599 934.9V942.5H99.7994L95.8994 936.8V942.5H94.8994V934.9H95.6994L99.5994 940.6V934.9H100.599Z" fill="#AD5349"/>
<path d="M109.1 941.6V942.6H104.5V935H109V936H105.5V938.3H108.7V939.2H105.5V941.6H109.1V941.6Z" fill="#AD5349"/>
<path d="M119.2 938.7C119.2 940.8 117.7 942.5 115.6 942.5H112.6V934.9H115.6C117.6 934.9 119.2 936.6 119.2 938.7ZM118.2 938.7C118.2 937.1 117.1 935.8 115.6 935.8H113.6V941.5H115.6C117.1 941.6 118.2 940.3 118.2 938.7Z" fill="#AD5349"/>
<path d="M133.2 940.4C133.2 941.6 132.2 942.6 131 942.6H127.7V935H130.7C131.9 935 132.8 935.9 132.8 937.1C132.8 937.8 132.5 938.3 132 938.7C132.7 938.9 133.2 939.5 133.2 940.4ZM128.7 935.8V938.1H130.7C131.3 938.1 131.8 937.6 131.8 936.9C131.8 936.3 131.3 935.7 130.7 935.7H128.7V935.8ZM132.2 940.3C132.2 939.6 131.7 939.1 131 939.1H128.7V941.6H131C131.7 941.6 132.2 941 132.2 940.3Z" fill="#AD5349"/>
<path d="M139.4 939.4V942.5H138.4V939.4L135.7 934.9H136.8L138.9 938.5L141 934.9H142.1L139.4 939.4Z" fill="#AD5349"/>
<path d="M204.8 958.1C204.8 954.5 207.6 951.7 211.2 951.7C214.8 951.7 217.6 954.5 217.6 958.1C217.6 961.7 214.8 964.5 211.2 964.5C207.7 964.5 204.8 961.7 204.8 958.1ZM215.6 958.1C215.6 955.6 213.7 953.7 211.2 953.7C208.7 953.7 206.8 955.6 206.8 958.1C206.8 960.6 208.7 962.5 211.2 962.5C213.7 962.5 215.6 960.6 215.6 958.1Z" fill="#AD5349"/>
<path d="M231.7 964.3H229.8V957.3H226.9V964.3H225V957.3H222V964.3H220.1V957.3H218.8V955.5H220.1V955.3C220.1 952.9 221.4 951.5 224.1 951.7V953.5C222.8 953.4 222 953.9 222 955.3V955.5H225V955.1C225 952.7 226.3 951.5 229 951.5C229.6 951.5 230.3 951.6 231 951.7V953.5C230.3 953.4 229.7 953.4 229 953.4C227.7 953.4 226.9 953.8 226.9 955.2V955.6H231.8V964.3H231.7Z" fill="#AD5349"/>
<path d="M233.399 959.9C233.399 957.3 235.399 955.2 238.099 955.2C239.799 955.2 241.299 956.1 241.999 957.5L240.399 958.5C239.999 957.7 239.099 957.1 238.099 957.1C236.499 957.1 235.399 958.3 235.399 959.9C235.399 961.5 236.599 962.7 238.099 962.7C239.199 962.7 239.999 962.2 240.499 961.3L242.099 962.2C241.399 963.6 239.899 964.5 238.099 964.5C235.399 964.5 233.399 962.5 233.399 959.9Z" fill="#AD5349"/>
<path d="M247.6 962.8C248.7 962.8 249.5 962.3 249.9 961.7L251.5 962.6C250.7 963.8 249.4 964.5 247.6 964.5C244.7 964.5 242.8 962.5 242.8 959.8C242.8 957.2 244.7 955.1 247.5 955.1C250.1 955.1 251.9 957.2 251.9 959.8C251.9 960.1 251.9 960.3 251.8 960.6H244.8C245.1 962.1 246.2 962.8 247.6 962.8ZM250 959.1C249.7 957.6 248.6 956.9 247.5 956.9C246.1 956.9 245.1 957.7 244.8 959.1H250Z" fill="#AD5349"/>
<path d="M267.2 960.8C267.2 962.9 265.5 964.3 263.5 964.3H258.2V951.9H263.1C265.1 951.9 266.7 953.4 266.7 955.3C266.7 956.4 266.2 957.3 265.4 957.8C266.5 958.4 267.2 959.4 267.2 960.8ZM260.2 953.8V957.1H263.1C264 957.1 264.7 956.4 264.7 955.5C264.7 954.6 264 953.9 263.1 953.9H260.2V953.8ZM265.2 960.6C265.2 959.6 264.5 958.9 263.5 958.9H260.2V962.4H263.5C264.4 962.4 265.2 961.6 265.2 960.6Z" fill="#AD5349"/>
<path d="M277.9 955.4V964.3H276V963C275.3 963.9 274.3 964.5 272.9 964.5C270.5 964.5 268.5 962.5 268.5 959.8C268.5 957.2 270.5 955.1 272.9 955.1C274.3 955.1 275.3 955.7 276 956.6V955.3H277.9V955.4ZM275.9 959.9C275.9 958.3 274.7 957.1 273.1 957.1C271.5 957.1 270.3 958.3 270.3 959.9C270.3 961.5 271.5 962.7 273.1 962.7C274.7 962.7 275.9 961.5 275.9 959.9Z" fill="#AD5349"/>
<path d="M289 955.4V963.8C289 966.6 286.8 968 284.5 968C282.6 968 281 967.3 280.3 965.9L281.9 964.9C282.3 965.7 282.9 966.3 284.5 966.3C286.1 966.3 287.1 965.4 287.1 963.9V962.8C286.4 963.8 285.4 964.3 284 964.3C281.5 964.3 279.5 962.3 279.5 959.7C279.5 957.1 281.5 955.1 284 955.1C285.4 955.1 286.4 955.7 287.1 956.6V955.3H289V955.4ZM287.1 959.8C287.1 958.2 285.9 957 284.3 957C282.7 957 281.5 958.2 281.5 959.8C281.5 961.4 282.7 962.6 284.3 962.6C285.9 962.6 287.1 961.4 287.1 959.8Z" fill="#AD5349"/>
<path d="M846.1 938.7C846.1 940.8 844.6 942.5 842.5 942.5H839.5V934.9H842.5C844.6 934.9 846.1 936.6 846.1 938.7ZM845.2 938.7C845.2 937.1 844.1 935.8 842.6 935.8H840.6V941.5H842.6C844.1 941.6 845.2 940.3 845.2 938.7Z" fill="#AD5349"/>
<path d="M849.3 938.7C849.3 936.5 851 934.7 853.2 934.7C855.4 934.7 857.2 936.5 857.2 938.7C857.2 940.9 855.5 942.7 853.2 942.7C851 942.7 849.3 940.9 849.3 938.7ZM856.1 938.7C856.1 937 854.8 935.7 853.2 935.7C851.5 935.7 850.3 937 850.3 938.7C850.3 940.4 851.6 941.7 853.2 941.7C854.9 941.7 856.1 940.4 856.1 938.7Z" fill="#AD5349"/>
<path d="M859.8 934.9H860.9L862.6 941.2L864.5 934.9H865.5L867.4 941.2L869.1 934.9H870.2L868 942.5H866.8L865 936.4L863.2 942.5H862L859.8 934.9Z" fill="#AD5349"/>
<path d="M879.3 934.9V942.5H878.5L874.6 936.8V942.5H873.6V934.9H874.4L878.3 940.6V934.9H879.3Z" fill="#AD5349"/>
<path d="M887.5 941.6V942.6H883.2V935H884.2V941.7H887.5V941.6Z" fill="#AD5349"/>
<path d="M889.9 938.7C889.9 936.5 891.6 934.7 893.8 934.7C896 934.7 897.8 936.5 897.8 938.7C897.8 940.9 896.1 942.7 893.8 942.7C891.6 942.7 889.9 940.9 889.9 938.7ZM896.8 938.7C896.8 937 895.5 935.7 893.9 935.7C892.2 935.7 891 937 891 938.7C891 940.4 892.3 941.7 893.9 941.7C895.5 941.7 896.8 940.4 896.8 938.7Z" fill="#AD5349"/>
<path d="M905.4 940.8H902L901.4 942.5H900.3L903.1 934.9H904.2L907 942.5H906L905.4 940.8ZM905.1 939.9L903.7 936.1L902.3 939.9H905.1Z" fill="#AD5349"/>
<path d="M916.9 938.7C916.9 940.8 915.4 942.5 913.3 942.5H910.3V934.9H913.3C915.4 934.9 916.9 936.6 916.9 938.7ZM915.9 938.7C915.9 937.1 914.8 935.8 913.3 935.8H911.3V941.5H913.3C914.9 941.6 915.9 940.3 915.9 938.7Z" fill="#AD5349"/>
<path d="M926.5 935.8V938.3H929.7V939.3H926.5V942.5H925.5V934.9H929.9V935.9H926.5V935.8Z" fill="#AD5349"/>
<path d="M936.2 939.6H934.4V942.5H933.4V934.9H936.4C937.7 934.9 938.8 936 938.8 937.3C938.8 938.3 938.1 939.2 937.2 939.5L939 942.6H937.9L936.2 939.6ZM934.4 938.7H936.4C937.2 938.7 937.8 938.1 937.8 937.3C937.8 936.5 937.2 935.9 936.4 935.9H934.4V938.7Z" fill="#AD5349"/>
<path d="M941.9 938.7C941.9 936.5 943.6 934.7 945.8 934.7C948 934.7 949.8 936.5 949.8 938.7C949.8 940.9 948.1 942.7 945.8 942.7C943.6 942.7 941.9 940.9 941.9 938.7ZM948.8 938.7C948.8 937 947.5 935.7 945.9 935.7C944.2 935.7 943 937 943 938.7C943 940.4 944.3 941.7 945.9 941.7C947.5 941.7 948.8 940.4 948.8 938.7Z" fill="#AD5349"/>
<path d="M960.4 942.5H959.4V936.5L956.9 940.7H956.8L954.3 936.6V942.5H953.3V934.9H954.4L956.8 938.9L959.2 934.9H960.3V942.5H960.4Z" fill="#AD5349"/>
<path d="M839.3 952.9C839.3 952.2 839.8 951.7 840.5 951.7C841.2 951.7 841.7 952.2 841.7 952.9C841.7 953.6 841.2 954.1 840.5 954.1C839.9 954.1 839.3 953.6 839.3 952.9ZM839.6 955.4H841.5V964.3H839.6V955.4Z" fill="#AD5349"/>
<path d="M843.7 951.4H845.6V964.3H843.7V951.4Z" fill="#AD5349"/>
<path d="M847.8 951.4H849.7V964.3H847.8V951.4Z" fill="#AD5349"/>
<path d="M852 951.4H853.9V964.3H852V951.4Z" fill="#AD5349"/>
<path d="M864 955.4V964.3H862.1V963.2C861.5 964.1 860.6 964.6 859.4 964.6C857.4 964.6 856 963.3 856 961V955.6H857.9V960.8C857.9 962.1 858.7 962.9 859.9 962.9C861.2 962.9 862.1 962.2 862.1 960.4V955.7H864V955.4Z" fill="#AD5349"/>
<path d="M872.6 961.8C872.6 963.6 871.1 964.5 869.1 964.5C867.3 964.5 866.1 963.7 865.5 962.4L867.1 961.4C867.4 962.2 868.1 962.7 869.1 962.7C869.9 962.7 870.6 962.4 870.6 961.7C870.6 960.1 865.8 961 865.8 957.8C865.8 956.1 867.2 955.1 869 955.1C870.5 955.1 871.7 955.8 872.3 956.9L870.7 957.8C870.4 957.1 869.8 956.8 869 956.8C868.3 956.8 867.7 957.1 867.7 957.7C867.9 959.5 872.6 958.5 872.6 961.8Z" fill="#AD5349"/>
<path d="M876.7 957.3V961.5C876.7 962.6 877.4 962.6 878.9 962.5V964.2C876 964.6 874.8 963.7 874.8 961.4V957.2H873.2V955.4H874.8V953.5L876.7 952.9V955.4H878.9V957.2H876.7V957.3Z" fill="#AD5349"/>
<path d="M885.4 955.3V957.4C884.1 957.3 882.7 957.9 882.7 959.9V964.4H880.8V955.5H882.7V957C883.2 955.7 884.2 955.3 885.4 955.3Z" fill="#AD5349"/>
<path d="M895.299 955.4V964.3H893.399V963C892.699 963.9 891.699 964.5 890.299 964.5C887.899 964.5 885.899 962.5 885.899 959.8C885.899 957.2 887.899 955.1 890.299 955.1C891.699 955.1 892.699 955.7 893.399 956.6V955.3H895.299V955.4ZM893.399 959.9C893.399 958.3 892.199 957.1 890.599 957.1C888.999 957.1 887.799 958.3 887.799 959.9C887.799 961.5 888.999 962.7 890.599 962.7C892.199 962.7 893.399 961.5 893.399 959.9Z" fill="#AD5349"/>
<path d="M900.3 957.3V961.5C900.3 962.6 901 962.6 902.5 962.5V964.2C899.6 964.6 898.4 963.7 898.4 961.4V957.2H896.8V955.4H898.4V953.5L900.3 952.9V955.4H902.5V957.2H900.3V957.3Z" fill="#AD5349"/>
<path d="M903.899 952.9C903.899 952.2 904.399 951.7 905.099 951.7C905.799 951.7 906.299 952.2 906.299 952.9C906.299 953.6 905.799 954.1 905.099 954.1C904.499 954.1 903.899 953.6 903.899 952.9ZM904.199 955.4H906.099V964.3H904.199V955.4Z" fill="#AD5349"/>
<path d="M907.8 959.9C907.8 957.3 909.9 955.2 912.5 955.2C915.1 955.2 917.2 957.2 917.2 959.9C917.2 962.5 915.1 964.6 912.5 964.6C909.9 964.5 907.8 962.5 907.8 959.9ZM915.3 959.9C915.3 958.3 914.1 957.1 912.5 957.1C910.9 957.1 909.7 958.3 909.7 959.9C909.7 961.5 910.9 962.7 912.5 962.7C914.1 962.7 915.3 961.5 915.3 959.9Z" fill="#AD5349"/>
<path d="M927 958.9V964.3H925.1V959.1C925.1 957.8 924.3 957 923.1 957C921.8 957 920.9 957.7 920.9 959.5V964.2H919V955.3H920.9V956.4C921.5 955.5 922.4 955 923.6 955C925.5 955.2 927 956.6 927 958.9Z" fill="#AD5349"/>
<path d="M935.499 961.8C935.499 963.6 933.999 964.5 931.999 964.5C930.199 964.5 928.999 963.7 928.399 962.4L929.999 961.4C930.299 962.2 930.999 962.7 931.999 962.7C932.799 962.7 933.499 962.4 933.499 961.7C933.499 960.1 928.699 961 928.699 957.8C928.699 956.1 930.099 955.1 931.899 955.1C933.399 955.1 934.599 955.8 935.199 956.9L933.599 957.8C933.299 957.1 932.699 956.8 931.899 956.8C931.199 956.8 930.599 957.1 930.599 957.7C930.699 959.5 935.499 958.5 935.499 961.8Z" fill="#AD5349"/>
<path d="M936.8 963.2C936.8 962.5 937.4 961.9 938.1 961.9C938.8 961.9 939.4 962.5 939.4 963.2C939.4 963.9 938.8 964.5 938.1 964.5C937.4 964.5 936.8 963.9 936.8 963.2Z" fill="#AD5349"/>
<path d="M940.3 959.9C940.3 957.3 942.3 955.2 945 955.2C946.7 955.2 948.2 956.1 948.9 957.5L947.3 958.5C946.9 957.7 946 957.1 945 957.1C943.4 957.1 942.3 958.3 942.3 959.9C942.3 961.5 943.5 962.7 945 962.7C946.1 962.7 946.9 962.2 947.4 961.3L949 962.2C948.3 963.6 946.8 964.5 945 964.5C942.3 964.5 940.3 962.5 940.3 959.9Z" fill="#AD5349"/>
<path d="M949.7 959.9C949.7 957.3 951.8 955.2 954.4 955.2C957 955.2 959.1 957.2 959.1 959.9C959.1 962.5 957 964.6 954.4 964.6C951.8 964.5 949.7 962.5 949.7 959.9ZM957.2 959.9C957.2 958.3 956 957.1 954.4 957.1C952.8 957.1 951.6 958.3 951.6 959.9C951.6 961.5 952.8 962.7 954.4 962.7C956 962.7 957.2 961.5 957.2 959.9Z" fill="#AD5349"/>
<g opacity="0.55">
<path opacity="0.55" d="M747.4 415.7V446.6H685.5" stroke="#474747" stroke-width="6" stroke-miterlimit="10" stroke-linecap="round" stroke-linejoin="round"/>
<path opacity="0.55" d="M809.2 446.6H747.4V415.7" stroke="#474747" stroke-width="6" stroke-miterlimit="10" stroke-linecap="round" stroke-linejoin="round"/>
<path opacity="0.55" d="M778.3 446.6H716.4V477.5H778.3V446.6Z" stroke="#474747" stroke-width="6" stroke-miterlimit="10" stroke-linecap="round" stroke-linejoin="round"/>
<path opacity="0.55" d="M764.9 508.5H747.4V477.6H809.2" stroke="#474747" stroke-width="6" stroke-miterlimit="10" stroke-linecap="round" stroke-linejoin="round"/>
<path opacity="0.55" d="M685.5 477.6H747.4V508.5H697.2" stroke="#474747" stroke-width="6" stroke-miterlimit="10" stroke-linecap="round" stroke-linejoin="round"/>
<path opacity="0.55" d="M664.4 446.6H716.4V477.6H685.5" stroke="#474747" stroke-width="6" stroke-miterlimit="10" stroke-linecap="round" stroke-linejoin="round"/>
<path opacity="0.55" d="M822.901 477.6H778.301V446.6H799.701" stroke="#474747" stroke-width="6" stroke-miterlimit="10" stroke-linecap="round" stroke-linejoin="round"/>
</g>
<g opacity="0.55">
<path opacity="0.55" d="M666 336.5L612.4 282.9C604.6 275.1 604.6 262.4 612.4 254.6L666 201C673.8 193.2 686.5 193.2 694.3 201L747.9 254.6C755.7 262.4 755.7 275.1 747.9 282.9L694.3 336.5C686.5 344.3 673.8 344.3 666 336.5Z" stroke="#333333" stroke-width="10" stroke-miterlimit="10" stroke-linecap="round" stroke-linejoin="round"/>
<path opacity="0.55" d="M680.1 215V205.2" stroke="#333333" stroke-width="6" stroke-miterlimit="10" stroke-linecap="round" stroke-linejoin="round"/>
<path opacity="0.55" d="M680.1 332.3V322.5" stroke="#333333" stroke-width="6" stroke-miterlimit="10" stroke-linecap="round" stroke-linejoin="round"/>
<path opacity="0.55" d="M733.899 268.8H743.699" stroke="#333333" stroke-width="6" stroke-miterlimit="10" stroke-linecap="round" stroke-linejoin="round"/>
<path opacity="0.55" d="M616.6 268.8H626.4" stroke="#333333" stroke-width="6" stroke-miterlimit="10" stroke-linecap="round" stroke-linejoin="round"/>
<path opacity="0.55" d="M680.1 268.8L664.5 254.2" stroke="#333333" stroke-width="8" stroke-miterlimit="10" stroke-linecap="round" stroke-linejoin="round"/>
<path opacity="0.55" d="M703.5 237.9L680.1 270.5" stroke="#333333" stroke-width="5" stroke-miterlimit="10" stroke-linecap="round" stroke-linejoin="round"/>
<path opacity="0.55" d="M681.4 276.4C685.597 276.4 689 272.997 689 268.8C689 264.603 685.597 261.2 681.4 261.2C677.202 261.2 673.8 264.603 673.8 268.8C673.8 272.997 677.202 276.4 681.4 276.4Z" fill="#333333"/>
</g>
<g opacity="0.55">
<path opacity="0.55" d="M342.1 264.1H240V365.7H342.1V264.1Z" stroke="#333333" stroke-width="10" stroke-miterlimit="10" stroke-linecap="round" stroke-linejoin="round"/>
<path opacity="0.55" d="M438 190.3H360.9V291.9H438V190.3Z" stroke="#333333" stroke-width="10" stroke-miterlimit="10" stroke-linecap="round" stroke-linejoin="round"/>
<path opacity="0.55" d="M260 317.5L287.3 290.2" stroke="#333333" stroke-width="4" stroke-miterlimit="10" stroke-linecap="round" stroke-linejoin="round"/>
<path opacity="0.55" d="M284.6 314.9L309.2 290.2" stroke="#333333" stroke-width="4" stroke-miterlimit="10" stroke-linecap="round" stroke-linejoin="round"/>
<path opacity="0.55" d="M265.4 334.1L275.4 324" stroke="#333333" stroke-width="4" stroke-miterlimit="10" stroke-linecap="round" stroke-linejoin="round"/>
<path opacity="0.55" d="M383.8 237.7L402.5 219" stroke="#333333" stroke-width="4" stroke-miterlimit="10" stroke-linecap="round" stroke-linejoin="round"/>
<path opacity="0.55" d="M411.7 233.1L418.9 225.9" stroke="#333333" stroke-width="4" stroke-miterlimit="10" stroke-linecap="round" stroke-linejoin="round"/>
<path opacity="0.55" d="M380.8 264.1L403.7 241.1" stroke="#333333" stroke-width="4" stroke-miterlimit="10" stroke-linecap="round" stroke-linejoin="round"/>
</g>
<path d="M758.3 750.9H777.7" stroke="#43293A" stroke-width="10" stroke-miterlimit="10" stroke-linecap="round" stroke-linejoin="round"/>
<path d="M794.7 750.9H799.5" stroke="#43293A" stroke-width="10" stroke-miterlimit="10" stroke-linecap="round" stroke-linejoin="round"/>
<path d="M241 750.9H740" stroke="#43293A" stroke-width="10" stroke-miterlimit="10" stroke-linecap="round" stroke-linejoin="round"/>
<path d="M195.5 750.9H219" stroke="#43293A" stroke-width="10" stroke-miterlimit="10" stroke-linecap="round" stroke-linejoin="round"/>
<path d="M379.2 385.2C379.2 377.3 385.6 370.9 393.5 370.9C401.4 370.9 407.8 377.3 407.8 385.2H379.2Z" fill="#FFE5CC"/>
<path d="M379.2 385.2C379.2 377.3 385.6 370.9 393.5 370.9C401.4 370.9 407.8 377.3 407.8 385.2H379.2Z" stroke="#43293A" stroke-width="8" stroke-miterlimit="10" stroke-linecap="round" stroke-linejoin="round"/>
<path d="M592.3 385.2C592.3 377.3 598.7 370.9 606.6 370.9C614.5 370.9 620.9 377.3 620.9 385.2H592.3Z" fill="#FFE5CC"/>
<path d="M592.3 385.2C592.3 377.3 598.7 370.9 606.6 370.9C614.5 370.9 620.9 377.3 620.9 385.2H592.3Z" stroke="#43293A" stroke-width="8" stroke-miterlimit="10" stroke-linecap="round" stroke-linejoin="round"/>
<path d="M612.4 397.5C591.5 397.5 574.6 389.5 564.7 374.6L558.3 366C545.1 348.3 523.7 337.8 501.2 337.8H498.8C476.3 337.8 455 348.3 441.7 366L435.3 374.6C423 393.2 399.7 401 371.4 396L373.5 384.2C387.3 386.6 412.4 387.8 425.4 367.9L425.6 367.6L432.1 358.9C447.6 338.2 472.5 325.9 498.8 325.9H501.2C527.5 325.9 552.4 338.2 567.9 358.9L574.7 367.9C587.7 387.8 612.8 386.7 626.6 384.2L628.7 396C623 397 617.6 397.5 612.4 397.5Z" fill="#AD5349"/>
<path d="M612.4 397.5C591.5 397.5 574.6 389.5 564.7 374.6L558.3 366C545.1 348.3 523.7 337.8 501.2 337.8H498.8C476.3 337.8 455 348.3 441.7 366L435.3 374.6C423 393.2 399.7 401 371.4 396L373.5 384.2C387.3 386.6 412.4 387.8 425.4 367.9L425.6 367.6L432.1 358.9C447.6 338.2 472.5 325.9 498.8 325.9H501.2C527.5 325.9 552.4 338.2 567.9 358.9L574.7 367.9C587.7 387.8 612.8 386.7 626.6 384.2L628.7 396C623 397 617.6 397.5 612.4 397.5Z" stroke="#43293A" stroke-width="10" stroke-miterlimit="10" stroke-linecap="round" stroke-linejoin="round"/>
<path d="M302 556.7H283.1L261.7 697.7C261.7 697.7 276.8 690.6 281.9 690.6C298.1 690.6 302.1 697.7 302.1 697.7V556.7H302Z" fill="#FF8345"/>
<path d="M302 556.7H283.1L261.7 697.7C261.7 697.7 276.8 690.6 281.9 690.6C298.1 690.6 302.1 697.7 302.1 697.7V556.7H302Z" stroke="#43293A" stroke-width="10" stroke-miterlimit="10" stroke-linecap="round" stroke-linejoin="round"/>
<path d="M302 556.7H283.1L261.7 697.7C261.7 697.7 276.8 690.6 281.9 690.6C298.1 690.6 302.1 697.7 302.1 697.7V556.7H302Z" stroke="#43293A" stroke-width="10" stroke-miterlimit="10" stroke-linecap="round" stroke-linejoin="round"/>
<path d="M299.3 556.7H283.2L261.8 697.7C261.8 697.7 272.6 692.7 279 691.1L299.3 556.7Z" fill="#AD5349"/>
<path d="M299.3 556.7H283.2L261.8 697.7C261.8 697.7 272.6 692.7 279 691.1L299.3 556.7Z" stroke="#43293A" stroke-width="10" stroke-miterlimit="10" stroke-linecap="round" stroke-linejoin="round"/>
<path d="M698 556.7H716.9L738.3 697.7C738.3 697.7 723.2 690.6 718.1 690.6C701.9 690.6 697.9 697.7 697.9 697.7V556.7H698Z" fill="#FF8345"/>
<path d="M698 556.7H716.9L738.3 697.7C738.3 697.7 723.2 690.6 718.1 690.6C701.9 690.6 697.9 697.7 697.9 697.7V556.7H698Z" stroke="#43293A" stroke-width="10" stroke-miterlimit="10" stroke-linecap="round" stroke-linejoin="round"/>
<path d="M698 556.7H716.9L738.3 697.7C738.3 697.7 723.2 690.6 718.1 690.6C701.9 690.6 697.9 697.7 697.9 697.7V556.7H698Z" stroke="#43293A" stroke-width="10" stroke-miterlimit="10" stroke-linecap="round" stroke-linejoin="round"/>
<path d="M700.7 556.7H716.8L738.2 697.7C738.2 697.7 727.4 692.7 721 691.1L700.7 556.7Z" fill="#AD5349"/>
<path d="M700.7 556.7H716.8L738.2 697.7C738.2 697.7 727.4 692.7 721 691.1L700.7 556.7Z" stroke="#43293A" stroke-width="10" stroke-miterlimit="10" stroke-linecap="round" stroke-linejoin="round"/>
<path d="M675.8 750.3H323.8C310.5 750.3 299.8 739.6 299.8 726.3V476.3H699.8V726.3C699.8 739.6 689.1 750.3 675.8 750.3Z" fill="#AD5349"/>
<path opacity="0.48" d="M556 685H444C435.2 685 428 677.8 428 669V628.3H572V669C572 677.9 564.8 685 556 685Z" fill="#AD5349" stroke="#AD5349" stroke-width="10" stroke-miterlimit="10"/>
<path d="M511.901 678.7C511.901 685.3 506.601 690.6 500.001 690.6C493.401 690.6 488.101 685.3 488.101 678.7H479.101C479.101 690.2 488.501 699.6 500.001 699.6C511.501 699.6 520.901 690.2 520.901 678.7H511.901Z" fill="white"/>
<path d="M511.901 678.7C511.901 685.3 506.601 690.6 500.001 690.6C493.401 690.6 488.101 685.3 488.101 678.7H479.101C479.101 690.2 488.501 699.6 500.001 699.6C511.501 699.6 520.901 690.2 520.901 678.7H511.901Z" stroke="#43293A" stroke-width="4" stroke-miterlimit="10" stroke-linecap="round" stroke-linejoin="round"/>
<path opacity="0.48" d="M676 739H324C310.7 739 300 728.3 300 715V726.8C300 740.1 310.7 750.8 324 750.8H676C689.3 750.8 700 740.1 700 726.8V715C700 728.3 689.3 739 676 739Z" fill="#AD5349"/>
<path d="M700 589.9V480.8H300V589.9C305.4 592.5 311.2 594.4 317.4 595.7C369.5 606.2 426.5 611.1 496.8 611.1H503.2C573.5 611.1 630.5 606.2 682.6 595.7C688.8 594.4 694.6 592.5 700 589.9Z" fill="#933B34"/>
<path d="M556 678H444C435.2 678 428 670.8 428 662V621.3H572V662C572 670.9 564.8 678 556 678Z" fill="#FF8345"/>
<path opacity="0.45" d="M428 643.5C433.5 648.7 440.9 651.9 449 651.9H551C559.1 651.9 566.5 648.7 572 643.5V625.3H428V643.5Z" fill="#FF8345"/>
<path d="M451.7 667H444C440.7 667 438 664.3 438 661V630.3" stroke="#43293A" stroke-width="3" stroke-miterlimit="10" stroke-linecap="round" stroke-linejoin="round" stroke-dasharray="5 5"/>
<path d="M562 650.9V661C562 664.3 559.3 667 556 667H462" stroke="#43293A" stroke-width="3" stroke-miterlimit="10" stroke-linecap="round" stroke-linejoin="round" stroke-dasharray="5 5"/>
<path d="M556 678H444C435.2 678 428 670.8 428 662V621.3H572V662C572 670.9 564.8 678 556 678Z" stroke="#43293A" stroke-width="10" stroke-miterlimit="10" stroke-linecap="round" stroke-linejoin="round"/>
<path d="M551 641.9H449C435.5 641.9 424.5 630.9 424.5 617.4V593H575.5V617.5C575.5 631 564.5 641.9 551 641.9Z" fill="#EDAB7A"/>
<path opacity="0.84" d="M424.5 609C447.1 610.3 471 611 496.8 611H503.2C528.9 611 552.9 610.3 575.5 609V593H424.5V609Z" fill="#EDAB7A"/>
<path d="M551 641.9H449C435.5 641.9 424.5 630.9 424.5 617.4V593H575.5V617.5C575.5 631 564.5 641.9 551 641.9Z" stroke="#43293A" stroke-width="10" stroke-miterlimit="10" stroke-linecap="round" stroke-linejoin="round"/>
<path d="M434.5 616.3V597.5H565.5V616.3C565.5 624.3 559 630.8 551 630.8H449C441 630.8 434.5 624.3 434.5 616.3Z" stroke="#43293A" stroke-width="3" stroke-miterlimit="10" stroke-linecap="round" stroke-linejoin="round" stroke-dasharray="5 5"/>
<path d="M676 750.8H324C310.7 750.8 300 740.1 300 726.8V476.8H700V726.8C700 740.1 689.3 750.8 676 750.8Z" stroke="#43293A" stroke-width="10" stroke-miterlimit="10" stroke-linecap="round" stroke-linejoin="round"/>
<path d="M324 734.8C319.6 734.8 316 731.2 316 726.8V492.8H684V726.8C684 731.2 680.4 734.8 676 734.8H324Z" stroke="#43293A" stroke-width="4" stroke-miterlimit="10" stroke-linecap="round" stroke-linejoin="round" stroke-dasharray="7 7"/>
<path d="M285.501 419.2L272.001 517.7C267.801 548.2 287.401 575.5 319.301 581.9C378.101 593.7 438.901 597.2 500.001 597.1C561.101 597.2 621.901 593.8 680.701 581.9C712.601 575.5 732.201 548.2 728.001 517.7L714.501 419.2C712.801 406.8 700.501 396.7 686.401 396C562.001 390.1 438.101 390.1 313.701 396C299.601 396.7 287.201 406.8 285.501 419.2Z" fill="#FF8345"/>
<path opacity="0.55" d="M728.001 517.7L714.501 419.2C712.801 406.8 700.501 396.7 686.401 396C562.001 390.1 438.101 390.1 313.701 396C299.601 396.7 287.301 406.8 285.601 419.2L272.001 517.7C267.801 548.2 287.401 575.5 319.301 581.9C378.101 593.7 438.901 597.2 500.001 597.1C561.101 597.2 621.901 593.8 680.701 581.9C712.501 575.5 732.101 548.2 728.001 517.7ZM680.601 582.2C629.201 593 572.901 598 503.201 598H496.701C427.001 598 370.701 593 319.301 582.2C292.201 576.5 275.201 552.5 278.801 525.2L292.401 421.5C293.501 413 302.401 405.8 312.201 405.3C374.601 402.2 437.701 400.6 499.901 400.6C562.101 400.6 625.301 402.2 687.601 405.3C697.401 405.8 706.301 413.1 707.401 421.5L721.001 525.2C724.801 552.5 707.701 576.5 680.601 582.2Z" fill="#FF8345"/>
<path opacity="0.45" d="M680.7 572.3C621.9 584.1 561.1 587.6 500 587.5C438.9 587.6 378.1 584.2 319.3 572.3C292 566.8 273.7 546 271.6 521C269.2 550.2 288.5 575.7 319.3 581.9C378.1 593.7 438.9 597.2 500 597.1C561.1 597.2 621.9 593.8 680.7 581.9C711.4 575.7 730.7 550.2 728.4 521C726.3 546 708 566.8 680.7 572.3Z" fill="#FF8345"/>
<path d="M285.501 419.2L272.001 517.7C267.801 548.2 287.401 575.5 319.301 581.9C378.101 593.7 438.901 597.2 500.001 597.1C561.101 597.2 621.901 593.8 680.701 581.9C712.601 575.5 732.201 548.2 728.001 517.7L714.501 419.2C712.801 406.8 700.501 396.7 686.401 396C562.001 390.1 438.101 390.1 313.701 396C299.601 396.7 287.201 406.8 285.501 419.2Z" stroke="#43293A" stroke-width="10" stroke-miterlimit="10" stroke-linecap="round" stroke-linejoin="round"/>
<path d="M496.8 581C428.3 581 372.9 576.3 322.5 566.1C299 561.4 284.8 542.3 287.9 519.8L301.4 421.3C302 417.1 307.5 412.3 314.4 411.9C376 409 438.5 407.5 500 407.5C561.5 407.5 623.9 409 685.6 411.9C692.6 412.2 698 417.1 698.6 421.3L712.1 519.8C715.2 542.4 701 561.4 677.5 566.1C627.1 576.3 571.7 581 503.2 581H496.8Z" stroke="#43293A" stroke-width="4" stroke-linecap="round" stroke-linejoin="round" stroke-dasharray="7.01 7.01"/>
<path d="M385.5 765.2C375.6 765.2 367.5 757.1 367.5 747.2V494.3H403.5V747.2C403.5 757.1 395.5 765.2 385.5 765.2Z" fill="#EDAB7A"/>
<path d="M403.5 494.3H367.5V507.3H403.5V494.3Z" fill="#43293A"/>
<path opacity="0.78" d="M403.5 564.2H367.5V582.2H403.5V564.2Z" fill="#EDAB7A"/>
<path d="M385.5 765.2C375.6 765.2 367.5 757.1 367.5 747.2V494.3H403.5V747.2C403.5 757.1 395.5 765.2 385.5 765.2Z" stroke="#43293A" stroke-width="10" stroke-miterlimit="10" stroke-linecap="round" stroke-linejoin="round"/>
<path d="M355.5 552.2V607.2H367.5V595.2V590.3V564.2H403.5V590.3V595.2V607.2H415.5V552.2H355.5Z" fill="white"/>
<path d="M405.8 552.2H365.4C360 552.2 355.6 556.6 355.6 562V597.4C355.6 602.8 360 607.2 365.4 607.2H367.6V595.2V582.2V564.2H403.6V582.2V595.2V607.2H405.8C411.2 607.2 415.6 602.8 415.6 597.4V562C415.5 556.6 411.2 552.2 405.8 552.2Z" stroke="#43293A" stroke-width="8" stroke-miterlimit="10" stroke-linecap="round" stroke-linejoin="round"/>
<path d="M385.5 538.2C388.538 538.2 391 535.738 391 532.7C391 529.662 388.538 527.2 385.5 527.2C382.462 527.2 380 529.662 380 532.7C380 535.738 382.462 538.2 385.5 538.2Z" fill="white"/>
<path d="M385.5 538.2C388.538 538.2 391 535.738 391 532.7C391 529.662 388.538 527.2 385.5 527.2C382.462 527.2 380 529.662 380 532.7C380 535.738 382.462 538.2 385.5 538.2Z" stroke="#43293A" stroke-width="4" stroke-miterlimit="10" stroke-linecap="round" stroke-linejoin="round"/>
<path d="M385.5 592C388.538 592 391 589.538 391 586.5C391 583.462 388.538 581 385.5 581C382.462 581 380 583.462 380 586.5C380 589.538 382.462 592 385.5 592Z" fill="white"/>
<path d="M385.5 593.5C388.538 593.5 391 591.038 391 588C391 584.962 388.538 582.5 385.5 582.5C382.462 582.5 380 584.962 380 588C380 591.038 382.462 593.5 385.5 593.5Z" stroke="#43293A" stroke-width="4" stroke-miterlimit="10" stroke-linecap="round" stroke-linejoin="round"/>
<path d="M385.5 664.7C388.538 664.7 391 662.238 391 659.2C391 656.162 388.538 653.7 385.5 653.7C382.462 653.7 380 656.162 380 659.2C380 662.238 382.462 664.7 385.5 664.7Z" fill="#AD5349"/>
<path d="M385.5 664.7C388.538 664.7 391 662.238 391 659.2C391 656.162 388.538 653.7 385.5 653.7C382.462 653.7 380 656.162 380 659.2C380 662.238 382.462 664.7 385.5 664.7Z" stroke="#43293A" stroke-width="4" stroke-miterlimit="10" stroke-linecap="round" stroke-linejoin="round"/>
<path d="M385.5 700.3C388.538 700.3 391 697.838 391 694.8C391 691.762 388.538 689.3 385.5 689.3C382.462 689.3 380 691.762 380 694.8C380 697.838 382.462 700.3 385.5 700.3Z" fill="#AD5349"/>
<path d="M385.5 700.3C388.538 700.3 391 697.838 391 694.8C391 691.762 388.538 689.3 385.5 689.3C382.462 689.3 380 691.762 380 694.8C380 697.838 382.462 700.3 385.5 700.3Z" stroke="#43293A" stroke-width="4" stroke-miterlimit="10" stroke-linecap="round" stroke-linejoin="round"/>
<path d="M385.5 592C383.3 592 381.5 590.2 381.5 588V556.1C381.5 553.9 383.3 552.1 385.5 552.1C387.7 552.1 389.5 553.9 389.5 556.1V588C389.5 590.3 387.8 592 385.5 592Z" fill="white"/>
<path d="M385.5 592C383.3 592 381.5 590.2 381.5 588V556.1C381.5 553.9 383.3 552.1 385.5 552.1C387.7 552.1 389.5 553.9 389.5 556.1V588C389.5 590.3 387.8 592 385.5 592Z" stroke="#43293A" stroke-width="4" stroke-miterlimit="10" stroke-linecap="round" stroke-linejoin="round"/>
<path d="M614.5 765.2C604.6 765.2 596.5 757.1 596.5 747.2V494.3H632.5V747.2C632.5 757.1 624.4 765.2 614.5 765.2Z" fill="#EDAB7A"/>
<path opacity="0.78" d="M631.3 564.5H595.3V582.5H631.3V564.5Z" fill="#EDAB7A"/>
<path d="M614.5 765.2C604.6 765.2 596.5 757.1 596.5 747.2V494.3H632.5V747.2C632.5 757.1 624.4 765.2 614.5 765.2Z" stroke="#43293A" stroke-width="10" stroke-miterlimit="10" stroke-linecap="round" stroke-linejoin="round"/>
<path d="M584.5 552.2V607.2H596.5V595.2V590.3V564.2H632.5V590.3V595.2V607.2H644.5V552.2H584.5Z" fill="white"/>
<path d="M634.7 552.2H594.3C588.9 552.2 584.5 556.6 584.5 562V597.4C584.5 602.8 588.9 607.2 594.3 607.2H596.5V595.2V582.2V564.2H632.5V582.2V595.2V607.2H634.7C640.1 607.2 644.5 602.8 644.5 597.4V562C644.5 556.6 640.1 552.2 634.7 552.2Z" stroke="#43293A" stroke-width="8" stroke-miterlimit="10" stroke-linecap="round" stroke-linejoin="round"/>
<path d="M614.5 538.2C617.538 538.2 620 535.738 620 532.7C620 529.662 617.538 527.2 614.5 527.2C611.462 527.2 609 529.662 609 532.7C609 535.738 611.462 538.2 614.5 538.2Z" fill="white"/>
<path d="M614.5 538.2C617.538 538.2 620 535.738 620 532.7C620 529.662 617.538 527.2 614.5 527.2C611.462 527.2 609 529.662 609 532.7C609 535.738 611.462 538.2 614.5 538.2Z" stroke="#43293A" stroke-width="4" stroke-miterlimit="10" stroke-linecap="round" stroke-linejoin="round"/>
<path d="M614.5 592C617.538 592 620 589.538 620 586.5C620 583.462 617.538 581 614.5 581C611.462 581 609 583.462 609 586.5C609 589.538 611.462 592 614.5 592Z" fill="white"/>
<path d="M614.5 593.5C617.538 593.5 620 591.038 620 588C620 584.962 617.538 582.5 614.5 582.5C611.462 582.5 609 584.962 609 588C609 591.038 611.462 593.5 614.5 593.5Z" stroke="#43293A" stroke-width="4" stroke-miterlimit="10" stroke-linecap="round" stroke-linejoin="round"/>
<path d="M614.5 664.7C617.538 664.7 620 662.238 620 659.2C620 656.162 617.538 653.7 614.5 653.7C611.462 653.7 609 656.162 609 659.2C609 662.238 611.462 664.7 614.5 664.7Z" fill="#AD5349"/>
<path d="M614.5 664.7C617.538 664.7 620 662.238 620 659.2C620 656.162 617.538 653.7 614.5 653.7C611.462 653.7 609 656.162 609 659.2C609 662.238 611.462 664.7 614.5 664.7Z" stroke="#43293A" stroke-width="4" stroke-miterlimit="10" stroke-linecap="round" stroke-linejoin="round"/>
<path d="M614.5 700.3C617.538 700.3 620 697.838 620 694.8C620 691.762 617.538 689.3 614.5 689.3C611.462 689.3 609 691.762 609 694.8C609 697.838 611.462 700.3 614.5 700.3Z" fill="#AD5349"/>
<path d="M614.5 700.3C617.538 700.3 620 697.838 620 694.8C620 691.762 617.538 689.3 614.5 689.3C611.462 689.3 609 691.762 609 694.8C609 697.838 611.462 700.3 614.5 700.3Z" stroke="#43293A" stroke-width="4" stroke-miterlimit="10" stroke-linecap="round" stroke-linejoin="round"/>
<path d="M614.5 592C612.3 592 610.5 590.2 610.5 588V556.1C610.5 553.9 612.3 552.1 614.5 552.1C616.7 552.1 618.5 553.9 618.5 556.1V588C618.4 590.3 616.7 592 614.5 592Z" fill="white"/>
<path d="M614.5 592C612.3 592 610.5 590.2 610.5 588V556.1C610.5 553.9 612.3 552.1 614.5 552.1C616.7 552.1 618.5 553.9 618.5 556.1V588C618.4 590.3 616.7 592 614.5 592Z" stroke="#43293A" stroke-width="4" stroke-miterlimit="10" stroke-linecap="round" stroke-linejoin="round"/>
<path d="M632.5 494.3H596.5V507.3H632.5V494.3Z" fill="#43293A"/>
<path opacity="0.84" d="M502.5 622.5C505.648 622.5 508.2 619.948 508.2 616.8C508.2 613.652 505.648 611.1 502.5 611.1C499.352 611.1 496.8 613.652 496.8 616.8C496.8 619.948 499.352 622.5 502.5 622.5Z" fill="#EDAB7A"/>
<path d="M502.5 622.5C505.648 622.5 508.2 619.948 508.2 616.8C508.2 613.652 505.648 611.1 502.5 611.1C499.352 611.1 496.8 613.652 496.8 616.8C496.8 619.948 499.352 622.5 502.5 622.5Z" stroke="#43293A" stroke-width="4" stroke-miterlimit="10" stroke-linecap="round" stroke-linejoin="round"/>
<path d="M527 511.2C527.2 508.6 525.7 506.1 523.3 505C517 502.1 509.9 500.5 502.5 500.5C495.1 500.5 488 502.1 481.7 505C479.3 506.1 477.8 508.6 478 511.2C479.2 526.4 487.1 539.7 498.8 548C501 549.6 503.9 549.6 506.1 548C517.9 539.7 525.8 526.4 527 511.2Z" fill="#F7CFB5"/>
<path opacity="0.75" d="M506.2 537C504 538.6 501.1 538.6 498.9 537C489 530 481.9 519.4 479.2 507.2C478.4 508.3 478 509.7 478.1 511.2C479.3 526.4 487.2 539.7 498.9 548C501.1 549.6 504 549.6 506.2 548C517.9 539.6 525.9 526.4 527 511.2C527.1 509.8 526.7 508.4 525.9 507.2C523.2 519.5 516 530 506.2 537Z" fill="#F7CFB5"/>
<path d="M527 511.2C527.2 508.6 525.7 506.1 523.3 505C517 502.1 509.9 500.5 502.5 500.5C495.1 500.5 488 502.1 481.7 505C479.3 506.1 477.8 508.6 478 511.2C479.2 526.4 487.1 539.7 498.8 548C501 549.6 503.9 549.6 506.1 548C517.9 539.7 525.8 526.4 527 511.2Z" stroke="#43293A" stroke-width="5" stroke-miterlimit="10" stroke-linecap="round" stroke-linejoin="round"/>
<path d="M491.601 509.9C495.101 508.9 498.801 508.5 502.501 508.5C506.201 508.5 509.901 509 513.401 509.9C516.701 510.8 518.701 514.2 517.901 517.5C516.901 521.4 515.401 525.1 513.401 528.6" stroke="#43293A" stroke-width="3" stroke-miterlimit="10" stroke-linecap="round" stroke-linejoin="round"/>
<path d="M165.579 11.2899H10.8203V165.099H165.579V11.2899Z" fill="#FBB500"/>
<path d="M152.609 24.1799H23.79V152.209H152.609V24.1799Z" fill="#261C00"/>
<path fill-rule="evenodd" clip-rule="evenodd" d="M99.8903 83.5395L99.9103 124.019L114 124.079L114.04 89.2795L114 87.7395C119.09 83.2895 122.4 81.8195 129.4 81.9795C129.96 81.9995 130.14 81.9995 130.14 81.2895V71.0596C130.18 69.2496 129.79 68.7696 127.71 68.8296C122.16 69.0196 120.56 69.4596 116.7 72.7296C115.88 73.4296 113.45 76.3296 113.45 76.3296C113.45 72.7996 112.66 70.4096 111.68 69.6896C111.01 69.1996 110.84 69.2396 109.85 69.2396L107.99 69.2296L100.19 69.1196C99.3203 69.2696 99.2703 69.4696 99.2903 70.4496C99.3903 74.8796 99.8803 77.9896 99.8903 83.5395Z" fill="#FBB500"/>
<path fill-rule="evenodd" clip-rule="evenodd" d="M72.9698 123.979C73.1098 123.969 73.2398 123.959 73.3698 123.949C88.1798 122.939 94.6597 113.249 94.5097 104.059C94.3797 96.0695 91.0697 89.5395 82.2698 87.3595C81.8998 87.2695 81.4398 87.1395 81.4598 86.9895C81.4698 86.8295 81.6598 86.5895 82.0098 86.4395C83.1398 85.9695 84.4798 85.1295 85.0098 84.8295C90.2697 81.9095 91.9197 76.9096 92.0697 72.1296C92.2297 67.2496 90.2097 62.1997 86.5598 58.4397C84.1698 55.9697 81.0798 54.0197 77.4298 53.0897C69.6999 51.1297 54.58 52.9297 46.25 53.6297V123.389C55.7999 123.879 63.6499 124.519 72.9698 123.979ZM76.1498 110.629C72.6198 113.149 68.3599 113.389 60.3999 113.059L60.3799 93.1795C63.0799 93.1595 65.5299 93.1595 68.1099 93.1595C74.2498 93.1595 79.2398 95.8295 79.5398 102.709C79.6698 105.839 78.5098 108.959 76.1498 110.629ZM64.9099 82.0595C63.4699 82.0595 62.0399 82.0495 60.3599 81.9995L60.3799 81.6895L60.3999 63.3897C60.3999 63.3897 68.8799 63.3897 69.4599 63.4697C75.3898 64.2096 77.9298 68.0696 78.0198 72.0896C78.0898 75.2596 76.6298 78.5196 74.1098 80.4196C71.3199 82.5095 68.1799 82.0495 64.9099 82.0595Z" fill="#FBB500"/>
</svg>
