<svg width="1000" height="1000" viewBox="0 0 1000 1000" fill="none" xmlns="http://www.w3.org/2000/svg">
<path d="M992.7 1000H7.3C3.3 1000 0 996.7 0 992.7V7.3C0 3.3 3.3 0 7.3 0H992.8C996.8 0 1000.1 3.3 1000.1 7.3V992.8C1000 996.7 996.7 1000 992.7 1000Z" fill="#9057EA"/>
<path d="M63.2 959.2C63.2 961.7 62 962.9 60.6 962.9C59.5 962.9 58.7 962.4 58.5 961.5C58.1 962 57.5 962.3 56.7 962.3C55.2 962.3 54.1 961.1 54.1 959.5C54.1 957.9 55.2 956.7 56.7 956.7C57.4 956.7 57.9 957 58.3 957.4V956.9H59.9V960.8C59.9 961.6 60.2 962.2 60.9 962.2C61.8 962.2 62.6 961.3 62.6 959.2C62.6 956.2 60.3 953.9 57.2 953.9C54.1 953.9 51.6 956.3 51.6 959.6C51.6 962.9 54.1 965.3 57.5 965.3C58.6 965.3 59.6 965.1 60.4 964.9V965.5C59.6 965.8 58.7 965.9 57.5 965.9C53.8 965.9 51 963.3 51 959.7C51 956.3 53.7 953.5 57.2 953.5C61.1 953.3 63.2 956.4 63.2 959.2ZM58.3 959.5C58.3 958.7 57.7 958.1 57 958.1C56.2 958.1 55.7 958.6 55.7 959.5C55.7 960.3 56.3 960.8 57 960.8C57.8 960.9 58.3 960.3 58.3 959.5Z" fill="#EEF2F4"/>
<path d="M69.4004 955.1V957.1C68.2004 957 66.8004 957.6 66.8004 959.5V963.8H64.9004V955.2H66.8004V956.6C67.3004 955.5 68.3004 955.1 69.4004 955.1Z" fill="#EEF2F4"/>
<path d="M74.5998 962.3C75.5998 962.3 76.3998 961.8 76.7998 961.2L78.2998 962.1C77.4998 963.3 76.1998 964 74.4998 964C71.6998 964 69.7998 962.1 69.7998 959.5C69.7998 957 71.5998 955 74.2998 955C76.8998 955 78.5998 957.1 78.5998 959.5C78.5998 959.8 78.5998 960 78.4998 960.3H71.6998C72.0998 961.6 73.1998 962.3 74.5998 962.3ZM76.8998 958.8C76.5998 957.3 75.5998 956.7 74.3998 956.7C72.9998 956.7 72.0998 957.5 71.7998 958.8H76.8998Z" fill="#EEF2F4"/>
<path d="M88.9002 955.2V963.8H87.0002V962.6C86.3002 963.5 85.3002 964.1 84.0002 964.1C81.7002 964.1 79.7002 962.1 79.7002 959.6C79.7002 957 81.6002 955.1 84.0002 955.1C85.3002 955.1 86.3002 955.6 87.0002 956.5V955.3H88.9002V955.2ZM87.1002 959.5C87.1002 957.9 85.9002 956.8 84.4002 956.8C82.9002 956.8 81.7002 957.9 81.7002 959.5C81.7002 961.1 82.9002 962.2 84.4002 962.2C85.9002 962.3 87.1002 961.1 87.1002 959.5Z" fill="#EEF2F4"/>
<path d="M91.0996 951.3H92.9996V963.8H91.0996V951.3Z" fill="#EEF2F4"/>
<path d="M102.9 955.2L99.6002 963.8H97.5002L94.2002 955.2H96.2002L98.6002 961.7L101 955.2H102.9Z" fill="#EEF2F4"/>
<path d="M104.2 955.2H106.1V964.1C106.1 966.5 104.9 967.6 102.6 967.4V965.6C103.7 965.7 104.3 965.3 104.3 964.1V955.2H104.2ZM104 952.8C104 952.1 104.5 951.6 105.2 951.6C105.9 951.6 106.4 952.1 106.4 952.8C106.4 953.4 105.9 954 105.2 954C104.5 954 104 953.4 104 952.8Z" fill="#EEF2F4"/>
<path d="M116 955.2L112.7 964C111.9 966.2 110.5 967.3 108.5 967.2V965.5C109.7 965.6 110.4 965 110.8 963.8L110.9 963.6L107.3 955.2H109.3L111.9 961.4L114.1 955.2H116V955.2Z" fill="#EEF2F4"/>
<path d="M211.9 938.7C211.9 940.8 210.4 942.5 208.3 942.5H205.3V934.9H208.3C210.4 934.9 211.9 936.6 211.9 938.7ZM210.9 938.7C210.9 937.1 209.8 935.8 208.3 935.8H206.3V941.5H208.3C209.8 941.6 210.9 940.3 210.9 938.7Z" fill="#EEF2F4"/>
<path d="M219.499 940.8H216.099L215.499 942.5H214.399L217.199 934.9H218.299L221.099 942.5H219.999L219.499 940.8ZM219.199 939.9L217.799 936.1L216.399 939.9H219.199Z" fill="#EEF2F4"/>
<path d="M226.4 939.4V942.5H225.4V939.4L222.7 934.9H223.8L225.9 938.5L228 934.9H229.1L226.4 939.4Z" fill="#EEF2F4"/>
<path d="M241.5 934.9V935.8L238.7 942.5H237.6L240.4 935.8H236.7V934.8H241.5V934.9Z" fill="#EEF2F4"/>
<path d="M249.6 940.3C249.6 941.8 248.4 942.7 247 942.7C245.9 942.7 244.9 942.2 244.5 941.2L245.4 940.7C245.6 941.4 246.2 941.8 247.1 941.8C248 941.8 248.7 941.3 248.7 940.4C248.7 939.5 248 939 247.1 939H246.8L246.4 938.4L248.2 936H244.8V935.1H249.4V936L247.7 938.2C248.7 938.2 249.6 939 249.6 940.3Z" fill="#EEF2F4"/>
<path d="M58.8998 938.7C58.8998 940.8 57.3998 942.5 55.2998 942.5H52.2998V934.9H55.2998C57.3998 934.9 58.8998 936.6 58.8998 938.7ZM57.8998 938.7C57.8998 937.1 56.7998 935.8 55.2998 935.8H53.2998V941.5H55.2998C56.7998 941.6 57.8998 940.3 57.8998 938.7Z" fill="#EEF2F4"/>
<path d="M66.9994 941.6V942.6H62.3994V935H66.8994V936H63.3994V938.3H66.5994V939.2H63.3994V941.6H66.9994V941.6Z" fill="#EEF2F4"/>
<path d="M70 940.8L70.9 940.3C71.2 941.1 71.8 941.7 72.9 941.7C74 941.7 74.5 941.2 74.5 940.5C74.5 939.7 73.8 939.5 72.7 939.1C71.5 938.7 70.3 938.3 70.3 936.9C70.3 935.5 71.4 934.7 72.7 934.7C74 934.7 74.9 935.4 75.3 936.4L74.5 936.9C74.2 936.2 73.7 935.7 72.8 935.7C72 935.7 71.4 936.1 71.4 936.8C71.4 937.5 71.9 937.8 73 938.1C74.3 938.5 75.6 938.9 75.6 940.4C75.6 941.7 74.5 942.6 73 942.6C71.5 942.7 70.4 941.9 70 940.8Z" fill="#EEF2F4"/>
<path d="M80 934.9V942.5H79V934.9H80Z" fill="#EEF2F4"/>
<path d="M91.2996 939.2C91.2996 941.1 89.8996 942.7 87.5996 942.7C85.1996 942.7 83.5996 940.9 83.5996 938.7C83.5996 936.5 85.2996 934.7 87.5996 934.7C88.9996 934.7 90.2996 935.5 90.8996 936.5L89.9996 937C89.5996 936.2 88.5996 935.6 87.5996 935.6C85.7996 935.6 84.5996 936.9 84.5996 938.6C84.5996 940.3 85.7996 941.6 87.5996 941.6C89.1996 941.6 90.0996 940.7 90.2996 939.6H87.4996V938.7H91.2996V939.2V939.2Z" fill="#EEF2F4"/>
<path d="M100.599 934.9V942.5H99.7994L95.8994 936.8V942.5H94.8994V934.9H95.6994L99.5994 940.6V934.9H100.599Z" fill="#EEF2F4"/>
<path d="M109.1 941.6V942.6H104.5V935H109V936H105.5V938.3H108.7V939.2H105.5V941.6H109.1V941.6Z" fill="#EEF2F4"/>
<path d="M119.2 938.7C119.2 940.8 117.7 942.5 115.6 942.5H112.6V934.9H115.6C117.6 934.9 119.2 936.6 119.2 938.7ZM118.2 938.7C118.2 937.1 117.1 935.8 115.6 935.8H113.6V941.5H115.6C117.1 941.6 118.2 940.3 118.2 938.7Z" fill="#EEF2F4"/>
<path d="M133.2 940.4C133.2 941.6 132.2 942.6 131 942.6H127.7V935H130.7C131.9 935 132.8 935.9 132.8 937.1C132.8 937.8 132.5 938.3 132 938.7C132.7 938.9 133.2 939.5 133.2 940.4ZM128.7 935.8V938.1H130.7C131.3 938.1 131.8 937.6 131.8 936.9C131.8 936.3 131.3 935.7 130.7 935.7H128.7V935.8ZM132.2 940.3C132.2 939.6 131.7 939.1 131 939.1H128.7V941.6H131C131.7 941.6 132.2 941 132.2 940.3Z" fill="#EEF2F4"/>
<path d="M139.4 939.4V942.5H138.4V939.4L135.7 934.9H136.8L138.9 938.5L141 934.9H142.1L139.4 939.4Z" fill="#EEF2F4"/>
<path d="M204.6 951.9H206.7L209.3 961.6L212.1 951.9H214L216.8 961.6L219.4 951.9H221.5L218 964.3H215.6L213 955.3L210.4 964.3H208L204.6 951.9Z" fill="#EEF2F4"/>
<path d="M226.9 955.3V957.4C225.6 957.3 224.2 957.9 224.2 959.9V964.4H222.3V955.5H224.2V957C224.8 955.7 225.8 955.3 226.9 955.3Z" fill="#EEF2F4"/>
<path d="M228.1 952.9C228.1 952.2 228.6 951.7 229.3 951.7C230 951.7 230.5 952.2 230.5 952.9C230.5 953.6 230 954.1 229.3 954.1C228.6 954.1 228.1 953.6 228.1 952.9ZM228.4 955.4H230.3V964.3H228.4V955.4Z" fill="#EEF2F4"/>
<path d="M235.199 957.3V961.5C235.199 962.6 235.899 962.6 237.399 962.5V964.2C234.499 964.6 233.299 963.7 233.299 961.4V957.2H231.699V955.4H233.299V953.5L235.199 952.9V955.4H237.399V957.2H235.199V957.3Z" fill="#EEF2F4"/>
<path d="M238.899 952.9C238.899 952.2 239.399 951.7 240.099 951.7C240.799 951.7 241.299 952.2 241.299 952.9C241.299 953.6 240.799 954.1 240.099 954.1C239.499 954.1 238.899 953.6 238.899 952.9ZM239.199 955.4H241.099V964.3H239.199V955.4Z" fill="#EEF2F4"/>
<path d="M251.3 958.9V964.3H249.4V959.1C249.4 957.8 248.6 957 247.4 957C246.1 957 245.2 957.7 245.2 959.5V964.2H243.3V955.3H245.2V956.4C245.8 955.5 246.7 955 247.9 955C249.9 955.2 251.3 956.6 251.3 958.9Z" fill="#EEF2F4"/>
<path d="M262.3 955.4V963.8C262.3 966.6 260.1 968 257.8 968C255.9 968 254.3 967.3 253.6 965.9L255.2 964.9C255.6 965.7 256.2 966.3 257.8 966.3C259.4 966.3 260.4 965.4 260.4 963.9V962.8C259.7 963.8 258.7 964.3 257.3 964.3C254.8 964.3 252.8 962.3 252.8 959.7C252.8 957.1 254.8 955.1 257.3 955.1C258.7 955.1 259.7 955.7 260.4 956.6V955.3H262.3V955.4ZM260.4 959.8C260.4 958.2 259.2 957 257.6 957C256 957 254.8 958.2 254.8 959.8C254.8 961.4 256 962.6 257.6 962.6C259.2 962.6 260.4 961.4 260.4 959.8Z" fill="#EEF2F4"/>
<path d="M277.199 953.9H273.699V964.3H271.699V953.9H268.199V952H277.199V953.9Z" fill="#EEF2F4"/>
<path d="M276.5 959.9C276.5 957.3 278.6 955.2 281.2 955.2C283.8 955.2 285.9 957.2 285.9 959.9C285.9 962.5 283.8 964.6 281.2 964.6C278.5 964.5 276.5 962.5 276.5 959.9ZM283.9 959.9C283.9 958.3 282.7 957.1 281.1 957.1C279.5 957.1 278.3 958.3 278.3 959.9C278.3 961.5 279.5 962.7 281.1 962.7C282.7 962.7 283.9 961.5 283.9 959.9Z" fill="#EEF2F4"/>
<path d="M287 959.9C287 957.3 289.1 955.2 291.7 955.2C294.3 955.2 296.4 957.2 296.4 959.9C296.4 962.5 294.3 964.6 291.7 964.6C289.1 964.5 287 962.5 287 959.9ZM294.5 959.9C294.5 958.3 293.3 957.1 291.7 957.1C290.1 957.1 288.9 958.3 288.9 959.9C288.9 961.5 290.1 962.7 291.7 962.7C293.3 962.7 294.5 961.5 294.5 959.9Z" fill="#EEF2F4"/>
<path d="M298.1 951.4H300V964.3H298.1V951.4Z" fill="#EEF2F4"/>
<path d="M846.1 938.7C846.1 940.8 844.6 942.5 842.5 942.5H839.5V934.9H842.5C844.6 934.9 846.1 936.6 846.1 938.7ZM845.2 938.7C845.2 937.1 844.1 935.8 842.6 935.8H840.6V941.5H842.6C844.1 941.6 845.2 940.3 845.2 938.7Z" fill="#EEF2F4"/>
<path d="M849.3 938.7C849.3 936.5 851 934.7 853.2 934.7C855.4 934.7 857.2 936.5 857.2 938.7C857.2 940.9 855.5 942.7 853.2 942.7C851 942.7 849.3 940.9 849.3 938.7ZM856.1 938.7C856.1 937 854.8 935.7 853.2 935.7C851.5 935.7 850.3 937 850.3 938.7C850.3 940.4 851.6 941.7 853.2 941.7C854.9 941.7 856.1 940.4 856.1 938.7Z" fill="#EEF2F4"/>
<path d="M859.8 934.9H860.9L862.6 941.2L864.5 934.9H865.5L867.4 941.2L869.1 934.9H870.2L868 942.5H866.8L865 936.4L863.2 942.5H862L859.8 934.9Z" fill="#EEF2F4"/>
<path d="M879.3 934.9V942.5H878.5L874.6 936.8V942.5H873.6V934.9H874.4L878.3 940.6V934.9H879.3Z" fill="#EEF2F4"/>
<path d="M887.5 941.6V942.6H883.2V935H884.2V941.7H887.5V941.6Z" fill="#EEF2F4"/>
<path d="M889.9 938.7C889.9 936.5 891.6 934.7 893.8 934.7C896 934.7 897.8 936.5 897.8 938.7C897.8 940.9 896.1 942.7 893.8 942.7C891.6 942.7 889.9 940.9 889.9 938.7ZM896.8 938.7C896.8 937 895.5 935.7 893.9 935.7C892.2 935.7 891 937 891 938.7C891 940.4 892.3 941.7 893.9 941.7C895.5 941.7 896.8 940.4 896.8 938.7Z" fill="#EEF2F4"/>
<path d="M905.4 940.8H902L901.4 942.5H900.3L903.1 934.9H904.2L907 942.5H906L905.4 940.8ZM905.1 939.9L903.7 936.1L902.3 939.9H905.1Z" fill="#EEF2F4"/>
<path d="M916.9 938.7C916.9 940.8 915.4 942.5 913.3 942.5H910.3V934.9H913.3C915.4 934.9 916.9 936.6 916.9 938.7ZM915.9 938.7C915.9 937.1 914.8 935.8 913.3 935.8H911.3V941.5H913.3C914.9 941.6 915.9 940.3 915.9 938.7Z" fill="#EEF2F4"/>
<path d="M926.5 935.8V938.3H929.7V939.3H926.5V942.5H925.5V934.9H929.9V935.9H926.5V935.8Z" fill="#EEF2F4"/>
<path d="M936.2 939.6H934.4V942.5H933.4V934.9H936.4C937.7 934.9 938.8 936 938.8 937.3C938.8 938.3 938.1 939.2 937.2 939.5L939 942.6H937.9L936.2 939.6ZM934.4 938.7H936.4C937.2 938.7 937.8 938.1 937.8 937.3C937.8 936.5 937.2 935.9 936.4 935.9H934.4V938.7Z" fill="#EEF2F4"/>
<path d="M941.9 938.7C941.9 936.5 943.6 934.7 945.8 934.7C948 934.7 949.8 936.5 949.8 938.7C949.8 940.9 948.1 942.7 945.8 942.7C943.6 942.7 941.9 940.9 941.9 938.7ZM948.8 938.7C948.8 937 947.5 935.7 945.9 935.7C944.2 935.7 943 937 943 938.7C943 940.4 944.3 941.7 945.9 941.7C947.5 941.7 948.8 940.4 948.8 938.7Z" fill="#EEF2F4"/>
<path d="M960.4 942.5H959.4V936.5L956.9 940.7H956.8L954.3 936.6V942.5H953.3V934.9H954.4L956.8 938.9L959.2 934.9H960.3V942.5H960.4Z" fill="#EEF2F4"/>
<path d="M839.3 952.9C839.3 952.2 839.8 951.7 840.5 951.7C841.2 951.7 841.7 952.2 841.7 952.9C841.7 953.6 841.2 954.1 840.5 954.1C839.9 954.1 839.3 953.6 839.3 952.9ZM839.6 955.4H841.5V964.3H839.6V955.4Z" fill="#EEF2F4"/>
<path d="M843.7 951.4H845.6V964.3H843.7V951.4Z" fill="#EEF2F4"/>
<path d="M847.8 951.4H849.7V964.3H847.8V951.4Z" fill="#EEF2F4"/>
<path d="M852 951.4H853.9V964.3H852V951.4Z" fill="#EEF2F4"/>
<path d="M864 955.4V964.3H862.1V963.2C861.5 964.1 860.6 964.6 859.4 964.6C857.4 964.6 856 963.3 856 961V955.6H857.9V960.8C857.9 962.1 858.7 962.9 859.9 962.9C861.2 962.9 862.1 962.2 862.1 960.4V955.7H864V955.4Z" fill="#EEF2F4"/>
<path d="M872.6 961.8C872.6 963.6 871.1 964.5 869.1 964.5C867.3 964.5 866.1 963.7 865.5 962.4L867.1 961.4C867.4 962.2 868.1 962.7 869.1 962.7C869.9 962.7 870.6 962.4 870.6 961.7C870.6 960.1 865.8 961 865.8 957.8C865.8 956.1 867.2 955.1 869 955.1C870.5 955.1 871.7 955.8 872.3 956.9L870.7 957.8C870.4 957.1 869.8 956.8 869 956.8C868.3 956.8 867.7 957.1 867.7 957.7C867.9 959.5 872.6 958.5 872.6 961.8Z" fill="#EEF2F4"/>
<path d="M876.7 957.3V961.5C876.7 962.6 877.4 962.6 878.9 962.5V964.2C876 964.6 874.8 963.7 874.8 961.4V957.2H873.2V955.4H874.8V953.5L876.7 952.9V955.4H878.9V957.2H876.7V957.3Z" fill="#EEF2F4"/>
<path d="M885.4 955.3V957.4C884.1 957.3 882.7 957.9 882.7 959.9V964.4H880.8V955.5H882.7V957C883.2 955.7 884.2 955.3 885.4 955.3Z" fill="#EEF2F4"/>
<path d="M895.299 955.4V964.3H893.399V963C892.699 963.9 891.699 964.5 890.299 964.5C887.899 964.5 885.899 962.5 885.899 959.8C885.899 957.2 887.899 955.1 890.299 955.1C891.699 955.1 892.699 955.7 893.399 956.6V955.3H895.299V955.4ZM893.399 959.9C893.399 958.3 892.199 957.1 890.599 957.1C888.999 957.1 887.799 958.3 887.799 959.9C887.799 961.5 888.999 962.7 890.599 962.7C892.199 962.7 893.399 961.5 893.399 959.9Z" fill="#EEF2F4"/>
<path d="M900.3 957.3V961.5C900.3 962.6 901 962.6 902.5 962.5V964.2C899.6 964.6 898.4 963.7 898.4 961.4V957.2H896.8V955.4H898.4V953.5L900.3 952.9V955.4H902.5V957.2H900.3V957.3Z" fill="#EEF2F4"/>
<path d="M903.899 952.9C903.899 952.2 904.399 951.7 905.099 951.7C905.799 951.7 906.299 952.2 906.299 952.9C906.299 953.6 905.799 954.1 905.099 954.1C904.499 954.1 903.899 953.6 903.899 952.9ZM904.199 955.4H906.099V964.3H904.199V955.4Z" fill="#EEF2F4"/>
<path d="M907.8 959.9C907.8 957.3 909.9 955.2 912.5 955.2C915.1 955.2 917.2 957.2 917.2 959.9C917.2 962.5 915.1 964.6 912.5 964.6C909.9 964.5 907.8 962.5 907.8 959.9ZM915.3 959.9C915.3 958.3 914.1 957.1 912.5 957.1C910.9 957.1 909.7 958.3 909.7 959.9C909.7 961.5 910.9 962.7 912.5 962.7C914.1 962.7 915.3 961.5 915.3 959.9Z" fill="#EEF2F4"/>
<path d="M927 958.9V964.3H925.1V959.1C925.1 957.8 924.3 957 923.1 957C921.8 957 920.9 957.7 920.9 959.5V964.2H919V955.3H920.9V956.4C921.5 955.5 922.4 955 923.6 955C925.5 955.2 927 956.6 927 958.9Z" fill="#EEF2F4"/>
<path d="M935.499 961.8C935.499 963.6 933.999 964.5 931.999 964.5C930.199 964.5 928.999 963.7 928.399 962.4L929.999 961.4C930.299 962.2 930.999 962.7 931.999 962.7C932.799 962.7 933.499 962.4 933.499 961.7C933.499 960.1 928.699 961 928.699 957.8C928.699 956.1 930.099 955.1 931.899 955.1C933.399 955.1 934.599 955.8 935.199 956.9L933.599 957.8C933.299 957.1 932.699 956.8 931.899 956.8C931.199 956.8 930.599 957.1 930.599 957.7C930.699 959.5 935.499 958.5 935.499 961.8Z" fill="#EEF2F4"/>
<path d="M936.8 963.2C936.8 962.5 937.4 961.9 938.1 961.9C938.8 961.9 939.4 962.5 939.4 963.2C939.4 963.9 938.8 964.5 938.1 964.5C937.4 964.5 936.8 963.9 936.8 963.2Z" fill="#EEF2F4"/>
<path d="M940.3 959.9C940.3 957.3 942.3 955.2 945 955.2C946.7 955.2 948.2 956.1 948.9 957.5L947.3 958.5C946.9 957.7 946 957.1 945 957.1C943.4 957.1 942.3 958.3 942.3 959.9C942.3 961.5 943.5 962.7 945 962.7C946.1 962.7 946.9 962.2 947.4 961.3L949 962.2C948.3 963.6 946.8 964.5 945 964.5C942.3 964.5 940.3 962.5 940.3 959.9Z" fill="#EEF2F4"/>
<path d="M949.7 959.9C949.7 957.3 951.8 955.2 954.4 955.2C957 955.2 959.1 957.2 959.1 959.9C959.1 962.5 957 964.6 954.4 964.6C951.8 964.5 949.7 962.5 949.7 959.9ZM957.2 959.9C957.2 958.3 956 957.1 954.4 957.1C952.8 957.1 951.6 958.3 951.6 959.9C951.6 961.5 952.8 962.7 954.4 962.7C956 962.7 957.2 961.5 957.2 959.9Z" fill="#EEF2F4"/>
<path d="M290.4 780.9H258.9C254.9 780.9 251.6 777.6 251.6 773.6V395.9H297.7V773.6C297.7 777.6 294.5 780.9 290.4 780.9Z" fill="#543889" stroke="#543889" stroke-width="8" stroke-miterlimit="10" stroke-linecap="round" stroke-linejoin="round"/>
<path d="M289.299 330.9H260.099L258.399 395.9H290.899L289.299 330.9Z" fill="#543889" stroke="#543889" stroke-width="8" stroke-miterlimit="10" stroke-linecap="round" stroke-linejoin="round"/>
<path d="M280.7 323.9H268.7L260.1 330.9H289.3L280.7 323.9Z" fill="#543889" stroke="#543889" stroke-width="8" stroke-miterlimit="10" stroke-linecap="round" stroke-linejoin="round"/>
<path d="M281.599 297.9H267.699V325.1H281.599V297.9Z" fill="#543889" stroke="#543889" stroke-width="8" stroke-miterlimit="10" stroke-linecap="round" stroke-linejoin="round"/>
<path d="M274.699 279.4V297" stroke="#543889" stroke-width="8" stroke-miterlimit="10" stroke-linecap="round" stroke-linejoin="round"/>
<path d="M278.199 772.9H246.699C242.699 772.9 239.399 769.6 239.399 765.6V387.9H285.499V765.6C285.399 769.6 282.199 772.9 278.199 772.9Z" fill="#FFA124"/>
<path opacity="0.34" d="M278.199 772.9C274.199 772.9 270.899 769.6 270.899 765.6V387.9H285.399V765.6C285.399 769.6 282.199 772.9 278.199 772.9Z" fill="#3F4545"/>
<path opacity="0.78" d="M247.4 772.9H246.6C242.6 772.9 239.3 769.6 239.3 765.6V387.9H254.6V765.6C254.7 769.6 251.4 772.9 247.4 772.9Z" fill="#3F4545"/>
<path d="M278.199 772.9H246.699C242.699 772.9 239.399 769.6 239.399 765.6V387.9H285.499V765.6C285.399 769.6 282.199 772.9 278.199 772.9Z" stroke="#1F2120" stroke-width="8" stroke-miterlimit="10" stroke-linecap="round" stroke-linejoin="round"/>
<path d="M277 322.9H247.8L246.1 387.9H278.7L277 322.9Z" fill="#B5B4B4"/>
<path opacity="0.39" d="M276.999 322.9H266.899L268.599 387.9H278.699L276.999 322.9Z" fill="#B5B4B4"/>
<path opacity="0.5" d="M247.8 322.9L246.1 387.9H256.9L258.5 322.9H247.8Z" fill="white"/>
<path d="M277 322.9H247.8L246.1 387.9H278.7L277 322.9Z" stroke="#1F2120" stroke-width="8" stroke-miterlimit="10" stroke-linecap="round" stroke-linejoin="round"/>
<path d="M285.4 729H239.3V749H285.4V729Z" fill="#FF1A1A"/>
<path opacity="0.63" d="M285.5 730H276.1V750H285.5V730Z" fill="#E02F2F"/>
<path d="M256.8 729.2H239.3V749.2H256.8V729.2Z" fill="#EA4949"/>
<path d="M285.4 729H239.3V749H285.4V729Z" stroke="#1F2120" stroke-width="8" stroke-miterlimit="10" stroke-linecap="round" stroke-linejoin="round"/>
<path d="M285.4 426.9H239.3V446.9H285.4V426.9Z" fill="#E02F2F"/>
<path opacity="0.63" d="M285.5 426.9H276.1V446.9H285.5V426.9Z" fill="#E02F2F"/>
<path d="M256.8 426.9H239.3V446.9H256.8V426.9Z" fill="#EA4949"/>
<path d="M285.4 426.9H239.3V446.9H285.4V426.9Z" stroke="#1F2120" stroke-width="8" stroke-miterlimit="10" stroke-linecap="round" stroke-linejoin="round"/>
<path d="M268.4 315.9H256.4L247.8 322.9H277L268.4 315.9Z" stroke="#1F2120" stroke-width="8" stroke-miterlimit="10" stroke-linecap="round" stroke-linejoin="round"/>
<path d="M269.299 289.9H255.399V317.1H269.299V289.9Z" fill="#B5B4B4"/>
<path d="M269.299 289.9H255.399V317.1H269.299V289.9Z" stroke="#1F2120" stroke-width="8" stroke-miterlimit="10" stroke-linecap="round" stroke-linejoin="round"/>
<path d="M262.399 271.4V289" stroke="#1F2120" stroke-width="10" stroke-miterlimit="10" stroke-linecap="round" stroke-linejoin="round"/>
<path d="M447.999 764.7H454.499C470.299 764.7 483.199 751.9 483.199 736V600L473.499 626.3L483.199 640.3" stroke="#543889" stroke-width="8" stroke-miterlimit="10" stroke-linecap="round" stroke-linejoin="round"/>
<path d="M457.199 669.4C441.999 669.4 426.699 669.4 411.499 669.4C401.599 590.8 410.099 445.1 418.999 386.9C429.199 386.9 439.499 386.9 449.699 386.9C458.599 445.1 467.099 590.8 457.199 669.4Z" fill="#543889" stroke="#543889" stroke-width="8" stroke-miterlimit="10" stroke-linecap="round" stroke-linejoin="round"/>
<path d="M465.399 712.6C458.899 766 443.499 798.5 434.399 798.5C425.199 798.5 409.799 766 403.399 712.6C398.299 665.8 399.799 618.9 401.699 572.4C423.499 572.4 445.299 572.4 467.199 572.4C468.999 618.9 470.399 665.8 465.399 712.6Z" fill="#543889" stroke="#543889" stroke-width="8" stroke-miterlimit="10" stroke-linecap="round" stroke-linejoin="round"/>
<path d="M457.4 331.4C443.1 311.1 434.3 271.3 434.3 271.3C434.3 271.3 425.6 311.1 411.2 331.4C410.5 332.4 410.5 333.6 411.2 334.6C421.4 349.8 424.6 369.9 420.4 386.8H434.3H448.2C443.9 369.9 447.1 349.8 457.4 334.6C458.1 333.7 458.1 332.4 457.4 331.4Z" fill="#543889" stroke="#543889" stroke-width="8" stroke-miterlimit="10" stroke-linecap="round" stroke-linejoin="round"/>
<path d="M435 757.7H441.5C457.3 757.7 470.2 744.9 470.2 729V593L460.5 619.3L470.2 633.3" stroke="#1F2120" stroke-width="8" stroke-miterlimit="10" stroke-linecap="round" stroke-linejoin="round"/>
<path d="M444.2 662.4C429 662.4 413.7 662.4 398.5 662.4C388.6 583.8 397.1 438.1 406 379.9C416.2 379.9 426.5 379.9 436.7 379.9C445.6 438.1 454.1 583.8 444.2 662.4Z" fill="#FF1A1A"/>
<path opacity="0.2" d="M436.7 379.9C434.6 379.9 432.4 379.9 430.3 379.9C435.1 441.5 445.4 583.8 435.5 662.4C438.4 662.4 441.3 662.4 444.2 662.4C454.1 583.8 445.6 438.1 436.7 379.9Z" fill="#FF1A1A"/>
<path opacity="0.68" d="M425.799 657.9C416.199 581.7 417.099 454.2 421.299 379.8C414.999 379.8 412.299 379.8 405.899 379.8C396.999 438 388.499 583.7 398.399 662.3C413.599 662.3 428.899 662.3 444.099 662.3C444.299 660.8 444.499 659.3 444.599 657.8C438.399 657.9 432.099 657.9 425.799 657.9Z" fill="#3F4545"/>
<path d="M444.2 662.4C429 662.4 413.7 662.4 398.5 662.4C388.6 583.8 397.1 438.1 406 379.9C416.2 379.9 426.5 379.9 436.7 379.9C445.6 438.1 454.1 583.8 444.2 662.4Z" stroke="#1F2120" stroke-width="8" stroke-miterlimit="10" stroke-linecap="round" stroke-linejoin="round"/>
<path d="M452.399 705.6C445.899 759 430.499 791.5 421.399 791.5C412.199 791.5 396.799 759 390.399 705.6C385.299 658.8 386.799 611.9 388.699 565.4C410.499 565.4 432.299 565.4 454.199 565.4C455.999 611.9 457.399 658.8 452.399 705.6Z" fill="#FF1A1A"/>
<path opacity="0.2" d="M454.1 565.3C450.4 565.3 446.7 565.3 443 565.3C444.9 611.8 446.4 658.7 441.3 705.5C436 749.1 424.8 778.8 415.8 788.2C417.8 790.3 419.7 791.4 421.4 791.4C430.6 791.4 446 758.9 452.4 705.5C457.4 658.8 456 611.9 454.1 565.3Z" fill="#FF1A1A"/>
<path opacity="0.68" d="M390.3 705.6C392.6 725 396.2 741.6 400.2 755C419.6 750.9 426.6 685.8 426.6 598.8C426.6 589.5 426.2 574.4 425.9 565.4C410.6 565.4 403.9 565.4 388.6 565.4C386.6 611.9 385.2 658.8 390.3 705.6Z" fill="#3F4545"/>
<path d="M452.399 705.6C445.899 759 430.499 791.5 421.399 791.5C412.199 791.5 396.799 759 390.399 705.6C385.299 658.8 386.799 611.9 388.699 565.4C410.499 565.4 432.299 565.4 454.199 565.4C455.999 611.9 457.399 658.8 452.399 705.6Z" stroke="#1F2120" stroke-width="8" stroke-miterlimit="10" stroke-linecap="round" stroke-linejoin="round"/>
<path d="M444.4 324.4C430.1 304.1 421.3 264.3 421.3 264.3C421.3 264.3 412.6 304.1 398.2 324.4C397.5 325.4 397.5 326.6 398.2 327.6C408.4 342.8 411.6 362.9 407.4 379.8H421.3H435.2C430.9 362.9 434.1 342.8 444.4 327.6C445.1 326.7 445.1 325.4 444.4 324.4Z" fill="#EAEAEA"/>
<path opacity="0.37" d="M444.4 324.4C430.1 304.1 421.3 264.3 421.3 264.3C421.3 264.3 419.3 273.6 415.5 285.5C419.5 298.2 425.4 313.9 432.8 324.4C433.5 325.4 433.5 326.6 432.8 327.6C422.6 342.8 419.4 362.9 423.6 379.8H435.1C430.8 362.9 434 342.8 444.3 327.6C445.1 326.7 445.1 325.4 444.4 324.4Z" fill="#B5B4B4"/>
<path d="M444.4 324.4C430.1 304.1 421.3 264.3 421.3 264.3C421.3 264.3 412.6 304.1 398.2 324.4C397.5 325.4 397.5 326.6 398.2 327.6C408.4 342.8 411.6 362.9 407.4 379.8H421.3H435.2C430.9 362.9 434.1 342.8 444.4 327.6C445.1 326.7 445.1 325.4 444.4 324.4Z" stroke="#1F2120" stroke-width="8" stroke-miterlimit="10" stroke-linecap="round" stroke-linejoin="round"/>
<path d="M421.3 264.4V322.1" stroke="#1F2120" stroke-width="8" stroke-miterlimit="10" stroke-linecap="round" stroke-linejoin="round"/>
<path d="M421.3 332.1C425.608 332.1 429.1 328.608 429.1 324.3C429.1 319.992 425.608 316.5 421.3 316.5C416.992 316.5 413.5 319.992 413.5 324.3C413.5 328.608 416.992 332.1 421.3 332.1Z" fill="#1F2120"/>
<path d="M785.5 374H731.5V722.9H785.5V374Z" fill="#543889" stroke="#543889" stroke-width="8" stroke-miterlimit="10" stroke-linecap="round" stroke-linejoin="round"/>
<path d="M785.5 374H731.5L758.5 293.4L785.5 374Z" fill="#543889" stroke="#543889" stroke-width="8" stroke-miterlimit="10" stroke-linecap="round" stroke-linejoin="round"/>
<path d="M731.5 722.9H785.5V740.8C785.5 752 776.4 761.1 765.2 761.1H751.8C740.6 761.1 731.5 752 731.5 740.8V722.9V722.9Z" fill="#543889" stroke="#543889" stroke-width="8" stroke-miterlimit="10" stroke-linecap="round" stroke-linejoin="round"/>
<path d="M772.5 365H718.5V713.9H772.5V365Z" fill="#47A942"/>
<path d="M772.5 365H718.5V713.9H772.5V365Z" stroke="#1F2120" stroke-width="8" stroke-miterlimit="10" stroke-linecap="round" stroke-linejoin="round"/>
<path d="M755.5 365H735.5V713.9H755.5V365Z" stroke="#1F2120" stroke-width="8" stroke-miterlimit="10" stroke-linecap="round" stroke-linejoin="round"/>
<path d="M772.5 365H718.5L745.5 284.4L772.5 365Z" fill="#C4C4C4"/>
<path d="M772.5 365H718.5L745.5 284.4L772.5 365Z" stroke="#1F2120" stroke-width="8" stroke-miterlimit="10" stroke-linecap="round" stroke-linejoin="round"/>
<path d="M718.5 713.9H772.5V731.8C772.5 743 763.4 752.1 752.2 752.1H738.8C727.6 752.1 718.5 743 718.5 731.8V713.9V713.9Z" fill="#C4C4C4"/>
<path d="M718.5 713.9H772.5V731.8C772.5 743 763.4 752.1 752.2 752.1H738.8C727.6 752.1 718.5 743 718.5 731.8V713.9V713.9Z" stroke="#1F2120" stroke-width="8" stroke-miterlimit="10" stroke-linecap="round" stroke-linejoin="round"/>
<path d="M772.5 678.4H718.5V713.8H772.5V678.4Z" fill="#CCCC00"/>
<path d="M772.5 678.4H718.5V713.8H772.5V678.4Z" stroke="#1F2120" stroke-width="8" stroke-miterlimit="10" stroke-linecap="round" stroke-linejoin="round"/>
<path d="M745.5 284.4L734.6 316.9H756.4L745.5 284.4Z" fill="#1F2120"/>
<path d="M624.6 776.3H583.6C579.2 776.3 575.6 772.7 575.6 768.3L574.1 409.3H634.1L632.6 768.3C632.6 772.8 629 776.3 624.6 776.3Z" fill="#543889" stroke="#543889" stroke-width="8" stroke-miterlimit="10" stroke-linecap="round" stroke-linejoin="round"/>
<path d="M629.1 405.4H579.1L581.4 387.2H626.7L629.1 405.4Z" fill="#543889" stroke="#543889" stroke-width="8" stroke-miterlimit="10" stroke-linecap="round" stroke-linejoin="round"/>
<path d="M623.5 387.2H584.6L587.2 339.4H621L623.5 387.2Z" fill="#543889" stroke="#543889" stroke-width="8" stroke-miterlimit="10" stroke-linecap="round" stroke-linejoin="round"/>
<path d="M615.3 339.4H592.5V311.1L615.3 291.1V339.4Z" fill="#543889" stroke="#543889" stroke-width="8" stroke-miterlimit="10" stroke-linecap="round" stroke-linejoin="round"/>
<path d="M611.6 764.3H570.6C566.2 764.3 562.6 760.7 562.6 756.3L561.1 397.3H621.1L619.6 756.3C619.6 760.8 616 764.3 611.6 764.3Z" fill="#00B3C6"/>
<path d="M582 756.4L580.5 397.4H561L562.5 756.4C562.5 760.8 566.1 764.4 570.5 764.4H590C585.6 764.3 582 760.8 582 756.4Z" fill="#00B3C6"/>
<path opacity="0.53" d="M600.1 756.4L601.6 397.4H621.1L619.6 756.4C619.6 760.8 616 764.4 611.6 764.4H592.1C596.5 764.3 600.1 760.8 600.1 756.4Z" fill="#00B3C6"/>
<path d="M611.6 764.3H570.6C566.2 764.3 562.6 760.7 562.6 756.3L561.1 397.3H621.1L619.6 756.3C619.6 760.8 616 764.3 611.6 764.3Z" stroke="#1F2120" stroke-width="8" stroke-miterlimit="10" stroke-linecap="round" stroke-linejoin="round"/>
<path d="M616.1 397.4H566.1L568.4 379.2H613.7L616.1 397.4Z" fill="#414141"/>
<path d="M616.1 397.4H566.1L568.4 379.2H613.7L616.1 397.4Z" stroke="#1F2120" stroke-width="8" stroke-miterlimit="10" stroke-linecap="round" stroke-linejoin="round"/>
<path d="M610.5 379.2H571.6L574.2 331.4H608L610.5 379.2Z" fill="#00B3C6"/>
<path d="M574.2 331.4L571.6 379.2H585.2L585.5 331.4H574.2Z" fill="#00B3C6"/>
<path opacity="0.53" d="M609 331.4L611.5 379.2H597.9L596.5 331.4H609Z" fill="#00B3C6"/>
<path d="M610.5 379.2H571.6L574.2 331.4H608L610.5 379.2Z" stroke="#1F2120" stroke-width="8" stroke-miterlimit="10" stroke-linecap="round" stroke-linejoin="round"/>
<path d="M610.5 379.2H571.6L574.2 331.4H608L610.5 379.2Z" stroke="#1F2120" stroke-width="8" stroke-miterlimit="10" stroke-linecap="round" stroke-linejoin="round"/>
<path d="M610.5 379.2H571.6L574.2 331.4H608L610.5 379.2Z" stroke="#1F2120" stroke-width="8" stroke-miterlimit="10" stroke-linecap="round" stroke-linejoin="round"/>
<path d="M610.5 379.2H571.6L574.2 331.4H608L610.5 379.2Z" stroke="#1F2120" stroke-width="8" stroke-miterlimit="10" stroke-linecap="round" stroke-linejoin="round"/>
<path d="M602.3 331.4H579.5V303.1L602.3 283.1V331.4Z" fill="#FFC41D"/>
<path d="M602.3 331.4H579.5V303.1L602.3 283.1V331.4Z" stroke="#1F2120" stroke-width="8" stroke-miterlimit="10" stroke-linecap="round" stroke-linejoin="round"/>
<path d="M562.4 731.3L562.5 756.3C562.5 760.7 566.1 764.3 570.5 764.3H611.5C615.9 764.3 619.5 760.7 619.5 756.3L619.6 731.3H562.4Z" fill="#414141"/>
<path opacity="0.4" d="M600.3 731.3L600.2 756.3C600.2 760.7 596.6 764.3 592.2 764.3H611.5C615.9 764.3 619.5 760.7 619.5 756.3L619.6 731.3H600.3Z" fill="#414141"/>
<path d="M582.5 756.4L582.4 731.4H562.4L562.5 756.4C562.5 760.8 566.1 764.4 570.5 764.4H590.5C586.1 764.3 582.6 760.8 582.5 756.4Z" fill="#414141"/>
<path d="M562.4 731.3L562.5 756.3C562.5 760.7 566.1 764.3 570.5 764.3H611.5C615.9 764.3 619.5 760.7 619.5 756.3L619.6 731.3H562.4Z" stroke="#1F2120" stroke-width="8" stroke-miterlimit="10" stroke-linecap="round" stroke-linejoin="round"/>
<rect width="180" height="180" fill="#333333"/>
<path d="M72.001 144C81.9422 144 90.001 135.941 90.001 126V108H72.001C62.0597 108 54.001 116.059 54.001 126C54.001 135.941 62.0597 144 72.001 144Z" fill="#0ACF83"/>
<path d="M54.001 90C54.001 80.0587 62.0597 72 72.001 72H90.001V108H72.001C62.0597 108 54.001 99.9409 54.001 90Z" fill="#A259FF"/>
<path d="M54.001 54C54.001 44.0588 62.0597 35.9999 72.001 35.9999H90.001V72H72.001C62.0597 72 54.001 63.9409 54.001 54Z" fill="#F24E1E"/>
<path d="M90 35.9999H108C117.941 35.9999 126 44.0588 126 54C126 63.9409 117.941 72 108 72H90V35.9999Z" fill="#FF7262"/>
<path d="M126 90C126 99.9409 117.941 108 108 108C98.0587 108 90 99.9409 90 90C90 80.0587 98.0587 72 108 72C117.941 72 126 80.0587 126 90Z" fill="#1ABCFE"/>
</svg>
