<svg id="图层_1" data-name="图层 1" xmlns="http://www.w3.org/2000/svg" viewBox="0 0 1859.38 483.03"><defs><style>.cls-1,.cls-2{fill:#dfe5e8;}.cls-2{font-size:350px;font-family:Pacifico;}</style></defs><path class="cls-1" d="M281.17,940.65c1.5-.76,3-1.49,4.56-2.2.92-.42,1.85-.8,2.76-1.23,3.17-1.49-3.39,1.3-.07,0,4.18-1.59,8.34-3.23,12.57-4.69,10.42-3.58,21-6.63,31.67-9.43,29.11-7.66,58.69-13.55,88.3-18.87C509.41,888.36,596.29,878,685.8,868.54c123.63-13,247.6-22.81,371.65-30.85q228.66-14.82,457.74-22.06,259.51-8.61,519.23-9.47,34.45-.12,68.9-.12c19.31,0,19.34-30,0-30q-266.3,0-532.52,7.84-233.15,7-466,20.84C976.53,812.54,848.34,822.15,720.48,835,625.75,844.47,531,855.4,437.1,871.15c-52.63,8.83-108.19,17.21-157.85,37.67-4.47,1.84-8.92,3.75-13.23,5.93-17.22,8.73-2,34.62,15.15,25.9Z" transform="translate(-258.44 -466.2)"/><text class="cls-2" transform="translate(82.24 324.1)">Design Blog</text></svg>