<svg width="1000" height="1000" viewBox="0 0 1000 1000" fill="none" xmlns="http://www.w3.org/2000/svg">
<path d="M1000 0H0V1000H1000V0Z" fill="#FFDAA9"/>
<path d="M63.2 959.2C63.2 961.7 62 962.9 60.6 962.9C59.5 962.9 58.7 962.4 58.5 961.5C58.1 962 57.5 962.3 56.7 962.3C55.2 962.3 54.1 961.1 54.1 959.5C54.1 957.9 55.2 956.7 56.7 956.7C57.4 956.7 57.9 957 58.3 957.4V956.9H59.9V960.8C59.9 961.6 60.2 962.2 60.9 962.2C61.8 962.2 62.6 961.3 62.6 959.2C62.6 956.2 60.3 953.9 57.2 953.9C54.1 953.9 51.6 956.3 51.6 959.6C51.6 962.9 54.1 965.3 57.5 965.3C58.6 965.3 59.6 965.1 60.4 964.9V965.5C59.6 965.8 58.7 965.9 57.5 965.9C53.8 965.9 51 963.3 51 959.7C51 956.3 53.7 953.5 57.2 953.5C61.1 953.3 63.2 956.4 63.2 959.2ZM58.3 959.5C58.3 958.7 57.7 958.1 57 958.1C56.2 958.1 55.7 958.6 55.7 959.5C55.7 960.3 56.3 960.8 57 960.8C57.8 960.9 58.3 960.3 58.3 959.5Z" fill="#00233A"/>
<path d="M69.4004 955.1V957.1C68.2004 957 66.8004 957.6 66.8004 959.5V963.8H64.9004V955.2H66.8004V956.6C67.3004 955.5 68.3004 955.1 69.4004 955.1Z" fill="#00233A"/>
<path d="M74.5998 962.3C75.5998 962.3 76.3998 961.8 76.7998 961.2L78.2998 962.1C77.4998 963.3 76.1998 964 74.4998 964C71.6998 964 69.7998 962.1 69.7998 959.5C69.7998 957 71.5998 955 74.2998 955C76.8998 955 78.5998 957.1 78.5998 959.5C78.5998 959.8 78.5998 960 78.4998 960.3H71.6998C72.0998 961.6 73.1998 962.3 74.5998 962.3ZM76.8998 958.8C76.5998 957.3 75.5998 956.7 74.3998 956.7C72.9998 956.7 72.0998 957.5 71.7998 958.8H76.8998Z" fill="#00233A"/>
<path d="M88.9002 955.2V963.8H87.0002V962.6C86.3002 963.5 85.3002 964.1 84.0002 964.1C81.7002 964.1 79.7002 962.1 79.7002 959.6C79.7002 957 81.6002 955.1 84.0002 955.1C85.3002 955.1 86.3002 955.6 87.0002 956.5V955.3H88.9002V955.2ZM87.1002 959.5C87.1002 957.9 85.9002 956.8 84.4002 956.8C82.9002 956.8 81.7002 957.9 81.7002 959.5C81.7002 961.1 82.9002 962.2 84.4002 962.2C85.9002 962.3 87.1002 961.1 87.1002 959.5Z" fill="#00233A"/>
<path d="M91.0996 951.3H92.9996V963.8H91.0996V951.3Z" fill="#00233A"/>
<path d="M102.9 955.2L99.6002 963.8H97.5002L94.2002 955.2H96.2002L98.6002 961.7L101 955.2H102.9Z" fill="#00233A"/>
<path d="M104.2 955.2H106.1V964.1C106.1 966.5 104.9 967.6 102.6 967.4V965.6C103.7 965.7 104.3 965.3 104.3 964.1V955.2H104.2ZM104 952.8C104 952.1 104.5 951.6 105.2 951.6C105.9 951.6 106.4 952.1 106.4 952.8C106.4 953.4 105.9 954 105.2 954C104.5 954 104 953.4 104 952.8Z" fill="#00233A"/>
<path d="M116 955.2L112.7 964C111.9 966.2 110.5 967.3 108.5 967.2V965.5C109.7 965.6 110.4 965 110.8 963.8L110.9 963.6L107.3 955.2H109.3L111.9 961.4L114.1 955.2H116V955.2Z" fill="#00233A"/>
<path d="M211.9 938.7C211.9 940.8 210.4 942.5 208.3 942.5H205.3V934.9H208.3C210.4 934.9 211.9 936.6 211.9 938.7ZM210.9 938.7C210.9 937.1 209.8 935.8 208.3 935.8H206.3V941.5H208.3C209.8 941.6 210.9 940.3 210.9 938.7Z" fill="#00233A"/>
<path d="M219.499 940.8H216.099L215.499 942.5H214.399L217.199 934.9H218.299L221.099 942.5H219.999L219.499 940.8ZM219.199 939.9L217.799 936.1L216.399 939.9H219.199Z" fill="#00233A"/>
<path d="M226.4 939.4V942.5H225.4V939.4L222.7 934.9H223.8L225.9 938.5L228 934.9H229.1L226.4 939.4Z" fill="#00233A"/>
<path d="M241.999 940.3C241.999 941.8 240.799 942.7 239.399 942.7C238.299 942.7 237.299 942.2 236.899 941.1L237.799 940.6C237.999 941.4 238.599 941.7 239.499 941.7C240.399 941.7 241.099 941.2 241.099 940.3C241.099 939.4 240.399 938.9 239.499 938.9H237.299L237.599 934.9H241.799V935.8H238.499L238.399 937.8H239.499C240.799 937.9 241.999 938.7 241.999 940.3Z" fill="#00233A"/>
<path d="M244.899 941.7L247.599 939C248.199 938.4 248.699 937.8 248.699 937.1C248.699 936.2 248.099 935.7 247.299 935.7C246.599 935.7 246.099 936 245.699 936.7L244.899 936.2C245.399 935.2 246.299 934.7 247.299 934.7C248.499 934.7 249.699 935.5 249.699 937C249.699 937.9 249.099 938.8 248.299 939.5L246.299 941.4H249.799V942.4H244.899V941.7V941.7Z" fill="#00233A"/>
<path d="M58.8998 938.7C58.8998 940.8 57.3998 942.5 55.2998 942.5H52.2998V934.9H55.2998C57.3998 934.9 58.8998 936.6 58.8998 938.7ZM57.8998 938.7C57.8998 937.1 56.7998 935.8 55.2998 935.8H53.2998V941.5H55.2998C56.7998 941.6 57.8998 940.3 57.8998 938.7Z" fill="#00233A"/>
<path d="M66.9994 941.6V942.6H62.3994V935H66.8994V936H63.3994V938.3H66.5994V939.2H63.3994V941.6H66.9994V941.6Z" fill="#00233A"/>
<path d="M70 940.8L70.9 940.3C71.2 941.1 71.8 941.7 72.9 941.7C74 941.7 74.5 941.2 74.5 940.5C74.5 939.7 73.8 939.5 72.7 939.1C71.5 938.7 70.3 938.3 70.3 936.9C70.3 935.5 71.4 934.7 72.7 934.7C74 934.7 74.9 935.4 75.3 936.4L74.5 936.9C74.2 936.2 73.7 935.7 72.8 935.7C72 935.7 71.4 936.1 71.4 936.8C71.4 937.5 71.9 937.8 73 938.1C74.3 938.5 75.6 938.9 75.6 940.4C75.6 941.7 74.5 942.6 73 942.6C71.5 942.7 70.4 941.9 70 940.8Z" fill="#00233A"/>
<path d="M80 934.9V942.5H79V934.9H80Z" fill="#00233A"/>
<path d="M91.2996 939.2C91.2996 941.1 89.8996 942.7 87.5996 942.7C85.1996 942.7 83.5996 940.9 83.5996 938.7C83.5996 936.5 85.2996 934.7 87.5996 934.7C88.9996 934.7 90.2996 935.5 90.8996 936.5L89.9996 937C89.5996 936.2 88.5996 935.6 87.5996 935.6C85.7996 935.6 84.5996 936.9 84.5996 938.6C84.5996 940.3 85.7996 941.6 87.5996 941.6C89.1996 941.6 90.0996 940.7 90.2996 939.6H87.4996V938.7H91.2996V939.2V939.2Z" fill="#00233A"/>
<path d="M100.599 934.9V942.5H99.7994L95.8994 936.8V942.5H94.8994V934.9H95.6994L99.5994 940.6V934.9H100.599Z" fill="#00233A"/>
<path d="M109.1 941.6V942.6H104.5V935H109V936H105.5V938.3H108.7V939.2H105.5V941.6H109.1V941.6Z" fill="#00233A"/>
<path d="M119.2 938.7C119.2 940.8 117.7 942.5 115.6 942.5H112.6V934.9H115.6C117.6 934.9 119.2 936.6 119.2 938.7ZM118.2 938.7C118.2 937.1 117.1 935.8 115.6 935.8H113.6V941.5H115.6C117.1 941.6 118.2 940.3 118.2 938.7Z" fill="#00233A"/>
<path d="M133.2 940.4C133.2 941.6 132.2 942.6 131 942.6H127.7V935H130.7C131.9 935 132.8 935.9 132.8 937.1C132.8 937.8 132.5 938.3 132 938.7C132.7 938.9 133.2 939.5 133.2 940.4ZM128.7 935.8V938.1H130.7C131.3 938.1 131.8 937.6 131.8 936.9C131.8 936.3 131.3 935.7 130.7 935.7H128.7V935.8ZM132.2 940.3C132.2 939.6 131.7 939.1 131 939.1H128.7V941.6H131C131.7 941.6 132.2 941 132.2 940.3Z" fill="#00233A"/>
<path d="M139.4 939.4V942.5H138.4V939.4L135.7 934.9H136.8L138.9 938.5L141 934.9H142.1L139.4 939.4Z" fill="#00233A"/>
<path d="M212.7 961.8H207.4L206.5 964.3H204.3L208.8 951.9H211.2L215.7 964.3H213.5L212.7 961.8ZM212 959.9L210 954.3L208 959.9H212Z" fill="#00233A"/>
<path d="M224.7 955.4V964.3H222.8V963.2C222.2 964.1 221.3 964.6 220.1 964.6C218.1 964.6 216.7 963.3 216.7 961V955.6H218.6V960.8C218.6 962.1 219.4 962.9 220.6 962.9C221.9 962.9 222.8 962.2 222.8 960.4V955.7H224.7V955.4Z" fill="#00233A"/>
<path d="M235 958.9V964.3H233.1V959.1C233.1 957.8 232.3 957 231.1 957C229.8 957 228.9 957.7 228.9 959.5V964.2H227V955.3H228.9V956.4C229.5 955.5 230.4 955 231.6 955C233.6 955.2 235 956.6 235 958.9Z" fill="#00233A"/>
<path d="M239.8 957.3V961.5C239.8 962.6 240.5 962.6 242 962.5V964.2C239.1 964.6 237.9 963.7 237.9 961.4V957.2H236.3V955.4H237.9V953.5L239.8 952.9V955.4H242V957.2H239.8V957.3Z" fill="#00233A"/>
<path d="M251.7 955.4V964.3H249.8V963.2C249.2 964.1 248.3 964.6 247.1 964.6C245.1 964.6 243.7 963.3 243.7 961V955.6H245.6V960.8C245.6 962.1 246.4 962.9 247.6 962.9C248.9 962.9 249.8 962.2 249.8 960.4V955.7H251.7V955.4Z" fill="#00233A"/>
<path d="M266.899 958.8V964.3H264.999V958.9C264.999 957.7 264.299 957 263.299 957C262.199 957 261.399 957.7 261.399 959.3V964.3H259.499V958.9C259.499 957.7 258.899 957 257.799 957C256.699 957 255.799 957.7 255.799 959.3V964.3H253.899V955.4H255.799V956.5C256.399 955.6 257.199 955.2 258.299 955.2C259.499 955.2 260.299 955.7 260.799 956.6C261.399 955.7 262.299 955.2 263.499 955.2C265.599 955.2 266.899 956.6 266.899 958.8Z" fill="#00233A"/>
<path d="M846.1 938.7C846.1 940.8 844.6 942.5 842.5 942.5H839.5V934.9H842.5C844.6 934.9 846.1 936.6 846.1 938.7ZM845.2 938.7C845.2 937.1 844.1 935.8 842.6 935.8H840.6V941.5H842.6C844.1 941.6 845.2 940.3 845.2 938.7Z" fill="#00233A"/>
<path d="M849.3 938.7C849.3 936.5 851 934.7 853.2 934.7C855.4 934.7 857.2 936.5 857.2 938.7C857.2 940.9 855.5 942.7 853.2 942.7C851 942.7 849.3 940.9 849.3 938.7ZM856.1 938.7C856.1 937 854.8 935.7 853.2 935.7C851.5 935.7 850.3 937 850.3 938.7C850.3 940.4 851.6 941.7 853.2 941.7C854.9 941.7 856.1 940.4 856.1 938.7Z" fill="#00233A"/>
<path d="M859.8 934.9H860.9L862.6 941.2L864.5 934.9H865.5L867.4 941.2L869.1 934.9H870.2L868 942.5H866.8L865 936.4L863.2 942.5H862L859.8 934.9Z" fill="#00233A"/>
<path d="M879.3 934.9V942.5H878.5L874.6 936.8V942.5H873.6V934.9H874.4L878.3 940.6V934.9H879.3Z" fill="#00233A"/>
<path d="M887.5 941.6V942.6H883.2V935H884.2V941.7H887.5V941.6Z" fill="#00233A"/>
<path d="M889.9 938.7C889.9 936.5 891.6 934.7 893.8 934.7C896 934.7 897.8 936.5 897.8 938.7C897.8 940.9 896.1 942.7 893.8 942.7C891.6 942.7 889.9 940.9 889.9 938.7ZM896.8 938.7C896.8 937 895.5 935.7 893.9 935.7C892.2 935.7 891 937 891 938.7C891 940.4 892.3 941.7 893.9 941.7C895.5 941.7 896.8 940.4 896.8 938.7Z" fill="#00233A"/>
<path d="M905.4 940.8H902L901.4 942.5H900.3L903.1 934.9H904.2L907 942.5H906L905.4 940.8ZM905.1 939.9L903.7 936.1L902.3 939.9H905.1Z" fill="#00233A"/>
<path d="M916.9 938.7C916.9 940.8 915.4 942.5 913.3 942.5H910.3V934.9H913.3C915.4 934.9 916.9 936.6 916.9 938.7ZM915.9 938.7C915.9 937.1 914.8 935.8 913.3 935.8H911.3V941.5H913.3C914.9 941.6 915.9 940.3 915.9 938.7Z" fill="#00233A"/>
<path d="M926.5 935.8V938.3H929.7V939.3H926.5V942.5H925.5V934.9H929.9V935.9H926.5V935.8Z" fill="#00233A"/>
<path d="M936.2 939.6H934.4V942.5H933.4V934.9H936.4C937.7 934.9 938.8 936 938.8 937.3C938.8 938.3 938.1 939.2 937.2 939.5L939 942.6H937.9L936.2 939.6ZM934.4 938.7H936.4C937.2 938.7 937.8 938.1 937.8 937.3C937.8 936.5 937.2 935.9 936.4 935.9H934.4V938.7Z" fill="#00233A"/>
<path d="M941.9 938.7C941.9 936.5 943.6 934.7 945.8 934.7C948 934.7 949.8 936.5 949.8 938.7C949.8 940.9 948.1 942.7 945.8 942.7C943.6 942.7 941.9 940.9 941.9 938.7ZM948.8 938.7C948.8 937 947.5 935.7 945.9 935.7C944.2 935.7 943 937 943 938.7C943 940.4 944.3 941.7 945.9 941.7C947.5 941.7 948.8 940.4 948.8 938.7Z" fill="#00233A"/>
<path d="M960.4 942.5H959.4V936.5L956.9 940.7H956.8L954.3 936.6V942.5H953.3V934.9H954.4L956.8 938.9L959.2 934.9H960.3V942.5H960.4Z" fill="#00233A"/>
<path d="M839.3 952.9C839.3 952.2 839.8 951.7 840.5 951.7C841.2 951.7 841.7 952.2 841.7 952.9C841.7 953.6 841.2 954.1 840.5 954.1C839.9 954.1 839.3 953.6 839.3 952.9ZM839.6 955.4H841.5V964.3H839.6V955.4Z" fill="#00233A"/>
<path d="M843.7 951.4H845.6V964.3H843.7V951.4Z" fill="#00233A"/>
<path d="M847.8 951.4H849.7V964.3H847.8V951.4Z" fill="#00233A"/>
<path d="M852 951.4H853.9V964.3H852V951.4Z" fill="#00233A"/>
<path d="M864 955.4V964.3H862.1V963.2C861.5 964.1 860.6 964.6 859.4 964.6C857.4 964.6 856 963.3 856 961V955.6H857.9V960.8C857.9 962.1 858.7 962.9 859.9 962.9C861.2 962.9 862.1 962.2 862.1 960.4V955.7H864V955.4Z" fill="#00233A"/>
<path d="M872.6 961.8C872.6 963.6 871.1 964.5 869.1 964.5C867.3 964.5 866.1 963.7 865.5 962.4L867.1 961.4C867.4 962.2 868.1 962.7 869.1 962.7C869.9 962.7 870.6 962.4 870.6 961.7C870.6 960.1 865.8 961 865.8 957.8C865.8 956.1 867.2 955.1 869 955.1C870.5 955.1 871.7 955.8 872.3 956.9L870.7 957.8C870.4 957.1 869.8 956.8 869 956.8C868.3 956.8 867.7 957.1 867.7 957.7C867.9 959.5 872.6 958.5 872.6 961.8Z" fill="#00233A"/>
<path d="M876.7 957.3V961.5C876.7 962.6 877.4 962.6 878.9 962.5V964.2C876 964.6 874.8 963.7 874.8 961.4V957.2H873.2V955.4H874.8V953.5L876.7 952.9V955.4H878.9V957.2H876.7V957.3Z" fill="#00233A"/>
<path d="M885.4 955.3V957.4C884.1 957.3 882.7 957.9 882.7 959.9V964.4H880.8V955.5H882.7V957C883.2 955.7 884.2 955.3 885.4 955.3Z" fill="#00233A"/>
<path d="M895.299 955.4V964.3H893.399V963C892.699 963.9 891.699 964.5 890.299 964.5C887.899 964.5 885.899 962.5 885.899 959.8C885.899 957.2 887.899 955.1 890.299 955.1C891.699 955.1 892.699 955.7 893.399 956.6V955.3H895.299V955.4ZM893.399 959.9C893.399 958.3 892.199 957.1 890.599 957.1C888.999 957.1 887.799 958.3 887.799 959.9C887.799 961.5 888.999 962.7 890.599 962.7C892.199 962.7 893.399 961.5 893.399 959.9Z" fill="#00233A"/>
<path d="M900.3 957.3V961.5C900.3 962.6 901 962.6 902.5 962.5V964.2C899.6 964.6 898.4 963.7 898.4 961.4V957.2H896.8V955.4H898.4V953.5L900.3 952.9V955.4H902.5V957.2H900.3V957.3Z" fill="#00233A"/>
<path d="M903.899 952.9C903.899 952.2 904.399 951.7 905.099 951.7C905.799 951.7 906.299 952.2 906.299 952.9C906.299 953.6 905.799 954.1 905.099 954.1C904.499 954.1 903.899 953.6 903.899 952.9ZM904.199 955.4H906.099V964.3H904.199V955.4Z" fill="#00233A"/>
<path d="M907.8 959.9C907.8 957.3 909.9 955.2 912.5 955.2C915.1 955.2 917.2 957.2 917.2 959.9C917.2 962.5 915.1 964.6 912.5 964.6C909.9 964.5 907.8 962.5 907.8 959.9ZM915.3 959.9C915.3 958.3 914.1 957.1 912.5 957.1C910.9 957.1 909.7 958.3 909.7 959.9C909.7 961.5 910.9 962.7 912.5 962.7C914.1 962.7 915.3 961.5 915.3 959.9Z" fill="#00233A"/>
<path d="M927 958.9V964.3H925.1V959.1C925.1 957.8 924.3 957 923.1 957C921.8 957 920.9 957.7 920.9 959.5V964.2H919V955.3H920.9V956.4C921.5 955.5 922.4 955 923.6 955C925.5 955.2 927 956.6 927 958.9Z" fill="#00233A"/>
<path d="M935.499 961.8C935.499 963.6 933.999 964.5 931.999 964.5C930.199 964.5 928.999 963.7 928.399 962.4L929.999 961.4C930.299 962.2 930.999 962.7 931.999 962.7C932.799 962.7 933.499 962.4 933.499 961.7C933.499 960.1 928.699 961 928.699 957.8C928.699 956.1 930.099 955.1 931.899 955.1C933.399 955.1 934.599 955.8 935.199 956.9L933.599 957.8C933.299 957.1 932.699 956.8 931.899 956.8C931.199 956.8 930.599 957.1 930.599 957.7C930.699 959.5 935.499 958.5 935.499 961.8Z" fill="#00233A"/>
<path d="M936.8 963.2C936.8 962.5 937.4 961.9 938.1 961.9C938.8 961.9 939.4 962.5 939.4 963.2C939.4 963.9 938.8 964.5 938.1 964.5C937.4 964.5 936.8 963.9 936.8 963.2Z" fill="#00233A"/>
<path d="M940.3 959.9C940.3 957.3 942.3 955.2 945 955.2C946.7 955.2 948.2 956.1 948.9 957.5L947.3 958.5C946.9 957.7 946 957.1 945 957.1C943.4 957.1 942.3 958.3 942.3 959.9C942.3 961.5 943.5 962.7 945 962.7C946.1 962.7 946.9 962.2 947.4 961.3L949 962.2C948.3 963.6 946.8 964.5 945 964.5C942.3 964.5 940.3 962.5 940.3 959.9Z" fill="#00233A"/>
<path d="M949.7 959.9C949.7 957.3 951.8 955.2 954.4 955.2C957 955.2 959.1 957.2 959.1 959.9C959.1 962.5 957 964.6 954.4 964.6C951.8 964.5 949.7 962.5 949.7 959.9ZM957.2 959.9C957.2 958.3 956 957.1 954.4 957.1C952.8 957.1 951.6 958.3 951.6 959.9C951.6 961.5 952.8 962.7 954.4 962.7C956 962.7 957.2 961.5 957.2 959.9Z" fill="#00233A"/>
<path d="M802 613.8C775.3 614 755.3 601 738.7 582.9C735.5 579.3 732.4 574.5 729.6 569.1C715.3 542.1 711.5 510.8 718 480.9C728.7 431.9 752.1 344.1 792.8 279.9C797.1 273.1 807 273.1 811.3 279.9C851.9 344.1 875.3 431.9 886.1 480.9C892.6 510.7 888.7 542.1 874.5 569.1C871.7 574.4 868.6 579.2 865.4 582.9C848.7 601 828.7 614 802 613.8Z" fill="#FF6550"/>
<path opacity="0.4" d="M884.9 480.9C874.2 431.9 850.8 344.1 810.1 279.9C806.9 274.9 800.6 273.6 795.8 276.1C799.6 279.2 802.8 283.2 805.2 288.1C836.3 351.5 855.2 424.1 864.8 468C871.9 500.3 867.7 534.1 852.4 563.4C849.2 569.5 845.8 575 842.1 579.2C826.5 596.2 808.1 609.2 784.7 612.3C789.8 613.4 795.1 613.9 800.8 613.9C827.5 614.1 847.5 601.1 864.1 583C867.3 579.4 870.4 574.6 873.2 569.2C887.6 542.1 891.5 510.8 884.9 480.9Z" fill="#FF7364"/>
<path d="M802 613.8C775.3 614 755.3 601 738.7 582.9C735.5 579.3 732.4 574.5 729.6 569.1C715.3 542.1 711.5 510.8 718 480.9C728.7 431.9 752.1 344.1 792.8 279.9C797.1 273.1 807 273.1 811.3 279.9C851.9 344.1 875.3 431.9 886.1 480.9C892.6 510.7 888.7 542.1 874.5 569.1C871.7 574.4 868.6 579.2 865.4 582.9C848.7 601 828.7 614 802 613.8Z" stroke="#00233A" stroke-width="10" stroke-miterlimit="10" stroke-linecap="round" stroke-linejoin="round"/>
<path d="M802 557L844 526.7" stroke="#00233A" stroke-width="10" stroke-miterlimit="10" stroke-linecap="round" stroke-linejoin="round"/>
<path d="M802 515L764.5 486" stroke="#00233A" stroke-width="10" stroke-miterlimit="10" stroke-linecap="round" stroke-linejoin="round"/>
<path d="M708.9 641.8H645C626.2 641.8 610.9 626.5 610.9 607.7V487.7C610.9 468.9 626.2 453.6 645 453.6H708.8C727.6 453.6 742.9 468.9 742.9 487.7V607.7C743 626.5 727.7 641.8 708.9 641.8Z" fill="#E97E1C"/>
<path opacity="0.74" d="M707.9 453.6H692.9C711.7 453.6 727 468.9 727 487.7V607.7C727 626.5 711.7 641.8 692.9 641.8H707.9C726.7 641.8 742 626.5 742 607.7V487.7C742 468.8 726.7 453.6 707.9 453.6Z" fill="#E8531F"/>
<path d="M708.9 641.8H645C626.2 641.8 610.9 626.5 610.9 607.7V487.7C610.9 468.9 626.2 453.6 645 453.6H708.8C727.6 453.6 742.9 468.9 742.9 487.7V607.7C743 626.5 727.7 641.8 708.9 641.8Z" stroke="#00233A" stroke-width="10" stroke-miterlimit="10" stroke-linecap="round" stroke-linejoin="round"/>
<path d="M677 613.8L705 588" stroke="#00233A" stroke-width="10" stroke-miterlimit="10" stroke-linecap="round" stroke-linejoin="round"/>
<path d="M677 571L646 557" stroke="#00233A" stroke-width="10" stroke-miterlimit="10" stroke-linecap="round" stroke-linejoin="round"/>
<path d="M802 726V444" stroke="#00233A" stroke-width="10" stroke-miterlimit="10" stroke-linecap="round" stroke-linejoin="round"/>
<path d="M677 527V726" stroke="#00233A" stroke-width="10" stroke-miterlimit="10" stroke-linecap="round" stroke-linejoin="round"/>
<path d="M202.7 614.8C235.837 614.8 262.7 543.166 262.7 454.8C262.7 366.434 235.837 294.8 202.7 294.8C169.563 294.8 142.7 366.434 142.7 454.8C142.7 543.166 169.563 614.8 202.7 614.8Z" fill="#FFB845"/>
<path opacity="0.53" d="M202.7 294.8C202.2 294.8 201.7 294.8 201.1 294.9C228.8 309.1 249.7 374 249.7 452C249.7 539 223.7 609.7 191.3 611.9C195 613.8 198.8 614.8 202.7 614.8C235.8 614.8 262.7 543.2 262.7 454.8C262.7 366.4 235.8 294.8 202.7 294.8Z" fill="#D89535"/>
<path d="M202.7 614.8C235.837 614.8 262.7 543.166 262.7 454.8C262.7 366.434 235.837 294.8 202.7 294.8C169.563 294.8 142.7 366.434 142.7 454.8C142.7 543.166 169.563 614.8 202.7 614.8Z" stroke="#00233A" stroke-width="10" stroke-miterlimit="10" stroke-linecap="round" stroke-linejoin="round"/>
<path d="M202.4 402V715" stroke="#00233A" stroke-width="10" stroke-miterlimit="10" stroke-linecap="round" stroke-linejoin="round"/>
<path d="M202.7 500L226.4 469" stroke="#00233A" stroke-width="10" stroke-miterlimit="10" stroke-linecap="round" stroke-linejoin="round"/>
<path d="M202.7 561L177.1 534.3" stroke="#00233A" stroke-width="10" stroke-miterlimit="10" stroke-linecap="round" stroke-linejoin="round"/>
<path d="M202.4 454.3L181.7 431" stroke="#00233A" stroke-width="10" stroke-miterlimit="10" stroke-linecap="round" stroke-linejoin="round"/>
<path opacity="0.6" d="M232.7 436.9C237.284 436.9 241 433.184 241 428.6C241 424.016 237.284 420.3 232.7 420.3C228.116 420.3 224.4 424.016 224.4 428.6C224.4 433.184 228.116 436.9 232.7 436.9Z" fill="#EF8C3A"/>
<path d="M177.1 395.3C180.027 395.3 182.4 392.927 182.4 390C182.4 387.073 180.027 384.7 177.1 384.7C174.173 384.7 171.8 387.073 171.8 390C171.8 392.927 174.173 395.3 177.1 395.3Z" fill="#FFD766"/>
<path d="M211.6 383.1C214.085 383.1 216.1 381.085 216.1 378.6C216.1 376.115 214.085 374.1 211.6 374.1C209.114 374.1 207.1 376.115 207.1 378.6C207.1 381.085 209.114 383.1 211.6 383.1Z" fill="#FFD766"/>
<path opacity="0.38" d="M647.8 504.9C653.433 504.9 658 500.333 658 494.7C658 489.067 653.433 484.5 647.8 484.5C642.166 484.5 637.6 489.067 637.6 494.7C637.6 500.333 642.166 504.9 647.8 504.9Z" fill="#FFB845"/>
<path opacity="0.38" d="M679.8 507.9C683.832 507.9 687.1 504.632 687.1 500.6C687.1 496.568 683.832 493.3 679.8 493.3C675.768 493.3 672.5 496.568 672.5 500.6C672.5 504.632 675.768 507.9 679.8 507.9Z" fill="#FFB845"/>
<path opacity="0.74" d="M647.8 598.8C651.832 598.8 655.1 595.532 655.1 591.5C655.1 587.468 651.832 584.2 647.8 584.2C643.768 584.2 640.5 587.468 640.5 591.5C640.5 595.532 643.768 598.8 647.8 598.8Z" fill="#E8531F"/>
<path opacity="0.74" d="M701.5 539.2C704.869 539.2 707.6 536.469 707.6 533.1C707.6 529.731 704.869 527 701.5 527C698.131 527 695.4 529.731 695.4 533.1C695.4 536.469 698.131 539.2 701.5 539.2Z" fill="#E8531F"/>
<path opacity="0.6" d="M171 492.8C175.584 492.8 179.3 489.084 179.3 484.5C179.3 479.916 175.584 476.2 171 476.2C166.416 476.2 162.7 479.916 162.7 484.5C162.7 489.084 166.416 492.8 171 492.8Z" fill="#EF8C3A"/>
<path opacity="0.6" d="M189.7 368.6C194.284 368.6 198 364.884 198 360.3C198 355.716 194.284 352 189.7 352C185.116 352 181.4 355.716 181.4 360.3C181.4 364.884 185.116 368.6 189.7 368.6Z" fill="#EF8C3A"/>
<path opacity="0.6" d="M226.7 534.6C231.284 534.6 235 530.884 235 526.3C235 521.716 231.284 518 226.7 518C222.116 518 218.4 521.716 218.4 526.3C218.4 530.884 222.116 534.6 226.7 534.6Z" fill="#EF8C3A"/>
<path d="M256.3 378.5C269.113 378.5 279.5 368.113 279.5 355.3C279.5 342.487 269.113 332.1 256.3 332.1C243.487 332.1 233.1 342.487 233.1 355.3C233.1 368.113 243.487 378.5 256.3 378.5Z" fill="#FF9F48"/>
<path d="M256.3 332.1C256.1 332.1 256 332.1 255.8 332.1C262.5 336.2 267 343.6 267 352C267 364.6 256.9 374.9 244.3 375.2C247.8 377.3 251.9 378.5 256.3 378.5C269.1 378.5 279.5 368.1 279.5 355.3C279.5 342.5 269.1 332.1 256.3 332.1Z" fill="#EF8C3A"/>
<path d="M256.3 378.5C269.113 378.5 279.5 368.113 279.5 355.3C279.5 342.487 269.113 332.1 256.3 332.1C243.487 332.1 233.1 342.487 233.1 355.3C233.1 368.113 243.487 378.5 256.3 378.5Z" stroke="#00233A" stroke-width="10" stroke-miterlimit="10" stroke-linecap="round" stroke-linejoin="round"/>
<path d="M643.5 726C643.5 699.8 664.7 678.7 690.8 678.7C716.9 678.7 738.1 699.8 738.1 726H643.5Z" fill="#FF6550"/>
<path opacity="0.4" d="M690.8 678.7C685.9 678.7 681.3 679.4 676.8 680.8C696.1 686.7 710.1 704.7 710.1 726H738C738.1 699.8 716.9 678.7 690.8 678.7Z" fill="#FF7364"/>
<path d="M643.5 726C643.5 699.8 664.7 678.7 690.8 678.7C716.9 678.7 738.1 699.8 738.1 726H643.5Z" stroke="#00233A" stroke-width="10" stroke-miterlimit="10" stroke-linecap="round" stroke-linejoin="round"/>
<path d="M714.9 726C714.9 708.6 728.9 694.7 746.2 694.7C763.5 694.7 777.5 708.7 777.5 726H714.9Z" fill="#FFB845"/>
<path opacity="0.53" d="M746.2 694.7C743.7 694.7 741.3 695 739 695.5C752.8 698.7 763.2 711.1 763.2 726H777.6C777.6 708.6 763.5 694.7 746.2 694.7Z" fill="#D89535"/>
<path d="M714.9 726C714.9 708.6 728.9 694.7 746.2 694.7C763.5 694.7 777.5 708.7 777.5 726H714.9Z" stroke="#00233A" stroke-width="10" stroke-miterlimit="10" stroke-linecap="round" stroke-linejoin="round"/>
<path d="M787.6 726C787.6 713.3 797.8 703.2 810.4 703.2C823 703.2 833.2 713.4 833.2 726H787.6Z" fill="#FFB845"/>
<path d="M787.6 726C787.6 713.3 797.8 703.2 810.4 703.2C823 703.2 833.2 713.4 833.2 726H787.6Z" stroke="#00233A" stroke-width="10" stroke-miterlimit="10" stroke-linecap="round" stroke-linejoin="round"/>
<path d="M234.7 726C234.7 713.4 244.9 703.2 257.5 703.2C270.1 703.2 280.3 713.4 280.3 726H234.7Z" fill="#FFB845"/>
<path d="M234.7 726C234.7 713.4 244.9 703.2 257.5 703.2C270.1 703.2 280.3 713.4 280.3 726H234.7Z" stroke="#00233A" stroke-width="10" stroke-miterlimit="10" stroke-linecap="round" stroke-linejoin="round"/>
<path d="M349.9 726C349.9 717.9 356.4 711.4 364.5 711.4C372.6 711.4 379.1 717.9 379.1 726H349.9Z" fill="#00233A"/>
<path d="M324.3 724.7C324.3 718 329.7 712.6 336.4 712.6C343.1 712.6 348.5 718 348.5 724.7H324.3Z" fill="#00233A"/>
<path d="M349.9 726C349.9 717.9 356.4 711.4 364.5 711.4C372.6 711.4 379.1 717.9 379.1 726H349.9Z" stroke="#00233A" stroke-width="10" stroke-miterlimit="10" stroke-linecap="round" stroke-linejoin="round"/>
<path d="M386.8 726C386.8 713.4 397 703.2 409.6 703.2C422.2 703.2 432.4 713.4 432.4 726H386.8Z" fill="#00233A"/>
<path d="M581.1 725.3C581.1 716.6 588.1 709.6 596.8 709.6C605.5 709.6 612.5 716.6 612.5 725.3H581.1Z" fill="#00233A"/>
<path d="M540.1 725.3C540.1 713.9 549.4 704.6 560.8 704.6C572.2 704.6 581.5 713.9 581.5 725.3H540.1Z" fill="#00233A"/>
<path d="M386.8 726C386.8 713.4 397 703.2 409.6 703.2C422.2 703.2 432.4 713.4 432.4 726H386.8Z" stroke="#00233A" stroke-width="10" stroke-miterlimit="10" stroke-linecap="round" stroke-linejoin="round"/>
<path d="M527.7 726H873.4" stroke="#00233A" stroke-width="10" stroke-miterlimit="10" stroke-linecap="round" stroke-linejoin="round"/>
<path d="M485.4 726H510.4" stroke="#00233A" stroke-width="10" stroke-miterlimit="10" stroke-linecap="round" stroke-linejoin="round"/>
<path d="M110.4 726H470.4" stroke="#00233A" stroke-width="10" stroke-miterlimit="10" stroke-linecap="round" stroke-linejoin="round"/>
<path d="M354 676.5H334V726H354V676.5Z" fill="#81440E"/>
<path d="M354 676.5H334V726H354V676.5Z" fill="#81440E"/>
<path d="M354 676.5H334V691.7H354V676.5Z" fill="#663717"/>
<path d="M560.8 676.5H540.8V726H560.8V676.5Z" fill="#81440E"/>
<path d="M560.8 676.5H540.8V691.7H560.8V676.5Z" fill="#663717"/>
<path d="M354 676.5H334V726H354V676.5Z" stroke="#00233A" stroke-width="10" stroke-miterlimit="10" stroke-linecap="round" stroke-linejoin="round"/>
<path d="M560.8 676.5H540.8V726H560.8V676.5Z" stroke="#00233A" stroke-width="10" stroke-miterlimit="10" stroke-linecap="round" stroke-linejoin="round"/>
<path d="M360.9 547.9H346.9V654H360.9V547.9Z" fill="#81440E"/>
<path d="M360.9 569.2H346.9V637H360.9V569.2Z" fill="#663717"/>
<path d="M360.9 547.9H346.9V654H360.9V547.9Z" stroke="#00233A" stroke-width="10" stroke-miterlimit="10" stroke-linecap="round" stroke-linejoin="round"/>
<path d="M547.9 547.9H533.9V654H547.9V547.9Z" fill="#81440E"/>
<path d="M547.9 564H533.9V637H547.9V564Z" fill="#663717"/>
<path d="M547.9 547.9H533.9V654H547.9V547.9Z" stroke="#00233A" stroke-width="10" stroke-miterlimit="10" stroke-linecap="round" stroke-linejoin="round"/>
<path d="M581.2 564.1H301.2V594.1H581.2V564.1Z" fill="#81440E"/>
<path d="M581.2 564.1H301.2V574.3H581.2V564.1Z" fill="#A05720"/>
<path d="M581.2 564.1H301.2V594.1H581.2V564.1Z" stroke="#00233A" stroke-width="10" stroke-miterlimit="10" stroke-linecap="round" stroke-linejoin="round"/>
<path d="M581.2 594.1H301.2V624.1H581.2V594.1Z" fill="#81440E"/>
<path d="M581.2 594.1H301.2V603.8H581.2V594.1Z" fill="#A05720"/>
<path d="M581.2 594.1H301.2V624.1H581.2V594.1Z" stroke="#00233A" stroke-width="10" stroke-miterlimit="10" stroke-linecap="round" stroke-linejoin="round"/>
<path d="M615.6 656.5H279.2V676.5H615.6V656.5Z" fill="#81440E"/>
<path d="M615.6 656.5H279.2V676.5H615.6V656.5Z" fill="#81440E"/>
<path d="M615.6 656.5H279.2V664.5H615.6V656.5Z" fill="#A05720"/>
<path d="M615.6 656.5H279.2V676.5H615.6V656.5Z" stroke="#00233A" stroke-width="10" stroke-miterlimit="10" stroke-linecap="round" stroke-linejoin="round"/>
<path d="M355.2 585.5C358.128 585.5 360.5 583.127 360.5 580.2C360.5 577.273 358.128 574.9 355.2 574.9C352.273 574.9 349.9 577.273 349.9 580.2C349.9 583.127 352.273 585.5 355.2 585.5Z" fill="#663717"/>
<path d="M355.2 613.3C358.128 613.3 360.5 610.927 360.5 608C360.5 605.073 358.128 602.7 355.2 602.7C352.273 602.7 349.9 605.073 349.9 608C349.9 610.927 352.273 613.3 355.2 613.3Z" fill="#663717"/>
<path d="M542.2 585.5C545.127 585.5 547.5 583.127 547.5 580.2C547.5 577.273 545.127 574.9 542.2 574.9C539.273 574.9 536.9 577.273 536.9 580.2C536.9 583.127 539.273 585.5 542.2 585.5Z" fill="#663717"/>
<path d="M542.2 613.3C545.127 613.3 547.5 610.927 547.5 608C547.5 605.073 545.127 602.7 542.2 602.7C539.273 602.7 536.9 605.073 536.9 608C536.9 610.927 539.273 613.3 542.2 613.3Z" fill="#663717"/>
<path d="M353.9 584.2C356.11 584.2 357.9 582.409 357.9 580.2C357.9 577.991 356.11 576.2 353.9 576.2C351.691 576.2 349.9 577.991 349.9 580.2C349.9 582.409 351.691 584.2 353.9 584.2Z" fill="#00233A"/>
<path d="M353.9 612C356.11 612 357.9 610.209 357.9 608C357.9 605.791 356.11 604 353.9 604C351.691 604 349.9 605.791 349.9 608C349.9 610.209 351.691 612 353.9 612Z" fill="#00233A"/>
<path d="M540.9 584.2C543.11 584.2 544.9 582.409 544.9 580.2C544.9 577.991 543.11 576.2 540.9 576.2C538.691 576.2 536.9 577.991 536.9 580.2C536.9 582.409 538.691 584.2 540.9 584.2Z" fill="#00233A"/>
<path d="M540.9 612C543.11 612 544.9 610.209 544.9 608C544.9 605.791 543.11 604 540.9 604C538.691 604 536.9 605.791 536.9 608C536.9 610.209 538.691 612 540.9 612Z" fill="#00233A"/>
<path d="M596.8 755.1H602.9" stroke="#00233A" stroke-width="10" stroke-miterlimit="10" stroke-linecap="round" stroke-linejoin="round"/>
<path d="M443.7 755.1H577.1" stroke="#00233A" stroke-width="10" stroke-miterlimit="10" stroke-linecap="round" stroke-linejoin="round"/>
<path d="M397.4 755.1H420.3" stroke="#00233A" stroke-width="10" stroke-miterlimit="10" stroke-linecap="round" stroke-linejoin="round"/>
<path d="M613.9 332.1H625.4" stroke="#00233A" stroke-width="10" stroke-miterlimit="10" stroke-linecap="round" stroke-linejoin="round"/>
<path d="M646.4 332.1H682.9" stroke="#00233A" stroke-width="10" stroke-miterlimit="10" stroke-linecap="round" stroke-linejoin="round"/>
<path d="M43.5 408.2H78" stroke="#00233A" stroke-width="10" stroke-miterlimit="10" stroke-linecap="round" stroke-linejoin="round"/>
<path d="M94.2998 408.2H112.5" stroke="#00233A" stroke-width="10" stroke-miterlimit="10" stroke-linecap="round" stroke-linejoin="round"/>
<path d="M939.2 399.1H946" stroke="#00233A" stroke-width="10" stroke-miterlimit="10" stroke-linecap="round" stroke-linejoin="round"/>
<path d="M903.6 399.1H923.3" stroke="#00233A" stroke-width="10" stroke-miterlimit="10" stroke-linecap="round" stroke-linejoin="round"/>
<path d="M652.6 368.7H713.2" stroke="#00233A" stroke-width="10" stroke-miterlimit="10" stroke-linecap="round" stroke-linejoin="round"/>
<path d="M401 385.6C400.9 384.8 400.8 383.9 400.8 383C400.8 374.1 408 366.8 417 366.8C425.9 366.8 433.2 374 433.2 383C433.2 391.9 426 399.2 417 399.2" stroke="#00233A" stroke-width="10" stroke-miterlimit="10" stroke-linecap="round" stroke-linejoin="round"/>
<path d="M347.8 399.1H417" stroke="#00233A" stroke-width="10" stroke-miterlimit="10" stroke-linecap="round" stroke-linejoin="round"/>
<path d="M871.5 354.6C871.4 353.8 871.3 352.9 871.3 352C871.3 343.1 878.5 335.8 887.5 335.8C896.5 335.8 903.7 343 903.7 352C903.7 361 896.5 368.2 887.5 368.2" stroke="#00233A" stroke-width="10" stroke-miterlimit="10" stroke-linecap="round" stroke-linejoin="round"/>
<path d="M828.4 368.2H887.4" stroke="#00233A" stroke-width="10" stroke-miterlimit="10" stroke-linecap="round" stroke-linejoin="round"/>
<path d="M443.3 442.1C443.2 442.9 443.1 443.8 443.1 444.7C443.1 453.6 450.3 460.9 459.3 460.9C468.3 460.9 475.5 453.7 475.5 444.7C475.5 435.7 468.3 428.5 459.3 428.5" stroke="#00233A" stroke-width="10" stroke-miterlimit="10" stroke-linecap="round" stroke-linejoin="round"/>
<path d="M397.6 428.6H459.2" stroke="#00233A" stroke-width="10" stroke-miterlimit="10" stroke-linecap="round" stroke-linejoin="round"/>
<path d="M375.4 428.6H382.7" stroke="#00233A" stroke-width="10" stroke-miterlimit="10" stroke-linecap="round" stroke-linejoin="round"/>
<path d="M321.7 428.6H357.4" stroke="#00233A" stroke-width="10" stroke-miterlimit="10" stroke-linecap="round" stroke-linejoin="round"/>
<path d="M362.3 379.1H298.2" stroke="#00233A" stroke-width="10" stroke-miterlimit="10" stroke-linecap="round" stroke-linejoin="round"/>
<path d="M94.2998 360.1H118.5" stroke="#00233A" stroke-width="10" stroke-miterlimit="10" stroke-linecap="round" stroke-linejoin="round"/>
<path d="M886.7 503.3C899.845 503.3 910.5 492.644 910.5 479.5C910.5 466.356 899.845 455.7 886.7 455.7C873.556 455.7 862.9 466.356 862.9 479.5C862.9 492.644 873.556 503.3 886.7 503.3Z" fill="#EF4D3C"/>
<path d="M886.7 503.3C899.845 503.3 910.5 492.644 910.5 479.5C910.5 466.356 899.845 455.7 886.7 455.7C873.556 455.7 862.9 466.356 862.9 479.5C862.9 492.644 873.556 503.3 886.7 503.3Z" stroke="#00233A" stroke-width="10" stroke-miterlimit="10" stroke-linecap="round" stroke-linejoin="round"/>
<path d="M162.7 726C181.644 726 197 700.883 197 669.9C197 638.917 181.644 613.8 162.7 613.8C143.757 613.8 128.4 638.917 128.4 669.9C128.4 700.883 143.757 726 162.7 726Z" fill="#E97E1C"/>
<path opacity="0.74" d="M162.7 613.8C161.9 613.8 161.1 613.9 160.4 613.9C173.8 621.5 183.4 642.4 183.4 666.8C183.4 696.5 169.3 720.8 151.4 722.7C154.9 724.7 158.8 725.8 162.7 725.8C181.6 725.8 197 700.7 197 669.7C197 638.9 181.6 613.8 162.7 613.8Z" fill="#E8531F"/>
<path d="M162.7 726C181.644 726 197 700.883 197 669.9C197 638.917 181.644 613.8 162.7 613.8C143.757 613.8 128.4 638.917 128.4 669.9C128.4 700.883 143.757 726 162.7 726Z" stroke="#00233A" stroke-width="10" stroke-miterlimit="10" stroke-linecap="round" stroke-linejoin="round"/>
<path d="M166.3 726C166.3 707 181.6 691.7 200.6 691.7C219.6 691.7 234.9 707 234.9 726H166.3Z" fill="#FF6550"/>
<path opacity="0.4" d="M200.5 691.7C197.5 691.7 194.7 692.1 191.9 692.8C206.7 696.6 217.6 710 217.6 726H234.8C234.8 707 219.4 691.7 200.5 691.7Z" fill="#FF7364"/>
<path d="M166.3 726C166.3 707 181.6 691.7 200.6 691.7C219.6 691.7 234.9 707 234.9 726H166.3Z" stroke="#00233A" stroke-width="10" stroke-miterlimit="10" stroke-linecap="round" stroke-linejoin="round"/>
<path opacity="0.91" d="M791.2 389.9C795.563 389.9 799.1 386.363 799.1 382C799.1 377.637 795.563 374.1 791.2 374.1C786.837 374.1 783.3 377.637 783.3 382C783.3 386.363 786.837 389.9 791.2 389.9Z" fill="#FF6550"/>
<path opacity="0.91" d="M774.7 428.6C780.333 428.6 784.9 424.033 784.9 418.4C784.9 412.767 780.333 408.2 774.7 408.2C769.067 408.2 764.5 412.767 764.5 418.4C764.5 424.033 769.067 428.6 774.7 428.6Z" fill="#FF6550"/>
<path opacity="0.91" d="M828.4 510.2C834.034 510.2 838.6 505.633 838.6 500C838.6 494.367 834.034 489.8 828.4 489.8C822.767 489.8 818.2 494.367 818.2 500C818.2 505.633 822.767 510.2 828.4 510.2Z" fill="#FF6550"/>
<path opacity="0.4" d="M833.2 454.9C838.833 454.9 843.4 450.333 843.4 444.7C843.4 439.067 838.833 434.5 833.2 434.5C827.567 434.5 823 439.067 823 444.7C823 450.333 827.567 454.9 833.2 454.9Z" fill="#FF7364"/>
<path opacity="0.38" d="M159.7 664.8C164.284 664.8 168 661.084 168 656.5C168 651.916 164.284 648.2 159.7 648.2C155.116 648.2 151.4 651.916 151.4 656.5C151.4 661.084 155.116 664.8 159.7 664.8Z" fill="#FFB845"/>
<path opacity="0.6" d="M147.6 675.7C150.306 675.7 152.5 673.506 152.5 670.8C152.5 668.094 150.306 665.9 147.6 665.9C144.894 665.9 142.7 668.094 142.7 670.8C142.7 673.506 144.894 675.7 147.6 675.7Z" fill="#E8531F"/>
<path opacity="0.38" d="M168 689.9C171.203 689.9 173.8 687.303 173.8 684.1C173.8 680.897 171.203 678.3 168 678.3C164.797 678.3 162.2 680.897 162.2 684.1C162.2 687.303 164.797 689.9 168 689.9Z" fill="#FFB845"/>
<path d="M7.50098 9.75092H172.502V170.252H7.50098V9.75092Z" fill="#261300"/>
<path d="M0 2.25V177.75H180V2.25H0ZM7.50094 9.75094H172.502V170.252H7.50094V9.75094ZM62.4741 101.624L56.5481 124.124C56.3991 124.723 56.1741 124.875 55.4231 124.875H44.3981C43.6472 124.875 43.4981 124.65 43.6472 123.75L64.9462 49.1991C65.3203 47.8491 65.5453 46.6481 65.6972 42.975C65.6972 42.4491 65.9222 42.2241 66.2963 42.2241H82.0463C82.5722 42.2241 82.7972 42.3731 82.9463 42.975L106.796 123.899C106.945 124.498 106.796 124.875 106.197 124.875H93.7463C93.1472 124.875 92.7703 124.726 92.6212 124.2L86.3972 101.624H62.4741ZM83.3231 89.4741L74.3991 54.225H74.25C72.675 63 68.7009 77.85 65.5509 89.4741H83.3231ZM117.073 47.7731C117.073 42.9722 120.448 40.1231 124.723 40.1231C129.299 40.1231 132.373 43.1972 132.373 47.7731C132.373 52.7231 129.147 55.4231 124.574 55.4231C120.223 55.4231 117.073 52.7231 117.073 47.7731V47.7731ZM117.973 64.7972C117.973 64.1981 118.198 63.8972 118.873 63.8972H130.649C131.248 63.8972 131.549 64.1222 131.549 64.7972V123.972C131.549 124.571 131.4 124.872 130.649 124.872H119.025C118.274 124.872 118.049 124.498 118.049 123.896V64.8L117.973 64.7972Z" fill="#FF7C00"/>
</svg>
