<svg width="1000" height="1000" viewBox="0 0 1000 1000" fill="none" xmlns="http://www.w3.org/2000/svg">
<path d="M1000 0H0V1000H1000V0Z" fill="#3F3D44"/>
<path d="M63.2 959.2C63.2 961.7 62 962.9 60.6 962.9C59.5 962.9 58.7 962.4 58.5 961.5C58.1 962 57.5 962.3 56.7 962.3C55.2 962.3 54.1 961.1 54.1 959.5C54.1 957.9 55.2 956.7 56.7 956.7C57.4 956.7 57.9 957 58.3 957.4V956.9H59.9V960.8C59.9 961.6 60.2 962.2 60.9 962.2C61.8 962.2 62.6 961.3 62.6 959.2C62.6 956.2 60.3 953.9 57.2 953.9C54.1 953.9 51.6 956.3 51.6 959.6C51.6 962.9 54.1 965.3 57.5 965.3C58.6 965.3 59.6 965.1 60.4 964.9V965.5C59.6 965.8 58.7 965.9 57.5 965.9C53.8 965.9 51 963.3 51 959.7C51 956.3 53.7 953.5 57.2 953.5C61.1 953.3 63.2 956.4 63.2 959.2ZM58.3 959.5C58.3 958.7 57.7 958.1 57 958.1C56.2 958.1 55.7 958.6 55.7 959.5C55.7 960.3 56.3 960.8 57 960.8C57.8 960.9 58.3 960.3 58.3 959.5Z" fill="#EEF2F4"/>
<path d="M69.4004 955.1V957.1C68.2004 957 66.8004 957.6 66.8004 959.5V963.8H64.9004V955.2H66.8004V956.6C67.3004 955.5 68.3004 955.1 69.4004 955.1Z" fill="#EEF2F4"/>
<path d="M74.5998 962.3C75.5998 962.3 76.3998 961.8 76.7998 961.2L78.2998 962.1C77.4998 963.3 76.1998 964 74.4998 964C71.6998 964 69.7998 962.1 69.7998 959.5C69.7998 957 71.5998 955 74.2998 955C76.8998 955 78.5998 957.1 78.5998 959.5C78.5998 959.8 78.5998 960 78.4998 960.3H71.6998C72.0998 961.6 73.1998 962.3 74.5998 962.3ZM76.8998 958.8C76.5998 957.3 75.5998 956.7 74.3998 956.7C72.9998 956.7 72.0998 957.5 71.7998 958.8H76.8998Z" fill="#EEF2F4"/>
<path d="M88.9002 955.2V963.8H87.0002V962.6C86.3002 963.5 85.3002 964.1 84.0002 964.1C81.7002 964.1 79.7002 962.1 79.7002 959.6C79.7002 957 81.6002 955.1 84.0002 955.1C85.3002 955.1 86.3002 955.6 87.0002 956.5V955.3L88.9002 955.2ZM87.1002 959.5C87.1002 957.9 85.9002 956.8 84.4002 956.8C82.9002 956.8 81.7002 957.9 81.7002 959.5C81.7002 961.1 82.9002 962.2 84.4002 962.2C85.9002 962.3 87.1002 961.1 87.1002 959.5Z" fill="#EEF2F4"/>
<path d="M91.0996 951.3H92.9996V963.8H91.0996V951.3Z" fill="#EEF2F4"/>
<path d="M102.9 955.2L99.6002 963.8H97.5002L94.2002 955.2H96.2002L98.6002 961.7L101 955.2H102.9Z" fill="#EEF2F4"/>
<path d="M104.2 955.2H106.1V964.1C106.1 966.5 104.9 967.6 102.6 967.4V965.6C103.7 965.7 104.3 965.3 104.3 964.1L104.2 955.2ZM104 952.8C104 952.1 104.5 951.6 105.2 951.6C105.9 951.6 106.4 952.1 106.4 952.8C106.4 953.4 105.9 954 105.2 954C104.5 954 104 953.4 104 952.8Z" fill="#EEF2F4"/>
<path d="M116 955.2L112.7 964C111.9 966.2 110.5 967.3 108.5 967.2V965.5C109.7 965.6 110.4 965 110.8 963.8L110.9 963.6L107.3 955.2H109.3L111.9 961.4L114.1 955.2H116Z" fill="#EEF2F4"/>
<path d="M211.9 938.7C211.9 940.8 210.4 942.5 208.3 942.5H205.3V934.9H208.3C210.4 934.9 211.9 936.6 211.9 938.7ZM210.9 938.7C210.9 937.1 209.8 935.8 208.3 935.8H206.3V941.5H208.3C209.8 941.6 210.9 940.3 210.9 938.7Z" fill="#EEF2F4"/>
<path d="M219.499 940.8H216.099L215.499 942.5H214.399L217.199 934.9H218.299L221.099 942.5H219.999L219.499 940.8ZM219.199 939.9L217.799 936.1L216.399 939.9H219.199Z" fill="#EEF2F4"/>
<path d="M226.4 939.4V942.5H225.4V939.4L222.7 934.9H223.8L225.9 938.5L228 934.9H229.1L226.4 939.4Z" fill="#EEF2F4"/>
<path d="M239.5 934.9V942.5H238.5V936L236.9 936.5L236.6 935.6L238.6 934.9H239.5Z" fill="#EEF2F4"/>
<path d="M248.2 940.3C248.2 941.8 247 942.7 245.6 942.7C244.5 942.7 243.5 942.2 243.1 941.1L244 940.6C244.2 941.4 244.8 941.7 245.7 941.7C246.6 941.7 247.3 941.2 247.3 940.3C247.3 939.4 246.6 938.9 245.7 938.9H243.5L243.8 934.9H248V935.8H244.7L244.6 937.8H245.7C247 937.9 248.2 938.7 248.2 940.3Z" fill="#EEF2F4"/>
<path d="M58.8998 938.7C58.8998 940.8 57.3998 942.5 55.2998 942.5H52.2998V934.9H55.2998C57.3998 934.9 58.8998 936.6 58.8998 938.7ZM57.8998 938.7C57.8998 937.1 56.7998 935.8 55.2998 935.8H53.2998V941.5H55.2998C56.7998 941.6 57.8998 940.3 57.8998 938.7Z" fill="#EEF2F4"/>
<path d="M66.9994 941.6V942.6H62.3994V935H66.8994V936H63.3994V938.3H66.5994V939.2H63.3994V941.6H66.9994Z" fill="#EEF2F4"/>
<path d="M70 940.8L70.9 940.3C71.2 941.1 71.8 941.7 72.9 941.7C74 941.7 74.5 941.2 74.5 940.5C74.5 939.7 73.8 939.5 72.7 939.1C71.5 938.7 70.3 938.3 70.3 936.9C70.3 935.5 71.4 934.7 72.7 934.7C74 934.7 74.9 935.4 75.3 936.4L74.5 936.9C74.2 936.2 73.7 935.7 72.8 935.7C72 935.7 71.4 936.1 71.4 936.8C71.4 937.5 71.9 937.8 73 938.1C74.3 938.5 75.6 938.9 75.6 940.4C75.6 941.7 74.5 942.6 73 942.6C71.5 942.7 70.4 941.9 70 940.8Z" fill="#EEF2F4"/>
<path d="M80 934.9V942.5H79V934.9H80Z" fill="#EEF2F4"/>
<path d="M91.2996 939.2C91.2996 941.1 89.8996 942.7 87.5996 942.7C85.1996 942.7 83.5996 940.9 83.5996 938.7C83.5996 936.5 85.2996 934.7 87.5996 934.7C88.9996 934.7 90.2996 935.5 90.8996 936.5L89.9996 937C89.5996 936.2 88.5996 935.6 87.5996 935.6C85.7996 935.6 84.5996 936.9 84.5996 938.6C84.5996 940.3 85.7996 941.6 87.5996 941.6C89.1996 941.6 90.0996 940.7 90.2996 939.6H87.4996V938.7H91.2996V939.2Z" fill="#EEF2F4"/>
<path d="M100.599 934.9V942.5H99.7994L95.8994 936.8V942.5H94.8994V934.9H95.6994L99.5994 940.6V934.9H100.599Z" fill="#EEF2F4"/>
<path d="M109.1 941.6V942.6H104.5V935H109V936H105.5V938.3H108.7V939.2H105.5V941.6H109.1Z" fill="#EEF2F4"/>
<path d="M119.2 938.7C119.2 940.8 117.7 942.5 115.6 942.5H112.6V934.9H115.6C117.6 934.9 119.2 936.6 119.2 938.7ZM118.2 938.7C118.2 937.1 117.1 935.8 115.6 935.8H113.6V941.5H115.6C117.1 941.6 118.2 940.3 118.2 938.7Z" fill="#EEF2F4"/>
<path d="M133.2 940.4C133.2 941.6 132.2 942.6 131 942.6H127.7V935H130.7C131.9 935 132.8 935.9 132.8 937.1C132.8 937.8 132.5 938.3 132 938.7C132.7 938.9 133.2 939.5 133.2 940.4ZM128.7 935.8V938.1H130.7C131.3 938.1 131.8 937.6 131.8 936.9C131.8 936.3 131.3 935.7 130.7 935.7H128.7V935.8ZM132.2 940.3C132.2 939.6 131.7 939.1 131 939.1H128.7V941.6H131C131.7 941.6 132.2 941 132.2 940.3Z" fill="#EEF2F4"/>
<path d="M139.4 939.4V942.5H138.4V939.4L135.7 934.9H136.8L138.9 938.5L141 934.9H142.1L139.4 939.4Z" fill="#EEF2F4"/>
<path d="M204.8 958.1C204.8 954.5 207.5 951.7 211.3 951.7C213.6 951.7 215.6 952.9 216.6 954.7L214.8 955.7C214.1 954.5 212.8 953.7 211.2 953.7C208.5 953.7 206.8 955.6 206.8 958.1C206.8 960.6 208.6 962.5 211.2 962.5C212.8 962.5 214.1 961.7 214.8 960.5L216.6 961.5C215.6 963.3 213.6 964.5 211.3 964.5C207.5 964.5 204.8 961.7 204.8 958.1Z" fill="#EEF2F4"/>
<path d="M217.7 959.9C217.7 957.3 219.8 955.2 222.4 955.2C225 955.2 227.1 957.2 227.1 959.9C227.1 962.5 225 964.6 222.4 964.6C219.8 964.5 217.7 962.5 217.7 959.9ZM225.1 959.9C225.1 958.3 223.9 957.1 222.3 957.1C220.7 957.1 219.5 958.3 219.5 959.9C219.5 961.5 220.7 962.7 222.3 962.7C223.9 962.7 225.1 961.5 225.1 959.9Z" fill="#EEF2F4"/>
<path d="M228.8 951.4H230.7V964.3H228.8V951.4Z" fill="#EEF2F4"/>
<path d="M232.399 959.9C232.399 957.3 234.499 955.2 237.099 955.2C239.699 955.2 241.799 957.2 241.799 959.9C241.799 962.5 239.699 964.6 237.099 964.6C234.499 964.5 232.399 962.5 232.399 959.9ZM239.799 959.9C239.799 958.3 238.599 957.1 236.999 957.1C235.399 957.1 234.199 958.3 234.199 959.9C234.199 961.5 235.399 962.7 236.999 962.7C238.599 962.7 239.799 961.5 239.799 959.9Z" fill="#EEF2F4"/>
<path d="M248.1 955.3V957.4C246.8 957.3 245.4 957.9 245.4 959.9V964.4H243.5V955.5H245.4V957C245.9 955.7 247 955.3 248.1 955.3Z" fill="#EEF2F4"/>
<path d="M262.1 953.9H258.6V964.3H256.6V953.9H253.1V952H262.1V953.9Z" fill="#EEF2F4"/>
<path d="M261.399 959.9C261.399 957.3 263.499 955.2 266.099 955.2C268.699 955.2 270.799 957.2 270.799 959.9C270.799 962.5 268.699 964.6 266.099 964.6C263.499 964.5 261.399 962.5 261.399 959.9ZM268.899 959.9C268.899 958.3 267.699 957.1 266.099 957.1C264.499 957.1 263.299 958.3 263.299 959.9C263.299 961.5 264.499 962.7 266.099 962.7C267.699 962.7 268.899 961.5 268.899 959.9Z" fill="#EEF2F4"/>
<path d="M272 959.9C272 957.3 274.1 955.2 276.7 955.2C279.3 955.2 281.4 957.2 281.4 959.9C281.4 962.5 279.3 964.6 276.7 964.6C274.1 964.5 272 962.5 272 959.9ZM279.5 959.9C279.5 958.3 278.3 957.1 276.7 957.1C275.1 957.1 273.9 958.3 273.9 959.9C273.9 961.5 275.1 962.7 276.7 962.7C278.3 962.7 279.5 961.5 279.5 959.9Z" fill="#EEF2F4"/>
<path d="M283.1 951.4H285V964.3H283.1V951.4Z" fill="#EEF2F4"/>
<path d="M841.3 942.5H840.3V934.9H841.4L843.8 938.9L846.2 934.9H847.3V942.5H846.3V936.5L843.8 940.7H843.7L841.2 936.6L841.3 942.5ZM858.8 938.7C858.8 940.9 857.1 942.7 854.8 942.7C852.6 942.7 850.9 940.9 850.9 938.7C850.9 936.5 852.6 934.7 854.8 934.7C857.1 934.7 858.8 936.5 858.8 938.7ZM857.8 938.7C857.8 937 856.5 935.7 854.9 935.7C853.2 935.7 852 937 852 938.7C852 940.4 853.3 941.7 854.9 941.7C856.6 941.7 857.8 940.4 857.8 938.7ZM866.2 939.5L868 942.6H866.9L865.2 939.7H863.4V942.6H862.4V935H865.4C866.7 935 867.8 936.1 867.8 937.4C867.8 938.2 867.1 939.1 866.2 939.5ZM865.4 938.7C866.2 938.7 866.8 938.1 866.8 937.3C866.8 936.5 866.2 935.9 865.4 935.9H863.4V938.7H865.4ZM875.9 941.6H872.4V939.2H875.6V938.3H872.4V936H875.9V935H871.4V942.6H876L875.9 941.6ZM844.2 962.2L841.7 955.5H839.6L843.1 964.4H845.3L848.8 955.5H846.7L844.2 962.2ZM850 964.3H851.9V955.4H850V964.3ZM851 951.7C850.3 951.7 849.8 952.2 849.8 952.9C849.8 953.6 850.3 954.1 851 954.1C851.7 954.1 852.2 953.5 852.2 952.9C852.2 952.2 851.6 951.7 851 951.7ZM855.2 951.7C854.5 951.7 854 952.2 854 952.9C854 953.6 854.5 954.1 855.2 954.1C855.9 954.1 856.4 953.5 856.4 952.9C856.5 952.2 855.9 951.7 855.2 951.7ZM854.3 964.7C854.3 965.9 853.8 966.4 852.6 966.3V968.1C855 968.3 856.2 967.1 856.2 964.7V955.5H854.3V964.7ZM865.4 955.4H867.3V964.3H865.4V963C864.7 963.9 863.7 964.5 862.3 964.5C859.9 964.5 857.9 962.5 857.9 959.8C857.9 957.2 859.9 955.1 862.3 955.1C863.7 955.1 864.7 955.7 865.4 956.6V955.4ZM865.4 959.9C865.4 958.3 864.2 957.1 862.6 957.1C861 957.1 859.8 958.3 859.8 959.9C859.8 961.5 861 962.7 862.6 962.7C864.2 962.7 865.4 961.5 865.4 959.9ZM873.3 961.9L870.7 955.5H868.6L872.4 964.2L872.3 964.4C871.9 965.6 871.2 966.2 869.9 966.1V967.9C871.9 968 873.4 966.9 874.2 964.6L877.6 955.5H875.6L873.3 961.9ZM882.3 962.2L879.8 955.5H877.7L881.2 964.4H883.4L886.9 955.5H884.8L882.3 962.2ZM896.4 959.9C896.4 960.2 896.4 960.4 896.3 960.7H889.3C889.6 962.1 890.7 962.8 892.1 962.8C893.2 962.8 894 962.3 894.4 961.7L896 962.6C895.2 963.8 893.9 964.5 892.1 964.5C889.2 964.5 887.3 962.5 887.3 959.8C887.3 957.2 889.2 955.1 892 955.1C894.5 955.2 896.4 957.3 896.4 959.9ZM894.4 959.1C894.1 957.6 893 956.9 891.9 956.9C890.5 956.9 889.5 957.7 889.2 959.1H894.4ZM899.9 956.9V955.4H898V964.3H899.9V959.8C899.9 957.8 901.4 957.2 902.6 957.3V955.2C901.6 955.3 900.5 955.7 899.9 956.9ZM913.8 955.2C912.6 955.2 911.7 955.7 911.1 956.6C910.6 955.7 909.7 955.2 908.6 955.2C907.5 955.2 906.6 955.6 906.1 956.5V955.4H904.2V964.3H906.1V959.3C906.1 957.7 907 957 908.1 957C909.1 957 909.8 957.7 909.8 958.9V964.3H911.7V959.3C911.7 957.7 912.5 957 913.6 957C914.6 957 915.3 957.7 915.3 958.9V964.3H917.2V958.8C917.1 956.6 915.8 955.2 913.8 955.2ZM926.2 955.4H928.1V964.3H926.2V963C925.5 963.9 924.5 964.5 923.1 964.5C920.7 964.5 918.7 962.5 918.7 959.8C918.7 957.2 920.7 955.1 923.1 955.1C924.5 955.1 925.5 955.7 926.2 956.6V955.4ZM926.2 959.9C926.2 958.3 925 957.1 923.4 957.1C921.8 957.1 920.6 958.3 920.6 959.9C920.6 961.5 921.8 962.7 923.4 962.7C925 962.7 926.2 961.5 926.2 959.9ZM931.5 961.9C930.8 961.9 930.2 962.5 930.2 963.2C930.2 963.9 930.8 964.5 931.5 964.5C932.2 964.5 932.8 963.9 932.8 963.2C932.8 962.4 932.2 961.9 931.5 961.9ZM938.3 962.6C936.7 962.6 935.6 961.4 935.6 959.8C935.6 958.2 936.8 957 938.3 957C939.4 957 940.2 957.5 940.6 958.4L942.2 957.4C941.5 956 940 955.1 938.3 955.1C935.6 955.1 933.6 957.1 933.6 959.8C933.6 962.4 935.6 964.5 938.3 964.5C940 964.5 941.5 963.6 942.3 962.2L940.7 961.3C940.2 962.1 939.3 962.6 938.3 962.6ZM952.4 959.9C952.4 962.5 950.3 964.6 947.7 964.6C945.1 964.6 943 962.6 943 959.9C943 957.3 945.1 955.2 947.7 955.2C950.3 955.2 952.4 957.2 952.4 959.9ZM950.5 959.9C950.5 958.3 949.3 957.1 947.7 957.1C946.1 957.1 944.9 958.3 944.9 959.9C944.9 961.5 946.1 962.7 947.7 962.7C949.3 962.7 950.5 961.5 950.5 959.9Z" fill="#EEF2F4"/>
<path d="M792.5 3H642.5V361.2H792.5V3Z" fill="#FF8603"/>
<path d="M762.5 60.5V111C762.5 119.3 755.8 126 747.5 126C739.2 126 732.5 119.3 732.5 111V43C732.5 34.7 725.8 28 717.5 28C709.2 28 702.5 34.7 702.5 43V111C702.5 119.3 695.8 126 687.5 126C679.2 126 672.5 119.3 672.5 111V88C672.5 79.7 665.8 73 657.5 73C649.2 73 642.5 79.7 642.5 88V126V137V349.2H792.5V137V126V60.5C792.5 52.2 785.8 45.5 777.5 45.5C769.3 45.5 762.5 52.2 762.5 60.5Z" fill="#ED5F18"/>
<path d="M762.5 72.5V123C762.5 131.3 755.8 138 747.5 138C739.2 138 732.5 131.3 732.5 123V55C732.5 46.7 725.8 40 717.5 40C709.2 40 702.5 46.7 702.5 55V123C702.5 131.3 695.8 138 687.5 138C679.2 138 672.5 131.3 672.5 123V100C672.5 91.7 665.8 85 657.5 85C649.2 85 642.5 91.7 642.5 100V138V149V361.2H792.5V149V138V72.5C792.5 64.2 785.8 57.5 777.5 57.5C769.3 57.5 762.5 64.2 762.5 72.5Z" fill="#EF2531"/>
<path d="M762.5 168.3V239.4C762.5 247.7 755.8 254.4 747.5 254.4C739.2 254.4 732.5 247.7 732.5 239.4V202.6C732.5 194.3 725.8 187.6 717.5 187.6C709.2 187.6 702.5 194.3 702.5 202.6V239.4C702.5 247.7 695.8 254.4 687.5 254.4C679.2 254.4 672.5 247.7 672.5 239.4V188.9C672.5 180.6 665.8 173.9 657.5 173.9C649.2 173.9 642.5 180.6 642.5 188.9V254.4V265.4V352.9H792.5V265.4V254.4V168.3C792.5 160 785.8 153.3 777.5 153.3C769.3 153.3 762.5 160 762.5 168.3Z" fill="#CC253D"/>
<path d="M762.5 72.5V123C762.5 131.3 755.8 138 747.5 138C739.2 138 732.5 131.3 732.5 123V55C732.5 46.7 725.8 40 717.5 40C709.2 40 702.5 46.7 702.5 55V123C702.5 131.3 695.8 138 687.5 138C679.2 138 672.5 131.3 672.5 123V100C672.5 91.7 665.8 85 657.5 85C649.2 85 642.5 91.7 642.5 100V138V149V361.2H792.5V149V138V72.5C792.5 64.2 785.8 57.5 777.5 57.5C769.3 57.5 762.5 64.2 762.5 72.5Z" stroke="#3F2522" stroke-width="6" stroke-miterlimit="10" stroke-linecap="round" stroke-linejoin="round"/>
<path d="M762.5 181.3V252.4C762.5 260.7 755.8 267.4 747.5 267.4C739.2 267.4 732.5 260.7 732.5 252.4V215.6C732.5 207.3 725.8 200.6 717.5 200.6C709.2 200.6 702.5 207.3 702.5 215.6V252.4C702.5 260.7 695.8 267.4 687.5 267.4C679.2 267.4 672.5 260.7 672.5 252.4V201.9C672.5 193.6 665.8 186.9 657.5 186.9C649.2 186.9 642.5 193.6 642.5 201.9V267.4V278.4V365.9H792.5V278.4V267.4V181.3C792.5 173 785.8 166.3 777.5 166.3C769.3 166.3 762.5 173 762.5 181.3Z" fill="#38BEB3"/>
<path opacity="0.14" d="M792.5 325H642.5V361.2H792.5V325Z" fill="#026060"/>
<path d="M762.5 181.3V252.4C762.5 260.7 755.8 267.4 747.5 267.4C739.2 267.4 732.5 260.7 732.5 252.4V215.6C732.5 207.3 725.8 200.6 717.5 200.6C709.2 200.6 702.5 207.3 702.5 215.6V252.4C702.5 260.7 695.8 267.4 687.5 267.4C679.2 267.4 672.5 260.7 672.5 252.4V201.9C672.5 193.6 665.8 186.9 657.5 186.9C649.2 186.9 642.5 193.6 642.5 201.9V267.4V278.4V365.9H792.5V278.4V267.4V181.3C792.5 173 785.8 166.3 777.5 166.3C769.3 166.3 762.5 173 762.5 181.3Z" stroke="#3F2522" stroke-width="6" stroke-miterlimit="10" stroke-linecap="round" stroke-linejoin="round"/>
<path d="M792.5 3H642.5V361.2H792.5V3Z" stroke="#3F2522" stroke-width="6" stroke-miterlimit="10" stroke-linecap="round" stroke-linejoin="round"/>
<path d="M715.2 514.4V492.7C715.2 478.2 727 466.4 741.5 466.4H818.9C833.4 466.4 845.2 454.6 845.2 440.1V417.4C845.2 402.9 833.4 391.1 818.9 391.1H795.2" stroke="#3F2522" stroke-width="8" stroke-miterlimit="10" stroke-linecap="round" stroke-linejoin="round"/>
<path d="M564.4 382.1L536.2 331C535.3 329.3 532.9 329.3 532 331L503.9 382V391.2H564.4V382.1Z" fill="#F1E4E5"/>
<path d="M536.3 331.1C535.4 329.4 533 329.4 532.1 331.1L529 336.8L555.2 384.3V391.2H564.5V382.1L536.3 331.1Z" fill="#DDD4D5"/>
<path d="M564.4 382.1L536.2 331C535.3 329.3 532.9 329.3 532 331L503.9 382V391.2H564.4V382.1Z" stroke="#3F2522" stroke-width="6" stroke-miterlimit="10" stroke-linecap="round" stroke-linejoin="round"/>
<path d="M545 346.9L536.3 331.1C535.4 329.4 533 329.4 532.1 331.1L523.4 346.9H545Z" stroke="#3F2522" stroke-width="6" stroke-miterlimit="10" stroke-linecap="round" stroke-linejoin="round"/>
<path d="M545 346.9L536.3 331.1C535.4 329.4 533 329.4 532.1 331.1L523.4 346.9H545Z" fill="#3F2522"/>
<path d="M292.3 642.2C276.1 642.2 262.4 628.8 261.8 611.7L256.3 470.2H328.3L322.8 611.7C322.2 628.8 308.5 642.2 292.3 642.2Z" fill="#6B352F"/>
<path opacity="0.48" d="M262.5 617.3C270.3 617.3 276.6 610.8 276.2 603L271.2 484.5C270.9 476.5 264.3 470.2 256.3 470.2L261.8 611.7C261.9 613.6 262.1 615.5 262.5 617.3Z" fill="#A35D58"/>
<path d="M328.3 470.2C319.3 470.2 311.9 477.3 311.5 486.3L307 603.8C306.3 621 292.7 634.3 276.5 634.3C275 634.3 273.4 634.2 271.9 633.9C277.3 639 284.5 642.1 292.3 642.1C308.5 642.1 322.2 628.7 322.8 611.6L328.3 470.2Z" fill="#602C29"/>
<g opacity="0.2">
<path opacity="0.2" d="M297.1 534.7L296.8 535.6C294.1 542.4 287 560.5 297.4 573.5C303.5 581.1 312.3 582.2 320.8 583.2C321.9 583.3 322.9 583.5 324 583.6L324.2 577.6C323.3 577.5 322.4 577.4 321.5 577.3C313.5 576.3 306.7 575.5 302.1 569.8C293.8 559.5 299.8 544.3 302.4 537.9L302.7 537.1C303.9 534.2 312.6 518 327 505.5L327.3 497.5C309.5 510.9 298.8 530.5 297.1 534.7Z" fill="#DD795B"/>
<path opacity="0.2" d="M284.401 595.4C283.001 595.4 281.501 595.5 280.101 595.7C272.401 596.8 266.401 600.8 261.601 606L261.801 611.7C261.801 612.8 261.901 613.8 262.101 614.9C266.701 608.3 272.701 602.8 280.901 601.7C291.001 600.3 301.001 603.9 319.001 625.9C320.101 623.9 320.901 621.8 321.601 619.6C309.101 604.6 297.801 595.4 284.401 595.4Z" fill="#DD795B"/>
<path opacity="0.2" d="M274.9 527.8C285.2 514.8 293.3 504.5 289.1 493C284.7 480.9 269.8 476.1 256.4 472.7L256.6 479C268.1 482 280.2 486.3 283.4 495.1C286.4 503.5 279.6 512.1 270.1 524.1C266.6 528.5 262.8 533.4 258.9 538.9L259.3 549.1C264.5 540.9 270 534 274.9 527.8Z" fill="#DD795B"/>
<path opacity="0.2" d="M306.7 478.1C308.7 477.2 309.5 475.9 309.8 474.9C310.3 473.3 309.9 471.7 309.2 470.2H302.3C302.5 470.5 302.6 470.7 302.7 470.9C303 471.5 303.5 472.2 303.7 472.8C302.3 473 300.6 471.9 298.8 470.2H290.5C295.7 476 300.8 480.8 306.7 478.1Z" fill="#DD795B"/>
<path opacity="0.2" d="M275 496.2C274.2 490.5 269.2 487.2 268.7 486.9C265.5 484.8 261.4 484 256.9 484.5L257.1 490.5C260.4 490.1 263.2 490.5 265.4 491.9C266.3 492.5 268.6 494.4 269 497C269.5 500.7 265.4 504.6 261.4 508.4C260.3 509.4 259.1 510.6 257.9 511.8L258.2 519.9C261 517.2 263.4 514.8 265.5 512.8C270.4 508.2 275.9 502.9 275 496.2Z" fill="#DD795B"/>
<path opacity="0.2" d="M306 483.6C298 483.6 291.7 476.8 286.5 470.2H279C279.1 470.4 279.3 470.6 279.4 470.8C285.5 478.8 293.8 489.6 306 489.6C315.9 489.6 320.7 479.4 324.1 472C324.4 471.4 324.6 470.8 324.9 470.2H318.3C315.5 476.4 311.9 483.6 306 483.6Z" fill="#DD795B"/>
<path opacity="0.2" d="M287 578.8C282.7 572.3 281.3 562.7 282.8 550.1C284.7 534.7 296.1 518.3 302 511.7C312.9 499.6 323.4 490.8 327.7 487.3L328 479.3C327.3 479.9 326.7 480.4 326.1 480.9C325.5 481.3 312.1 491.5 297.6 507.6C291.3 514.6 279 532.4 277 549.2C275.3 563.2 277.1 574.2 282.2 581.9C288.8 592 302.6 597.4 319.3 597.4C320.7 597.4 322.1 597.4 323.5 597.3L323.7 591.3C306.8 592.6 293.1 588.2 287 578.8Z" fill="#DD795B"/>
<path opacity="0.2" d="M309.6 544.6V544.8C307.9 557.6 311.7 563.3 315.1 565.7C317.4 567.4 320.2 568.1 323.3 568.1C323.7 568.1 324.1 568.1 324.5 568.1L324.7 562.1C322.3 562.3 320.2 562 318.6 560.9C316.9 559.7 314.1 556 315.5 545.6V545.5C316.7 537.6 321.1 530.1 326.1 524.7L326.4 516.2C318.8 522.3 311.3 532.9 309.6 544.6Z" fill="#DD795B"/>
<path opacity="0.2" d="M263.901 558C264.101 558 264.701 558.1 265.401 559.3C267.301 562.3 268.401 576.3 263.001 588.1C262.401 589.4 261.701 590.7 261.001 591.8L261.401 600.8C264.101 598.1 266.701 594.7 268.601 590.5C273.101 580.6 275.001 563 270.601 556.1C268.701 553.1 266.301 552.2 264.701 552C262.901 551.8 261.101 552.3 259.601 553L259.901 560C261.101 558.8 262.801 557.8 263.901 558Z" fill="#DD795B"/>
<path opacity="0.2" d="M304.3 617.3C302.1 615.5 296.4 610.9 288 610.5C287.7 610.5 280.7 610.3 274.1 614.2C270.3 616.5 267.2 620 264.8 624.2C265.8 626.4 267.1 628.4 268.5 630.3C270.4 625.6 273.3 621.6 277.1 619.3C282.1 616.3 287.7 616.4 287.7 616.4C294 616.7 298.5 620.3 300.5 621.8C300.5 621.8 304 624.6 307.3 630.1C308.4 632 309.4 633.9 310.2 635.9C311.9 634.6 313.5 633.2 314.9 631.5C310.5 622.3 304.7 617.6 304.3 617.3Z" fill="#DD795B"/>
<path opacity="0.2" d="M296.8 626.8C292.2 625.5 285.9 626 282.3 630.4C280.3 632.9 279.4 636.1 279.7 639.4C281.8 640.4 284 641.1 286.2 641.6C285.2 638.7 285.6 635.9 286.9 634.2C288.9 631.8 292.9 631.9 295 632.6C298.3 633.6 300.9 636.5 302.4 640.4C304.3 639.7 306.1 638.8 307.8 637.8C305.7 632.4 301.8 628.3 296.8 626.8Z" fill="#DD795B"/>
</g>
<path d="M328.3 470.2C304.3 470.2 280.3 470.2 256.3 470.2C257 442.9 262.7 422.3 270.6 408.5C285 408.5 299.5 408.5 313.9 408.5C321.9 422.3 327.6 442.8 328.3 470.2Z" fill="#BDCED9"/>
<path opacity="0.26" d="M270.7 408.5C262.8 422.3 257.1 442.8 256.4 470.2C263.6 470.2 269.7 464.7 270.3 457.5C272.2 436.4 277.3 420.1 283.9 408.6H270.7V408.5Z" fill="white"/>
<path d="M315.8 424.2H284.9C276.4 424.2 269.5 417.3 269.5 408.8V408.5H315.8V424.2V424.2Z" fill="#ACC1CC"/>
<path d="M314 408.5C308.3 408.5 302.6 408.5 296.9 408.5C304.8 422.3 310.5 442.8 311.2 470.2C316.9 470.2 322.6 470.2 328.3 470.2C327.6 442.8 321.9 422.3 314 408.5Z" fill="#ACC1CC"/>
<path d="M328.3 470.2C304.3 470.2 280.3 470.2 256.3 470.2C257 442.9 262.7 422.3 270.6 408.5C285 408.5 299.5 408.5 313.9 408.5C321.9 422.3 327.6 442.8 328.3 470.2Z" stroke="#3F2522" stroke-width="6" stroke-miterlimit="10" stroke-linecap="round" stroke-linejoin="round"/>
<path d="M312.3 408.5H272.3C265.7 408.5 260.3 403.1 260.3 396.5C260.3 389.9 265.7 384.5 272.3 384.5H312.3C318.9 384.5 324.3 389.9 324.3 396.5C324.3 403.1 319 408.5 312.3 408.5Z" fill="#BDCED9"/>
<path opacity="0.26" d="M266.3 404.5C269.669 404.5 272.4 400.918 272.4 396.5C272.4 392.082 269.669 388.5 266.3 388.5C262.931 388.5 260.2 392.082 260.2 396.5C260.2 400.918 262.931 404.5 266.3 404.5Z" fill="white"/>
<path d="M312.3 384.5H288.1C294.7 384.5 300.1 389.9 300.1 396.5C300.1 403.1 294.7 408.5 288.1 408.5H312.3C318.9 408.5 324.3 403.1 324.3 396.5C324.3 389.9 319 384.5 312.3 384.5Z" fill="#ACC1CC"/>
<path d="M312.3 408.5H272.3C265.7 408.5 260.3 403.1 260.3 396.5C260.3 389.9 265.7 384.5 272.3 384.5H312.3C318.9 384.5 324.3 389.9 324.3 396.5C324.3 403.1 319 408.5 312.3 408.5Z" stroke="#3F2522" stroke-width="6" stroke-miterlimit="10" stroke-linecap="round" stroke-linejoin="round"/>
<path d="M314.3 315.5C319 322 326.6 328.5 328.2 340.3C328.8 344.9 328.6 349.8 327.5 354.7C323.8 370 306.5 386.2 286.1 384.2C265.2 382.2 248.4 361.8 251.1 338.4C251.8 331.7 254.6 312.6 269.8 295.5C279.1 285 289.6 279.2 297.1 276.1C300.2 274.8 303.6 277 303.7 280.4C304.2 297.9 309.3 308.7 314.3 315.5Z" fill="#3F2522"/>
<path d="M314.3 315.5C319 322 326.6 328.5 328.2 340.3C328.8 344.9 328.6 349.8 327.5 354.7C323.8 370 306.5 386.2 286.1 384.2C265.2 382.2 248.4 361.8 251.1 338.4C251.8 331.7 254.6 312.6 269.8 295.5C279.1 285 289.6 279.2 297.1 276.1C300.2 274.8 303.6 277 303.7 280.4C304.2 297.9 309.3 308.7 314.3 315.5Z" stroke="#3F2522" stroke-width="6" stroke-miterlimit="10" stroke-linecap="round" stroke-linejoin="round"/>
<path opacity="0.76" d="M319.9 338.6C319.9 338.4 319.9 338.3 319.9 338.1C319.9 337.9 320 337.6 320 337.4C320.1 336.9 320.1 336.3 320.2 335.8C320.2 335.6 320.3 335.4 320.3 335.2C320.8 332.5 321.5 324.3 322.6 321.8C320.8 321.5 319.2 326.1 318.1 324.7C316.7 323 315.4 321.5 314.3 319.9C309.3 313.1 304.2 302.3 303.7 284.7C303.6 281.3 300.2 279.1 297.1 280.4C289.6 283.5 279.1 289.3 269.8 299.8C262.1 308.4 253.3 312.3 250.8 324.2C251.2 324.3 259.9 331.5 259.9 337V352.1C259.9 358.9 265.3 364.8 272.1 364.9C279.1 365 284.8 359.4 284.8 352.5V326.5C284.8 322.7 287.7 319.4 291.5 319.3C295.4 319.2 298.7 322.3 298.7 326.2V338.1C298.7 345 303.5 350.5 309.4 350.5C314.8 350.5 319.3 345.8 320 339.8C319.8 339.4 319.9 339 319.9 338.6Z" fill="#301B19"/>
<path d="M292.3 642.2C276.1 642.2 262.4 628.8 261.8 611.7L256.3 470.2H328.3L322.8 611.7C322.2 628.8 308.5 642.2 292.3 642.2Z" stroke="#3F2522" stroke-width="6" stroke-miterlimit="10" stroke-linecap="round" stroke-linejoin="round"/>
<path d="M420 635.1C402.3 635.1 388 620.8 388 603.1V447.1H452V603.1C452 620.8 437.7 635.1 420 635.1Z" fill="#38BEB3"/>
<path opacity="0.23" d="M390 615.3V452.7C396.6 452.7 402 458.1 402 464.7V603.4C402 610 396.6 615.3 390 615.3Z" fill="white"/>
<path opacity="0.32" d="M437 447.1V595.3C437 613 422.7 627.3 405 627.3C402.7 627.3 400.5 627.1 398.3 626.6C404 631.9 411.6 635.1 420 635.1C437.7 635.1 452 620.8 452 603.1V447.1H437Z" fill="#026060"/>
<path d="M420 635.1C402.3 635.1 388 620.8 388 603.1V447.1H452V603.1C452 620.8 437.7 635.1 420 635.1Z" stroke="#3F2522" stroke-width="6" stroke-miterlimit="10" stroke-linecap="round" stroke-linejoin="round"/>
<path d="M436 377.1V347.5H404V377.1C404 385.9 396.8 393.1 388 393.1V447.1H452V393.1C443.2 393.1 436 385.9 436 377.1Z" fill="#9BC7BC"/>
<path opacity="0.26" d="M391 443.7H390.3V396.5C396.6 396.5 401.6 401.6 401.6 407.8V433C401.7 438.9 396.9 443.7 391 443.7Z" fill="white"/>
<path opacity="0.47" d="M436 377.1V347.5C428.3 347.5 422 353.8 422 361.5V377.1C422 388.6 428.5 398.6 438 403.6V433.1C438 440.8 444.3 447.1 452 447.1V393.1C443.2 393.1 436 385.9 436 377.1Z" fill="#72A596"/>
<path d="M436 377.1V347.5H404V377.8C404 386.3 397.1 393.1 388.7 393.1H388V447.1H452V393.1C443.2 393.1 436 385.9 436 377.1Z" stroke="#3F2522" stroke-width="6" stroke-miterlimit="10" stroke-linecap="round" stroke-linejoin="round"/>
<path d="M408 302.9V347.6H432V314C423.9 312.2 416.8 307.8 411.7 301.6C410.5 300 408 300.9 408 302.9Z" fill="#94AF4A"/>
<path d="M408 303.7V347.5H432V313.9C424.2 312.2 417.3 307.9 412.2 302.1C410.8 300.4 408 301.4 408 303.7Z" stroke="#3F2522" stroke-width="6" stroke-miterlimit="10" stroke-linecap="round" stroke-linejoin="round"/>
<path d="M552.2 636.2H516.2C509.6 636.2 504.2 630.8 504.2 624.2V608.7H564.2V624.2C564.2 630.8 558.8 636.2 552.2 636.2Z" fill="#EC2731"/>
<path d="M555 618.8V623.5C555 626.4 552.6 628.8 549.7 628.8H524.1C520 628.8 516.6 632.1 516.6 636.3H552.1C558.7 636.3 564.1 630.9 564.1 624.3V610H563.7C558.9 610 555 613.9 555 618.8Z" fill="#D3112E"/>
<path opacity="0.51" d="M511.1 630.8C508.9 630.8 507.2 629 507.2 626.9V611.6H511.1C513.3 611.6 515 613.4 515 615.5C515 618.8 515 623.6 515 626.9C515 629 513.2 630.8 511.1 630.8Z" fill="#FFA4AD"/>
<path d="M552.2 636.2H516.2C509.6 636.2 504.2 630.8 504.2 624.2V608.7H564.2V624.2C564.2 630.8 558.8 636.2 552.2 636.2Z" stroke="#3F2522" stroke-width="6" stroke-miterlimit="10" stroke-linecap="round" stroke-linejoin="round"/>
<path d="M566.2 608.7H546.2V387.7C546.2 382.2 550.7 377.7 556.2 377.7C561.7 377.7 566.2 382.2 566.2 387.7V608.7Z" fill="#48633B"/>
<path d="M566.2 608.7H546.2V387.7C546.2 382.2 550.7 377.7 556.2 377.7C561.7 377.7 566.2 382.2 566.2 387.7V608.7Z" stroke="#3F2522" stroke-width="6" stroke-miterlimit="10" stroke-linecap="round" stroke-linejoin="round"/>
<path d="M522.2 608.7H502.2V387.7C502.2 382.2 506.7 377.7 512.2 377.7C517.7 377.7 522.2 382.2 522.2 387.7V608.7Z" fill="#94AF4A"/>
<path d="M506.9 604.2C504.6 604.2 502.7 602.3 502.7 600V386.5C502.7 384.2 504.6 382.3 506.9 382.3C509.2 382.3 511.1 384.2 511.1 386.5V600C511.1 602.3 509.2 604.2 506.9 604.2Z" fill="#BFBC47"/>
<path d="M522.2 608.7H502.2V387.7C502.2 382.2 506.7 377.7 512.2 377.7C517.7 377.7 522.2 382.2 522.2 387.7V608.7Z" stroke="#3F2522" stroke-width="6" stroke-miterlimit="10" stroke-linecap="round" stroke-linejoin="round"/>
<path d="M546.2 608.7H522.2V389.7C522.2 383.1 527.6 377.7 534.2 377.7C540.8 377.7 546.2 383.1 546.2 389.7V608.7Z" fill="#4D9358"/>
<path d="M546.2 608.7H522.2V389.7C522.2 383.1 527.6 377.7 534.2 377.7C540.8 377.7 546.2 383.1 546.2 389.7V608.7Z" stroke="#3F2522" stroke-width="6" stroke-miterlimit="10" stroke-linecap="round" stroke-linejoin="round"/>
<path d="M788.3 431.2H645.9C635.2 431.2 626.6 422.5 626.6 411.9V370.6C626.6 359.9 635.3 351.3 645.9 351.3H788.2C798.9 351.3 807.5 360 807.5 370.6V411.9C807.6 422.5 798.9 431.2 788.3 431.2Z" fill="#38BEB3"/>
<path opacity="0.23" d="M634.8 416C631.6 416 629 413.4 629 410.2V372.2C629 369 631.6 366.4 634.8 366.4C638 366.4 640.6 369 640.6 372.2V410.2C640.7 413.4 638.1 416 634.8 416Z" fill="white"/>
<path opacity="0.05" d="M780.8 412.4H653.3C649.9 412.4 647.1 409.6 647.1 406.2C647.1 402.8 649.9 400 653.3 400H780.8C784.2 400 787 402.8 787 406.2C787 409.6 784.2 412.4 780.8 412.4Z" fill="#026060"/>
<path opacity="0.05" d="M783.9 394.3H650.3C648.6 394.3 647.2 392.9 647.2 391.2C647.2 389.5 648.6 388.1 650.3 388.1H784C785.7 388.1 787.1 389.5 787.1 391.2C787 393 785.6 394.3 783.9 394.3Z" fill="#026060"/>
<path opacity="0.14" d="M788.3 351.2H787.2C788.5 353.8 789.3 356.7 789.3 359.9V406C789.3 414 782.8 420.6 774.7 420.6H651.3C645.4 420.6 640.6 425.4 640.6 431.3H788.2C798.9 431.3 807.5 422.6 807.5 412V370.7C807.6 359.8 798.9 351.2 788.3 351.2Z" fill="#026060"/>
<path opacity="0.15" d="M795.6 364H638.6C635.7 364 633.4 361.7 633.4 358.8C633.4 355.9 635.7 353.6 638.6 353.6H795.6C798.5 353.6 800.8 355.9 800.8 358.8C800.8 361.7 798.5 364 795.6 364Z" fill="#92D3D1"/>
<path d="M788.3 431.2H645.9C635.2 431.2 626.6 422.5 626.6 411.9V370.6C626.6 359.9 635.3 351.3 645.9 351.3H788.2C798.9 351.3 807.5 360 807.5 370.6V411.9C807.6 422.5 798.9 431.2 788.3 431.2Z" stroke="#3F2522" stroke-width="6" stroke-miterlimit="10" stroke-linecap="round" stroke-linejoin="round"/>
<path d="M715.2 630.3C703.5 630.3 693.9 620.8 693.9 609V540.6C693.9 528.9 703.4 519.3 715.2 519.3C726.9 519.3 736.5 528.8 736.5 540.6V609C736.4 620.8 726.9 630.3 715.2 630.3Z" fill="#AB5647"/>
<path opacity="0.21" d="M700.8 617.5C697.8 617.5 695.4 615.1 695.4 612.1V535.4C695.4 532.4 697.8 530 700.8 530C703.8 530 706.2 532.4 706.2 535.4V612.1C706.2 615.1 703.8 617.5 700.8 617.5Z" fill="#FFBBA6"/>
<path d="M720.6 520.1C723.6 523.8 725.5 528.5 725.5 533.6V602C725.5 613.7 716 623.3 704.2 623.3C702.3 623.3 700.5 623 698.8 622.6C702.7 627.3 708.6 630.3 715.2 630.3C726.9 630.3 736.5 620.8 736.5 609V540.6C736.4 530.8 729.7 522.5 720.6 520.1Z" fill="#9B4F45"/>
<path d="M715.2 630.3C703.5 630.3 693.9 620.8 693.9 609V540.6C693.9 528.9 703.4 519.3 715.2 519.3C726.9 519.3 736.5 528.8 736.5 540.6V609C736.4 620.8 726.9 630.3 715.2 630.3Z" stroke="#3F2522" stroke-width="6" stroke-miterlimit="10" stroke-linecap="round" stroke-linejoin="round"/>
<path d="M727.3 524.4H703C698 524.4 693.9 520.3 693.9 515.3C693.9 510.3 698 506.2 703 506.2H727.3C732.3 506.2 736.4 510.3 736.4 515.3C736.4 520.3 732.3 524.4 727.3 524.4Z" fill="#9B4F45"/>
<path opacity="0.21" d="M700.1 521.4C703.525 521.4 706.3 518.624 706.3 515.2C706.3 511.776 703.525 509 700.1 509C696.676 509 693.9 511.776 693.9 515.2C693.9 518.624 696.676 521.4 700.1 521.4Z" fill="#FFBBA6"/>
<path d="M727.3 506.1H713C718 506.1 722.1 510.2 722.1 515.2C722.1 520.2 718 524.3 713 524.3H727.3C732.3 524.3 736.4 520.2 736.4 515.2C736.4 510.2 732.3 506.1 727.3 506.1Z" fill="#8C443E"/>
<path d="M727.3 524.4H703C698 524.4 693.9 520.3 693.9 515.3C693.9 510.3 698 506.2 703 506.2H727.3C732.3 506.2 736.4 510.3 736.4 515.3C736.4 520.3 732.3 524.4 727.3 524.4Z" stroke="#3F2522" stroke-width="6" stroke-miterlimit="10" stroke-linecap="round" stroke-linejoin="round"/>
<path d="M626.6 406.2H625.4C621.6 406.2 618.6 403.1 618.6 399.4V383C618.6 379.2 621.7 376.2 625.4 376.2H626.6V406.2Z" stroke="#3F2522" stroke-width="6" stroke-miterlimit="10" stroke-linecap="round" stroke-linejoin="round"/>
<path d="M626.6 406.2H625.4C621.6 406.2 618.6 403.1 618.6 399.4V383C618.6 379.2 621.7 376.2 625.4 376.2H626.6V406.2Z" fill="#3F2522"/>
<path d="M807.6 406.2H808.8C812.6 406.2 815.6 403.1 815.6 399.4V383C815.6 379.2 812.5 376.2 808.8 376.2H807.6V406.2Z" stroke="#3F2522" stroke-width="6" stroke-miterlimit="10" stroke-linecap="round" stroke-linejoin="round"/>
<path d="M807.6 406.2H808.8C812.6 406.2 815.6 403.1 815.6 399.4V383C815.6 379.2 812.5 376.2 808.8 376.2H807.6V406.2Z" fill="#3F2522"/>
<path d="M319.9 322.5C317.9 320 315.9 317.7 314.3 315.4C309.3 308.6 304.2 297.9 303.7 280.2C303.6 276.8 300.2 274.6 297 275.9C289.5 279 279 284.8 269.7 295.3C262 303.9 257.5 313 254.8 320.7" stroke="#EC2731" stroke-width="6" stroke-miterlimit="10" stroke-linecap="round" stroke-linejoin="round"/>
<path d="M319.9 334.1C319.9 333.9 319.9 333.8 319.9 333.6C319.9 333.4 320 333.1 320 332.9C320.1 332.4 320.1 331.8 320.2 331.3C320.2 331.1 320.3 330.9 320.3 330.7C320.8 328 321.5 325.3 322.6 322.8C320.8 322.5 319.2 321.6 318.1 320.2C316.7 318.5 315.4 317 314.3 315.4C309.3 308.6 304.2 297.8 303.7 280.2C303.6 276.8 300.2 274.6 297.1 275.9C289.6 279 279.1 284.8 269.8 295.3C262.1 303.9 256.6 315.8 253.9 323.6C254.3 323.7 259.8 327 259.8 332.5V347.6C259.8 354.4 265.2 360.3 272 360.4C279 360.5 284.7 354.9 284.7 348V322C284.7 318.2 287.6 314.9 291.4 314.8C295.3 314.7 298.6 317.8 298.6 321.7V333.6C298.6 340.5 303.4 346 309.3 346C314.7 346 319.2 341.3 319.9 335.3C319.8 335 319.9 334.6 319.9 334.1Z" fill="#EC2731"/>
<path opacity="0.4" d="M408 578.8V594.7" stroke="white" stroke-width="6" stroke-miterlimit="10" stroke-linecap="round" stroke-linejoin="round"/>
<path opacity="0.4" d="M408 462.4V565.2" stroke="white" stroke-width="6" stroke-miterlimit="10" stroke-linecap="round" stroke-linejoin="round"/>
<path d="M717.7 177.8L706.9 161.8C701.2 153.4 706.5 141.6 716.7 140.9C717 140.9 717.4 140.9 717.7 140.9C718 140.9 718.4 140.9 718.7 140.9C728.8 141.6 734.1 153.3 728.5 161.8L717.7 177.8Z" fill="#CC253D"/>
<path d="M717.7 184.8L706.9 168.8C701.2 160.4 706.5 148.6 716.7 147.9C717 147.9 717.4 147.9 717.7 147.9C718 147.9 718.4 147.9 718.7 147.9C728.8 148.6 734.1 160.3 728.5 168.8L717.7 184.8Z" fill="#38BEB3"/>
<path d="M717.7 184.8L706.9 168.8C701.2 160.4 706.5 148.6 716.7 147.9C717 147.9 717.4 147.9 717.7 147.9C718 147.9 718.4 147.9 718.7 147.9C728.8 148.6 734.1 160.3 728.5 168.8L717.7 184.8Z" stroke="#3F2522" stroke-width="6" stroke-miterlimit="10" stroke-linecap="round" stroke-linejoin="round"/>
<path opacity="0.4" d="M652.7 371H736.4" stroke="white" stroke-width="6" stroke-miterlimit="10" stroke-linecap="round" stroke-linejoin="round"/>
<path opacity="0.4" d="M753.5 371H765.5" stroke="white" stroke-width="6" stroke-miterlimit="10" stroke-linecap="round" stroke-linejoin="round"/>
<path d="M715.2 613.1C718.9 613.1 721.9 610.1 721.9 606.4C721.9 602.7 718.9 599.7 715.2 599.7C711.5 599.7 708.5 602.7 708.5 606.4C708.5 610.1 711.5 613.1 715.2 613.1Z" fill="#3E454F"/>
<path d="M715.2 613.1C718.9 613.1 721.9 610.1 721.9 606.4C721.9 602.7 718.9 599.7 715.2 599.7C711.5 599.7 708.5 602.7 708.5 606.4C708.5 610.1 711.5 613.1 715.2 613.1Z" stroke="#3F2522" stroke-width="6" stroke-miterlimit="10" stroke-linecap="round" stroke-linejoin="round"/>
<path d="M17.8145 19.7831H162.186V160.217H17.8145V19.7831Z" fill="#0C0824"/>
<path d="M17.8144 19.7832H162.186V160.217H17.8144V19.7832ZM11.25 166.781H168.75V13.2188H11.25V166.781ZM117.433 76.2188C112.247 76.2188 110.475 78.8457 110.475 81.0113C110.475 83.3738 111.656 85.0163 118.614 88.6219C128.919 93.6113 132.114 98.3982 132.114 105.424C132.114 115.926 124.11 121.568 113.282 121.568C108.635 121.74 104.016 120.774 99.8269 118.755C99.3656 118.558 99.3037 118.232 99.3037 117.703V108.045C99.3037 107.387 99.63 107.19 100.091 107.522C104.025 110.052 108.605 111.395 113.282 111.392C118.468 111.392 120.634 109.226 120.634 106.273C120.634 103.911 119.126 101.813 112.494 98.3982C103.174 93.9375 99.3037 89.3982 99.3037 81.8607C99.3037 73.395 105.93 66.375 117.416 66.375C121.414 66.2033 125.407 66.8286 129.161 68.2144C129.377 68.3547 129.552 68.5501 129.668 68.7805C129.784 69.0108 129.836 69.2678 129.819 69.525V78.525C129.819 79.0482 129.493 79.38 128.835 79.1832C125.365 77.1857 121.419 76.1652 117.416 76.23L117.433 76.2188ZM60.9919 84.0263C62.4994 84.1557 63.6806 84.1557 66.3075 84.1557C73.9856 84.1557 81.2025 81.4669 81.2025 71.0325C81.2025 62.6963 76.0163 58.5 67.2919 58.5C64.665 58.5 62.1731 58.6294 60.9919 58.6969V84.0263ZM49.3087 49.1513C49.3087 48.69 50.2256 48.3638 50.7544 48.3638C54.9562 48.1669 61.1888 48.0375 67.6856 48.0375C85.8656 48.0375 92.9531 58.0107 92.9531 70.7457C92.9531 87.4125 80.8762 94.5675 66.0487 94.5675C63.5569 94.5675 62.7019 94.4382 60.93 94.4382V119.638C60.93 120.161 60.7331 120.426 60.1425 120.426H50.1019C49.5787 120.426 49.3144 120.229 49.3144 119.638V49.1794L49.3087 49.1513Z" fill="#31C5F0"/>
</svg>
